{"glyphs":{"0":{"ha":842,"x_min":44,"x_max":799,"o":"m 799 471 q 771 268 799 358 q 693 115 743 178 q 574 17 643 51 q 421 -17 504 -17 q 268 17 338 -17 q 149 115 199 51 q 72 268 99 178 q 44 471 44 358 q 72 674 44 583 q 149 826 99 764 q 268 923 199 889 q 421 957 338 957 q 574 923 504 957 q 693 826 643 889 q 771 674 743 764 q 799 471 799 583 m 185 471 q 195 360 185 421 q 232 247 206 300 q 305 159 258 194 q 421 124 351 124 q 539 159 493 124 q 612 247 585 194 q 649 360 639 300 q 660 471 660 421 q 649 581 660 521 q 612 694 639 642 q 539 782 585 746 q 421 818 493 818 q 305 782 351 818 q 232 694 258 746 q 195 581 206 642 q 185 471 185 521 z "},"1":{"ha":500,"x_min":58,"x_max":401,"o":"m 401 939 l 401 0 l 263 0 l 263 801 l 88 710 l 58 829 l 281 939 l 401 939 z "},"2":{"ha":828,"x_min":60,"x_max":763,"o":"m 88 142 q 242 256 160 190 q 399 392 325 322 q 526 531 472 463 q 594 653 581 599 q 599 685 599 669 q 589 729 599 706 q 554 774 579 753 q 494 806 529 796 q 426 817 460 817 q 317 797 367 817 q 230 756 267 778 q 172 714 193 733 q 150 694 150 694 l 60 799 q 89 826 63 801 q 163 880 115 851 q 278 932 211 908 q 426 956 344 956 q 557 930 493 956 q 666 858 621 904 q 726 767 711 813 q 740 690 740 721 q 728 617 740 654 q 669 497 711 558 q 569 374 628 436 q 438 253 510 313 q 286 140 365 193 l 763 140 l 763 0 l 88 0 l 88 142 z "},"3":{"ha":785,"x_min":47,"x_max":717,"o":"m 339 124 q 449 138 404 124 q 520 174 493 151 q 558 226 547 197 q 569 283 569 254 q 544 361 569 331 q 481 410 519 392 q 394 437 442 429 q 303 444 347 444 l 210 444 l 210 560 l 304 560 q 381 568 339 560 q 458 594 422 576 q 519 638 494 611 q 543 703 543 664 q 532 748 543 726 q 497 786 521 769 q 438 813 472 803 q 357 822 403 822 q 236 803 292 822 q 144 761 181 785 l 85 876 q 209 932 131 908 q 376 956 288 956 q 511 937 454 956 q 606 886 568 918 q 663 813 644 854 q 682 726 682 771 q 635 594 682 651 q 494 506 589 536 l 494 503 q 582 474 542 494 q 652 424 622 454 q 699 353 682 393 q 717 267 717 314 q 692 157 717 208 q 619 67 667 106 q 501 5 572 28 q 339 -18 431 -18 q 248 -11 292 -18 q 165 7 204 -4 q 96 31 126 18 q 47 57 65 44 l 106 179 q 144 161 121 171 q 199 142 168 151 q 266 128 231 133 q 339 124 301 124 z "},"4":{"ha":840,"x_min":49,"x_max":804,"o":"m 663 939 l 663 386 l 804 386 l 804 247 l 663 247 l 663 0 l 524 0 l 524 247 l 49 247 l 49 347 l 482 939 l 663 939 m 207 386 l 524 386 l 524 817 l 207 386 z "},"5":{"ha":729,"x_min":33,"x_max":686,"o":"m 308 603 q 465 583 394 603 q 585 525 535 564 q 661 431 636 486 q 686 308 686 376 q 686 293 686 300 q 654 174 683 231 q 575 75 625 118 q 457 8 525 32 q 308 -17 389 -17 q 164 -2 238 -17 q 33 46 90 13 l 94 174 q 176 139 121 156 q 308 122 232 122 q 396 131 356 122 q 468 161 436 140 q 520 215 500 182 q 546 293 540 247 q 547 310 547 301 q 540 360 547 332 q 508 415 533 389 q 435 459 483 442 q 308 476 388 476 q 200 468 261 476 q 81 442 139 460 q 89 500 85 469 q 98 567 93 531 q 108 643 103 603 q 119 730 114 683 q 133 828 125 776 q 147 939 140 881 l 632 939 l 632 800 l 269 800 l 242 597 q 275 601 258 600 q 308 603 292 603 z "},"6":{"ha":853,"x_min":74,"x_max":793,"o":"m 481 629 q 605 608 547 629 q 704 546 663 586 q 769 448 746 506 q 793 321 793 390 q 769 193 793 254 q 698 85 744 132 q 588 11 651 39 q 444 -17 524 -17 q 290 13 358 -17 q 173 96 221 42 q 99 226 125 150 q 74 392 74 301 q 120 633 74 526 q 249 814 167 740 q 432 922 331 888 q 639 956 533 956 q 686 954 663 956 l 688 831 q 665 831 676 831 q 531 816 600 831 q 399 764 461 801 q 292 667 336 726 q 236 524 249 608 l 239 524 q 283 565 258 546 q 337 599 307 585 q 403 621 367 613 q 481 629 439 629 m 444 122 q 524 135 488 122 q 588 173 561 149 q 631 232 615 197 q 647 310 647 267 q 631 402 647 364 q 586 465 615 440 q 517 501 557 490 q 432 513 478 513 q 337 489 385 513 q 258 426 289 465 q 238 390 246 408 q 229 347 229 371 q 242 262 229 303 q 281 190 254 221 q 347 141 307 160 q 444 122 388 122 z "},"7":{"ha":764,"x_min":63,"x_max":721,"o":"m 721 835 l 285 0 l 128 0 l 544 800 l 63 800 l 63 939 l 721 939 l 721 835 z "},"8":{"ha":833,"x_min":67,"x_max":772,"o":"m 575 500 q 719 410 665 469 q 772 264 772 351 q 745 148 772 200 q 671 59 718 96 q 558 2 624 22 q 415 -18 492 -18 q 267 3 332 -18 q 158 60 203 25 q 90 143 113 96 q 67 242 67 190 q 115 388 67 328 q 257 485 164 449 l 257 489 q 139 579 175 524 q 103 697 103 635 q 128 801 103 754 q 196 883 153 849 q 299 936 239 917 q 428 956 358 956 q 565 935 507 956 q 660 881 622 915 q 715 805 697 847 q 733 718 733 763 q 725 658 733 689 q 698 599 717 628 q 649 547 679 571 q 575 504 619 522 l 575 500 m 246 707 q 297 603 246 642 q 438 547 349 565 q 542 601 499 563 q 586 703 586 640 q 577 753 586 728 q 548 799 568 779 q 496 833 528 819 q 418 846 464 846 q 343 834 375 846 q 289 803 311 822 q 256 759 267 785 q 246 707 246 733 m 421 96 q 501 108 465 96 q 563 140 538 119 q 603 189 589 161 q 617 247 617 217 q 601 317 617 288 q 558 369 586 347 q 489 407 529 392 q 399 433 449 422 q 266 370 314 415 q 218 261 218 325 q 218 256 218 258 q 232 198 218 226 q 272 147 246 169 q 336 110 299 124 q 421 96 374 96 z "},"9":{"ha":850,"x_min":72,"x_max":788,"o":"m 424 956 q 576 926 508 956 q 690 843 643 897 q 762 714 736 789 q 788 547 788 639 q 742 305 788 413 q 615 123 696 197 q 431 15 533 49 q 225 -18 329 -18 q 176 -17 201 -18 l 176 108 q 214 107 196 107 q 338 122 272 107 q 465 174 403 136 q 569 273 526 213 q 626 417 613 333 l 622 417 q 522 342 582 369 q 381 314 461 314 q 258 335 314 314 q 160 397 201 357 q 95 494 118 438 q 72 618 72 550 q 98 747 72 686 q 169 854 124 807 q 281 928 215 901 q 424 956 346 956 m 426 429 q 531 454 481 429 q 610 521 581 479 q 625 551 618 533 q 632 588 632 568 q 620 675 632 633 q 583 749 608 717 q 517 799 557 781 q 421 817 476 817 q 341 803 378 817 q 277 765 304 790 q 234 706 250 740 q 218 628 218 671 q 234 539 218 576 q 278 477 250 501 q 344 441 306 453 q 426 429 382 429 z "},"µ":{"ha":694,"x_min":0,"x_max":0,"o":""},"\u0000":{"ha":0,"x_min":0,"x_max":0,"o":""},"\r":{"ha":222,"x_min":0,"x_max":0,"o":""}," ":{"ha":417,"x_min":0,"x_max":0,"o":""},"A":{"ha":951,"x_min":29,"x_max":928,"o":"m 578 974 l 928 0 l 779 0 l 675 290 l 282 290 l 178 0 l 29 0 l 379 974 l 578 974 m 332 431 l 626 431 l 478 836 l 332 431 z "},"B":{"ha":824,"x_min":63,"x_max":779,"o":"m 63 974 l 457 974 q 557 953 510 974 q 639 898 604 933 q 694 816 674 863 q 714 715 714 769 q 696 622 714 665 q 646 546 678 578 q 743 441 707 506 q 779 299 779 376 q 756 183 779 238 q 692 88 732 128 q 597 24 651 47 q 481 0 543 0 l 63 0 l 63 974 m 203 597 l 457 597 q 503 607 482 597 q 541 633 525 617 q 566 670 557 649 q 575 715 575 692 q 566 762 575 740 q 541 799 557 783 q 503 825 525 815 q 457 835 482 835 l 203 835 l 203 597 m 640 299 q 628 361 640 332 q 594 412 615 390 q 543 446 572 433 q 481 458 514 458 l 203 458 l 203 140 l 481 140 q 543 153 514 140 q 594 187 572 165 q 628 238 615 208 q 640 299 640 267 z "},"C":{"ha":943,"x_min":49,"x_max":890,"o":"m 890 136 q 733 25 824 65 q 539 -15 643 -15 q 348 24 438 -15 q 192 131 258 63 q 87 291 125 200 q 49 486 49 382 q 87 682 49 590 q 192 842 125 774 q 348 949 258 910 q 539 989 438 989 q 733 949 643 989 q 890 838 824 908 l 792 739 q 679 821 744 792 q 539 850 614 850 q 403 822 467 850 q 291 744 339 793 q 215 628 243 694 q 188 486 188 563 q 215 345 188 411 q 291 230 243 279 q 403 152 339 181 q 539 124 467 124 q 679 153 614 124 q 792 235 744 183 l 890 136 z "},"D":{"ha":982,"x_min":72,"x_max":928,"o":"m 442 974 q 631 935 542 974 q 785 831 719 897 q 890 676 851 765 q 928 488 928 588 q 890 298 928 386 q 785 143 851 210 q 631 38 719 76 q 442 0 542 0 l 72 0 l 72 974 l 442 974 m 213 835 l 213 140 l 442 140 q 577 167 514 140 q 687 242 640 194 q 760 352 733 289 q 788 488 788 415 q 760 623 788 560 q 687 733 733 686 q 577 808 640 781 q 442 835 514 835 l 213 835 z "},"E":{"ha":757,"x_min":76,"x_max":699,"o":"m 675 974 l 675 835 l 217 835 l 217 575 l 650 575 l 650 435 l 217 435 l 217 140 l 699 140 l 699 0 l 76 0 l 76 974 l 675 974 z "},"F":{"ha":728,"x_min":76,"x_max":675,"o":"m 217 435 l 217 0 l 76 0 l 76 974 l 675 974 l 675 835 l 217 835 l 217 575 l 650 575 l 650 435 l 217 435 z "},"G":{"ha":983,"x_min":49,"x_max":939,"o":"m 939 167 q 857 80 899 115 q 767 24 815 44 q 664 -6 719 3 q 540 -15 608 -15 q 349 24 439 -15 q 193 132 260 64 q 88 292 126 200 q 49 488 49 383 q 88 683 49 592 q 193 842 126 774 q 349 950 260 911 q 540 989 439 989 q 733 949 643 989 q 890 838 824 908 l 792 739 q 680 822 744 792 q 540 851 615 851 q 403 823 467 851 q 292 745 340 794 q 217 629 244 696 q 189 488 189 563 q 217 346 189 411 q 292 231 244 281 q 403 153 340 182 q 540 125 467 125 q 690 148 622 125 q 800 231 758 171 l 800 407 l 514 407 l 514 546 l 939 546 l 939 167 z "},"H":{"ha":947,"x_min":74,"x_max":872,"o":"m 214 0 l 74 0 l 74 974 l 214 974 l 214 576 l 733 576 l 733 974 l 872 974 l 872 0 l 733 0 l 733 436 l 214 436 l 214 0 z "},"I":{"ha":313,"x_min":86,"x_max":225,"o":"m 86 974 l 225 974 l 225 0 l 86 0 l 86 974 z "},"J":{"ha":410,"x_min":-81,"x_max":321,"o":"m 321 54 q 297 -66 321 -10 q 231 -163 272 -122 q 134 -228 190 -204 q 15 -253 78 -253 l -81 -253 l -81 -114 l 15 -114 q 81 -101 50 -114 q 133 -65 111 -87 q 169 -12 156 -42 q 182 54 182 18 l 182 974 l 321 974 l 321 54 z "},"K":{"ha":876,"x_min":75,"x_max":856,"o":"m 215 360 l 215 0 l 75 0 l 75 974 l 215 974 l 215 558 l 631 974 l 828 974 l 429 575 l 856 0 l 682 0 l 329 475 l 215 360 z "},"L":{"ha":746,"x_min":79,"x_max":693,"o":"m 79 0 l 79 974 l 219 974 l 219 140 l 693 140 l 693 0 l 79 0 z "},"M":{"ha":1150,"x_min":25,"x_max":1119,"o":"m 981 0 l 908 749 l 835 474 l 661 0 l 485 0 l 311 474 l 238 749 l 165 0 l 25 0 l 119 974 l 276 974 l 572 167 l 869 974 l 1026 974 l 1119 0 l 981 0 z "},"N":{"ha":989,"x_min":78,"x_max":908,"o":"m 260 972 l 769 189 l 769 969 l 908 969 l 908 -3 l 726 -3 l 218 779 l 218 0 l 78 0 l 78 972 l 260 972 z "},"O":{"ha":1079,"x_min":47,"x_max":1029,"o":"m 539 988 q 729 949 640 988 q 885 841 818 910 q 990 681 951 772 q 1029 486 1029 590 q 990 290 1029 382 q 885 131 951 199 q 729 23 818 63 q 538 -17 640 -17 q 347 23 436 -17 q 191 131 257 63 q 86 290 125 199 q 47 486 47 382 q 86 681 47 590 q 191 841 125 772 q 347 949 257 910 q 539 988 436 988 m 538 849 q 401 820 465 849 q 290 742 338 792 q 215 627 242 693 q 188 486 188 561 q 215 345 188 411 q 290 230 242 279 q 401 152 338 181 q 538 124 465 124 q 675 152 611 124 q 787 230 739 181 q 863 345 835 279 q 890 486 890 411 q 863 627 890 561 q 787 742 835 693 q 675 820 739 792 q 538 849 611 849 z "},"P":{"ha":782,"x_min":65,"x_max":751,"o":"m 442 974 q 562 949 506 974 q 660 883 618 925 q 727 784 703 840 q 751 664 751 728 q 726 538 751 594 q 653 440 701 481 q 534 376 606 399 q 371 353 463 353 q 276 358 317 353 q 206 369 236 363 l 206 0 l 65 0 l 65 974 l 442 974 m 371 493 q 460 501 417 493 q 537 529 503 510 q 591 581 571 549 q 611 664 611 614 q 598 730 611 699 q 562 784 585 761 q 508 821 539 807 q 442 835 476 835 l 206 835 l 206 513 q 267 500 226 507 q 371 493 307 493 z "},"Þ":{"ha":736,"x_min":51,"x_max":713,"o":"m 626 715 q 689 631 665 681 q 713 524 713 582 q 683 383 713 443 q 601 283 654 322 q 476 224 549 244 q 317 204 403 204 q 247 206 279 204 q 192 214 215 208 l 192 0 l 51 0 l 51 974 l 192 974 l 192 788 q 261 794 224 792 q 346 797 299 797 q 509 777 440 797 q 626 715 578 757 m 314 326 q 496 376 435 326 q 557 508 557 425 q 540 585 557 553 q 492 638 522 618 q 420 668 461 658 q 331 678 379 678 q 246 674 282 678 q 192 665 210 669 l 192 338 q 249 328 218 331 q 314 326 281 326 z "},"Q":{"ha":1079,"x_min":49,"x_max":1031,"o":"m 1031 485 q 999 307 1031 392 q 911 156 967 222 q 779 47 856 90 q 615 -11 703 3 l 615 -229 l 475 -229 l 475 -12 q 307 42 385 -1 q 172 153 229 86 q 82 305 115 219 q 49 485 49 390 q 88 681 49 589 q 193 840 126 772 q 349 948 260 908 q 540 988 438 988 q 731 948 642 988 q 887 840 821 908 q 992 681 953 772 q 1031 485 1031 589 m 540 122 q 676 151 613 122 q 788 228 740 179 q 864 344 836 278 q 892 485 892 410 q 864 626 892 560 q 788 742 836 693 q 676 820 740 792 q 540 849 613 849 q 403 820 467 849 q 291 742 339 792 q 216 626 243 693 q 189 485 189 560 q 216 344 189 410 q 291 228 243 278 q 403 151 339 179 q 540 122 467 122 z "},"R":{"ha":814,"x_min":82,"x_max":790,"o":"m 633 0 l 421 396 l 222 396 l 222 0 l 82 0 l 82 974 l 479 974 q 592 951 539 974 q 684 889 644 928 q 746 797 724 850 q 768 685 768 744 q 753 594 768 638 q 713 515 739 550 q 650 452 686 479 q 572 411 614 425 l 790 0 l 633 0 m 479 536 q 538 548 511 536 q 585 580 565 560 q 617 627 606 600 q 629 685 629 654 q 617 743 629 715 q 585 791 606 771 q 538 823 565 811 q 479 835 511 835 l 222 835 l 222 536 l 479 536 z "},"S":{"ha":758,"x_min":50,"x_max":728,"o":"m 414 554 q 526 513 472 536 q 622 454 581 489 q 688 372 664 419 q 711 258 711 325 q 711 251 711 256 q 682 136 710 186 q 608 52 654 86 q 503 1 563 18 q 381 -17 444 -17 q 235 0 315 -17 q 50 58 154 17 l 103 188 q 256 139 186 154 q 382 124 325 124 q 449 130 415 124 q 510 153 483 136 q 554 194 538 169 q 571 256 571 219 q 571 261 571 258 q 552 324 571 297 q 503 368 533 350 q 439 399 474 386 q 374 421 404 411 q 264 462 317 439 q 169 519 211 485 q 103 601 128 553 q 79 718 79 650 q 107 835 79 785 q 181 920 135 886 q 287 971 226 954 q 410 988 347 988 q 551 972 472 988 q 728 917 629 957 l 676 788 q 533 834 600 818 q 408 850 465 850 q 342 843 375 850 q 281 819 308 836 q 235 778 253 803 q 218 717 218 754 q 237 651 218 678 q 285 606 256 624 q 350 576 315 588 q 414 554 385 564 z "},"T":{"ha":899,"x_min":46,"x_max":856,"o":"m 46 974 l 856 974 l 856 835 l 519 835 l 519 0 l 381 0 l 381 835 l 46 835 l 46 974 z "},"U":{"ha":915,"x_min":51,"x_max":864,"o":"m 725 974 l 864 974 l 864 390 q 838 224 864 299 q 761 96 813 150 q 634 13 710 42 q 458 -17 558 -17 q 283 13 358 -17 q 156 96 207 42 q 78 224 104 150 q 51 390 51 299 l 51 974 l 192 974 l 192 390 q 208 274 192 324 q 258 190 225 224 q 342 140 292 157 q 458 124 392 124 q 575 140 525 124 q 658 190 625 157 q 708 274 692 224 q 725 390 725 324 l 725 974 z "},"V":{"ha":957,"x_min":22,"x_max":938,"o":"m 938 974 l 579 0 l 381 0 l 22 974 l 171 974 l 479 136 l 789 974 l 938 974 z "},"W":{"ha":1378,"x_min":25,"x_max":1356,"o":"m 1211 974 l 1356 974 l 1085 0 l 903 0 l 690 731 l 478 0 l 296 0 l 25 974 l 169 974 l 386 192 l 613 974 l 768 974 l 993 192 l 1211 974 z "},"X":{"ha":938,"x_min":22,"x_max":918,"o":"m 901 974 l 557 490 l 918 0 l 743 0 l 469 372 l 196 0 l 22 0 l 383 489 l 39 974 l 210 974 l 469 608 l 731 974 l 901 974 z "},"Y":{"ha":882,"x_min":26,"x_max":860,"o":"m 860 974 l 513 425 l 513 0 l 374 0 l 374 425 l 26 974 l 203 974 l 443 569 l 689 974 l 860 974 z "},"Z":{"ha":872,"x_min":35,"x_max":836,"o":"m 829 974 l 829 882 l 247 140 l 836 140 l 836 0 l 35 0 l 35 92 l 615 835 l 85 835 l 85 974 l 829 974 z "},"a":{"ha":850,"x_min":39,"x_max":783,"o":"m 643 704 l 783 704 l 783 0 l 643 0 l 643 88 q 535 11 597 39 q 399 -17 472 -17 q 259 13 325 -17 q 144 92 193 42 q 67 209 96 142 q 39 353 39 276 q 67 496 39 429 q 144 613 96 563 q 259 692 193 663 q 399 721 325 721 q 535 693 472 721 q 643 617 597 665 l 643 704 m 399 122 q 485 140 444 122 q 555 190 525 158 q 602 263 585 221 q 619 353 619 304 q 602 442 619 400 q 555 515 585 483 q 485 564 525 546 q 399 582 444 582 q 313 564 353 582 q 243 515 274 546 q 195 442 213 483 q 178 353 178 400 q 195 263 178 304 q 243 190 213 221 q 313 140 274 158 q 399 122 353 122 z "},"b":{"ha":853,"x_min":74,"x_max":818,"o":"m 458 721 q 598 692 532 721 q 713 613 664 663 q 790 496 761 563 q 818 353 818 429 q 790 209 818 276 q 713 92 761 142 q 598 13 664 42 q 458 -17 532 -17 q 322 11 385 -17 q 213 88 260 39 l 213 0 l 74 0 l 74 1035 l 213 1035 l 213 617 q 322 693 260 665 q 458 721 385 721 m 458 122 q 544 140 504 122 q 615 190 585 158 q 662 263 644 221 q 679 353 679 304 q 662 442 679 400 q 615 515 644 483 q 544 564 585 546 q 458 582 504 582 q 372 564 413 582 q 301 515 332 546 q 253 442 271 483 q 236 353 236 400 q 253 263 236 304 q 301 190 271 221 q 372 140 332 158 q 458 122 413 122 z "},"c":{"ha":688,"x_min":36,"x_max":654,"o":"m 654 94 q 538 13 604 43 q 397 -17 472 -17 q 256 13 322 -17 q 142 92 190 42 q 65 209 93 142 q 36 353 36 276 q 65 496 36 429 q 142 613 93 563 q 256 692 190 663 q 397 721 322 721 q 538 691 472 721 q 654 610 604 661 l 556 511 q 485 563 526 544 q 397 582 444 582 q 311 564 351 582 q 241 515 271 546 q 194 442 211 483 q 176 353 176 400 q 194 263 176 304 q 241 190 211 221 q 311 140 271 158 q 397 122 351 122 q 485 141 444 122 q 556 193 526 160 l 654 94 z "},"d":{"ha":861,"x_min":36,"x_max":781,"o":"m 642 1035 l 781 1035 l 781 0 l 642 0 l 642 88 q 532 11 594 39 q 396 -17 469 -17 q 256 13 322 -17 q 142 92 190 42 q 65 209 93 142 q 36 353 36 276 q 65 496 36 429 q 142 613 93 563 q 256 692 190 663 q 396 721 322 721 q 532 693 469 721 q 642 617 594 665 l 642 1035 m 396 122 q 483 140 442 122 q 553 190 524 158 q 601 263 583 221 q 618 353 618 304 q 601 442 618 400 q 553 515 583 483 q 483 564 524 546 q 396 582 442 582 q 310 564 350 582 q 241 515 271 546 q 194 442 211 483 q 176 353 176 400 q 194 263 176 304 q 241 190 211 221 q 310 140 271 158 q 396 122 350 122 z "},"ð":{"ha":839,"x_min":33,"x_max":789,"o":"m 524 875 q 640 766 589 826 q 728 635 692 706 q 773 508 757 575 q 789 368 789 442 q 756 198 789 271 q 671 78 724 125 q 550 7 618 31 q 408 -17 482 -17 q 260 10 328 -17 q 142 83 192 36 q 63 194 92 129 q 33 339 33 260 q 64 485 33 419 q 144 598 94 551 q 259 669 193 644 q 397 693 325 693 q 483 681 442 693 q 568 629 524 669 l 571 633 q 492 731 536 685 q 388 818 447 778 l 160 718 l 129 793 l 306 872 q 229 914 271 894 q 144 949 188 933 l 206 1046 q 328 995 267 1025 q 444 929 390 965 l 651 1022 l 688 947 l 524 875 m 407 97 q 496 114 456 97 q 565 164 536 131 q 610 244 594 197 q 626 353 626 292 q 613 463 626 422 q 571 531 600 503 q 507 575 546 557 q 414 593 468 593 q 315 569 356 593 q 247 509 274 546 q 208 428 221 472 q 196 340 196 383 q 213 242 196 286 q 258 165 229 197 q 325 115 286 133 q 407 97 364 97 z "},"e":{"ha":794,"x_min":39,"x_max":760,"o":"m 182 314 q 207 238 188 272 q 256 177 226 203 q 322 137 285 151 q 399 122 358 122 q 540 156 488 122 q 624 267 592 189 l 751 210 q 617 40 703 96 q 399 -17 532 -17 q 259 13 325 -17 q 144 92 193 42 q 67 209 96 142 q 39 353 39 276 q 67 496 39 429 q 144 613 96 563 q 259 692 193 663 q 399 721 325 721 q 540 692 474 721 q 654 613 606 663 q 731 496 703 563 q 760 353 760 429 q 759 333 760 343 q 758 314 758 324 l 182 314 m 610 414 q 580 481 600 450 q 533 533 560 511 q 472 569 506 556 q 399 582 438 582 q 326 569 361 582 q 265 533 292 556 q 217 481 238 511 q 189 414 197 450 l 610 414 z "},"f":{"ha":458,"x_min":13,"x_max":457,"o":"m 457 1051 l 457 913 l 382 913 q 330 902 354 913 q 288 874 306 892 q 260 832 271 856 q 250 781 250 808 l 250 703 l 378 703 l 378 564 l 250 564 l 250 0 l 111 0 l 111 564 l 13 564 l 13 703 l 111 703 l 111 781 q 132 886 111 838 q 190 972 153 935 q 276 1031 226 1010 q 382 1051 325 1051 l 457 1051 z "},"g":{"ha":863,"x_min":36,"x_max":785,"o":"m 646 703 l 785 703 l 785 32 q 783 -19 785 17 q 769 -99 781 -54 q 732 -191 757 -143 q 660 -278 707 -239 q 544 -342 614 -317 q 371 -368 474 -368 q 216 -349 288 -368 q 85 -299 144 -329 l 135 -168 q 248 -213 188 -197 q 371 -229 308 -229 q 485 -217 435 -229 q 572 -175 536 -204 q 626 -95 607 -146 q 646 35 646 -44 l 646 92 q 535 12 599 40 q 397 -17 471 -17 q 257 13 322 -17 q 142 92 192 42 q 65 208 93 142 q 36 351 36 275 q 65 495 36 428 q 142 613 93 563 q 257 692 192 663 q 397 721 322 721 q 535 692 471 721 q 646 613 599 664 l 646 703 m 397 122 q 483 140 443 122 q 552 190 522 158 q 599 263 582 221 q 617 351 617 304 q 599 442 617 400 q 552 515 582 483 q 483 564 522 546 q 397 582 443 582 q 311 564 351 582 q 240 515 271 546 q 192 442 210 483 q 175 351 175 400 q 192 263 175 304 q 240 190 210 221 q 311 140 271 158 q 397 122 351 122 z "},"h":{"ha":818,"x_min":78,"x_max":751,"o":"m 439 721 q 563 698 506 721 q 661 635 619 675 q 727 542 703 596 q 751 424 751 488 l 751 0 l 611 0 l 611 372 q 597 464 611 424 q 556 531 582 504 q 493 573 529 558 q 414 588 457 588 q 333 570 369 588 q 272 522 297 553 q 232 450 246 492 q 218 358 218 408 l 218 0 l 78 0 l 78 1033 l 218 1033 l 218 618 q 262 663 236 644 q 317 695 288 682 q 377 715 346 708 q 439 721 408 721 z "},"i":{"ha":336,"x_min":72,"x_max":265,"o":"m 169 983 q 237 955 208 983 q 265 888 265 926 q 237 819 265 847 q 169 792 208 792 q 100 819 128 792 q 72 888 72 847 q 100 955 72 926 q 169 983 128 983 m 99 701 l 239 701 l 239 0 l 99 0 l 99 701 z "},"j":{"ha":347,"x_min":-71,"x_max":301,"o":"m 206 793 q 138 821 165 793 q 110 889 110 849 q 138 957 110 929 q 206 985 165 985 q 274 957 246 985 q 301 889 301 929 q 274 821 301 849 q 206 793 246 793 m 138 703 l 276 703 l 276 -96 q 256 -201 276 -151 q 198 -287 235 -250 q 112 -345 161 -324 q 6 -367 63 -367 l -71 -367 l -71 -226 l 6 -226 q 58 -217 33 -226 q 99 -189 82 -207 q 127 -147 117 -171 q 138 -96 138 -124 l 138 703 z "},"k":{"ha":693,"x_min":72,"x_max":676,"o":"m 211 1033 l 211 447 l 463 703 l 656 703 l 388 426 l 676 0 l 508 0 l 289 324 l 211 244 l 211 0 l 72 0 l 72 1033 l 211 1033 z "},"l":{"ha":299,"x_min":79,"x_max":219,"o":"m 79 1033 l 219 1033 l 219 0 l 79 0 l 79 1033 z "},"m":{"ha":1360,"x_min":79,"x_max":1286,"o":"m 975 721 q 1098 698 1040 721 q 1197 634 1156 675 q 1263 538 1239 593 q 1286 419 1286 483 l 1286 0 l 1147 0 l 1147 372 q 1130 463 1147 424 q 1085 528 1113 501 q 1022 568 1057 554 q 950 582 986 582 q 872 565 907 582 q 809 520 836 549 q 767 451 782 492 q 753 360 753 410 l 753 0 l 613 0 l 613 372 q 596 463 613 424 q 551 528 579 501 q 488 568 524 554 q 415 582 453 582 q 338 565 374 582 q 275 519 301 549 q 234 449 249 489 q 219 358 219 408 l 219 0 l 79 0 l 79 703 l 219 703 l 219 618 q 263 663 238 644 q 318 695 289 682 q 378 715 347 708 q 440 721 410 721 q 525 710 485 721 q 600 681 565 700 q 663 636 635 663 q 711 576 690 610 q 760 640 731 613 q 824 684 789 667 q 898 711 860 701 q 975 721 936 721 z "},"n":{"ha":822,"x_min":76,"x_max":750,"o":"m 438 721 q 561 698 504 721 q 660 635 618 675 q 726 542 701 596 q 750 424 750 488 l 750 0 l 610 0 l 610 372 q 596 463 610 424 q 556 528 582 501 q 495 568 531 554 q 421 582 460 582 q 332 565 369 582 q 269 519 294 549 q 230 449 243 489 q 217 358 217 408 l 217 0 l 76 0 l 76 703 l 217 703 l 217 618 q 260 663 235 644 q 315 695 286 682 q 376 715 344 708 q 438 721 407 721 z "},"o":{"ha":788,"x_min":35,"x_max":756,"o":"m 394 721 q 535 692 469 721 q 650 613 601 663 q 727 495 699 563 q 756 351 756 428 q 727 208 756 275 q 650 92 699 142 q 535 13 601 42 q 396 -17 469 -17 q 255 13 321 -17 q 140 92 189 42 q 63 208 92 142 q 35 351 35 275 q 63 495 35 428 q 140 613 92 563 q 255 692 189 663 q 394 721 321 721 m 394 582 q 309 564 349 582 q 239 515 269 546 q 191 442 208 483 q 174 351 174 400 q 191 263 174 304 q 239 190 208 221 q 309 140 269 158 q 394 122 349 122 q 481 140 440 122 q 552 190 522 158 q 599 263 582 221 q 617 351 617 304 q 599 442 617 400 q 552 515 582 483 q 481 564 522 546 q 394 582 440 582 z "},"p":{"ha":861,"x_min":82,"x_max":826,"o":"m 467 721 q 606 692 540 721 q 721 613 672 663 q 798 495 769 563 q 826 351 826 428 q 798 208 826 275 q 721 92 769 142 q 606 13 672 42 q 467 -17 540 -17 q 331 11 393 -17 q 222 86 268 39 l 222 -331 l 82 -331 l 82 704 l 222 704 l 222 618 q 331 693 268 665 q 467 721 393 721 m 467 122 q 551 140 511 122 q 622 190 592 158 q 669 263 651 221 q 686 351 686 304 q 669 441 686 400 q 622 514 651 482 q 553 564 593 546 q 467 582 513 582 q 380 564 421 582 q 309 515 339 546 q 262 442 279 483 q 244 351 244 400 q 262 263 244 304 q 309 190 279 221 q 380 140 339 158 q 467 122 421 122 z "},"þ":{"ha":850,"x_min":85,"x_max":828,"o":"m 467 719 q 608 690 542 719 q 722 611 674 661 q 799 494 771 561 q 828 350 828 426 q 799 206 828 274 q 722 89 771 139 q 608 10 674 39 q 467 -19 542 -19 q 332 9 394 -19 q 224 85 269 38 l 224 -292 l 85 -292 l 85 1032 l 224 1032 l 224 615 q 332 691 269 663 q 467 719 394 719 m 467 121 q 553 139 513 121 q 624 188 594 157 q 672 261 654 219 q 689 350 689 303 q 672 439 689 397 q 624 512 654 481 q 553 561 594 543 q 467 579 513 579 q 381 561 421 579 q 312 512 342 543 q 265 439 282 481 q 247 350 247 397 q 265 261 247 303 q 312 188 282 219 q 381 139 342 157 q 467 121 421 121 z "},"q":{"ha":867,"x_min":38,"x_max":782,"o":"m 642 704 l 782 704 l 782 -331 l 642 -331 l 642 86 q 533 11 596 39 q 397 -17 471 -17 q 258 13 324 -17 q 143 92 192 42 q 66 208 94 142 q 38 351 38 275 q 66 495 38 428 q 143 613 94 563 q 258 692 192 663 q 397 721 324 721 q 533 693 471 721 q 642 618 596 665 l 642 704 m 397 122 q 484 140 443 122 q 555 190 525 158 q 602 263 585 221 q 619 351 619 304 q 602 442 619 400 q 555 515 585 483 q 484 564 525 546 q 397 582 443 582 q 312 564 351 582 q 242 515 272 546 q 194 442 211 483 q 176 351 176 400 q 194 263 176 304 q 242 190 211 221 q 312 140 272 158 q 397 122 351 122 z "},"r":{"ha":490,"x_min":88,"x_max":461,"o":"m 461 717 l 461 576 l 371 576 q 316 568 342 576 q 270 542 290 560 q 239 501 250 525 q 228 446 228 476 l 228 0 l 88 0 l 88 717 l 228 717 l 228 635 q 287 694 251 672 q 371 717 322 717 l 461 717 z "},"s":{"ha":592,"x_min":53,"x_max":538,"o":"m 533 229 q 536 193 536 211 q 519 113 536 156 q 460 35 503 69 q 394 0 436 17 q 290 -17 353 -17 q 185 -5 243 -17 q 53 39 126 7 l 106 168 q 207 134 163 144 q 269 123 251 124 q 290 122 288 122 q 340 128 319 122 q 374 144 361 135 q 392 170 389 157 q 396 193 396 183 q 394 208 396 200 q 363 249 392 232 q 276 285 333 267 q 215 306 249 293 q 149 340 181 319 q 92 394 117 361 q 61 472 68 426 q 58 510 58 492 q 75 590 58 547 q 135 667 92 632 q 187 699 154 683 q 252 717 219 714 q 304 721 285 721 q 395 713 340 721 q 538 669 450 704 l 486 539 q 351 581 385 581 q 315 582 317 582 q 222 558 251 582 q 201 534 207 547 q 196 507 196 521 q 197 494 196 501 q 231 453 201 471 q 318 418 260 436 q 379 397 344 410 q 445 362 414 383 q 501 308 476 340 q 533 229 525 276 z "},"ß":{"ha":821,"x_min":57,"x_max":788,"o":"m 507 579 q 526 567 513 575 q 555 550 539 560 q 585 531 571 540 q 610 514 600 521 q 689 453 656 483 q 744 390 722 422 q 776 322 765 357 q 788 247 788 288 q 766 139 788 188 q 706 57 744 90 q 616 6 668 24 q 503 -12 564 -12 q 376 6 432 -12 q 286 51 321 25 l 286 190 q 329 155 306 171 q 379 126 353 139 q 435 107 406 114 q 494 100 465 100 q 554 108 525 100 q 605 133 583 117 q 640 175 626 150 q 656 233 654 200 q 656 238 656 235 q 628 310 656 275 q 561 377 600 346 q 479 434 522 408 q 407 479 436 460 q 363 522 378 497 q 348 559 349 546 q 347 574 347 572 q 361 621 347 597 q 404 664 375 644 l 601 790 q 590 848 601 818 q 555 901 579 878 q 492 940 531 925 q 400 956 454 956 q 322 944 358 956 q 257 910 285 933 q 213 849 229 886 q 197 761 197 811 l 197 0 l 57 0 l 57 769 q 84 907 57 850 q 158 1000 111 964 q 269 1053 206 1036 q 403 1071 332 1071 q 554 1047 490 1071 q 660 984 618 1024 q 723 894 703 944 q 744 792 743 844 l 744 747 l 507 597 q 501 588 501 593 q 507 579 501 582 z "},"t":{"ha":468,"x_min":33,"x_max":426,"o":"m 261 228 q 269 175 261 194 q 292 147 278 156 q 329 138 307 139 q 378 136 351 136 l 426 136 l 426 0 l 356 0 q 260 8 303 0 q 187 37 218 17 q 138 92 156 57 q 121 176 121 126 l 121 576 l 33 576 l 33 717 l 121 717 l 121 883 l 261 922 l 261 717 l 375 717 l 375 576 l 261 576 l 261 228 z "},"u":{"ha":817,"x_min":64,"x_max":738,"o":"m 738 0 l 597 0 l 597 85 q 553 40 579 60 q 499 8 528 21 q 438 -11 469 -6 q 376 -17 407 -17 q 253 6 310 -17 q 154 69 196 29 q 88 163 113 108 q 64 281 64 217 l 64 703 l 204 703 l 204 318 q 220 223 204 263 q 262 158 236 183 q 322 122 288 133 q 393 110 356 110 q 480 128 442 110 q 544 178 518 146 q 584 253 571 210 q 597 344 597 296 l 597 703 l 738 703 l 738 0 z "},"v":{"ha":764,"x_min":14,"x_max":747,"o":"m 747 703 l 463 0 l 299 0 l 14 703 l 164 703 l 382 171 l 597 703 l 747 703 z "},"w":{"ha":1228,"x_min":17,"x_max":1213,"o":"m 1064 701 l 1213 701 l 968 0 l 796 0 l 615 499 l 435 0 l 260 0 l 17 701 l 164 701 l 349 172 l 539 701 l 690 701 l 882 172 l 1064 701 z "},"x":{"ha":776,"x_min":17,"x_max":761,"o":"m 753 701 l 482 368 l 761 0 l 583 0 l 389 261 l 196 0 l 17 0 l 296 368 l 25 701 l 211 701 l 389 474 l 568 701 l 753 701 z "},"y":{"ha":801,"x_min":17,"x_max":786,"o":"m 635 703 l 786 703 l 335 -367 l 183 -367 l 338 0 l 307 0 l 17 703 l 167 703 l 399 146 l 635 703 z "},"z":{"ha":721,"x_min":42,"x_max":675,"o":"m 674 703 l 674 621 l 246 140 l 675 140 l 675 0 l 42 0 l 42 82 l 471 563 l 50 563 l 50 703 l 674 703 z "},"ª":{"ha":558,"x_min":29,"x_max":511,"o":"m 421 974 l 511 974 l 511 519 l 421 519 l 421 575 q 349 526 389 544 q 263 508 308 508 q 172 527 214 508 q 97 578 129 546 q 47 654 65 611 q 29 747 29 697 q 47 840 29 796 q 97 915 65 883 q 172 966 129 947 q 263 985 214 985 q 349 967 308 985 q 421 918 389 949 l 421 974 m 263 599 q 317 610 292 599 q 363 642 343 622 q 393 688 382 661 q 404 747 404 715 q 393 805 404 778 q 363 851 382 832 q 317 883 343 871 q 263 894 292 894 q 207 883 233 894 q 161 851 181 871 q 131 805 142 832 q 119 747 119 778 q 131 688 119 715 q 161 642 142 661 q 207 610 181 622 q 263 599 233 599 z "},"º":{"ha":603,"x_min":47,"x_max":557,"o":"m 304 985 q 408 967 361 985 q 488 917 454 949 q 539 842 521 885 q 557 751 557 799 q 535 645 557 690 q 476 569 513 600 q 394 524 439 539 q 300 508 349 508 q 202 525 249 508 q 121 573 156 542 q 67 647 86 604 q 47 742 47 690 q 67 841 47 796 q 122 918 88 886 q 204 967 157 950 q 304 985 251 985 m 300 588 q 360 597 332 588 q 410 628 389 607 q 442 678 431 649 q 454 747 454 708 q 445 802 454 774 q 417 853 436 831 q 368 891 397 876 q 300 906 339 906 q 231 892 260 906 q 183 854 203 878 q 155 801 164 831 q 146 743 146 772 q 158 679 146 708 q 193 630 171 650 q 243 599 215 610 q 300 588 271 588 z "},"₀":{"ha":565,"x_min":61,"x_max":508,"o":"m 285 478 q 376 458 335 478 q 446 400 417 438 q 492 310 475 363 q 508 189 508 257 q 492 69 508 122 q 446 -22 475 15 q 376 -80 417 -60 q 285 -100 335 -100 q 194 -80 235 -100 q 123 -22 153 -60 q 77 69 93 15 q 61 189 61 122 q 77 310 61 257 q 123 400 93 363 q 194 458 153 438 q 285 478 235 478 m 425 189 q 419 255 425 219 q 398 322 414 290 q 355 374 382 353 q 285 394 328 394 q 215 374 243 394 q 172 322 188 353 q 150 255 157 290 q 143 189 143 219 q 150 124 143 160 q 172 56 157 88 q 215 4 188 25 q 285 -17 243 -17 q 355 4 328 -17 q 398 56 382 25 q 419 124 414 88 q 425 189 425 160 z "},"₁":{"ha":382,"x_min":47,"x_max":261,"o":"m 261 471 l 261 -90 l 169 -90 l 169 389 l 65 335 l 47 406 l 181 471 l 261 471 z "},"₂":{"ha":526,"x_min":46,"x_max":469,"o":"m 67 -7 q 159 63 110 24 q 252 143 208 101 q 328 226 296 185 q 369 299 361 267 q 371 315 371 307 q 369 335 371 324 q 356 360 367 347 q 319 388 342 378 q 269 397 297 397 q 204 386 233 397 q 153 363 175 375 q 120 339 132 350 q 108 326 108 328 l 46 382 q 64 399 47 385 q 110 432 81 414 q 179 465 139 450 q 269 479 219 479 q 356 461 317 479 q 421 410 396 443 q 448 357 443 382 q 453 315 453 332 q 449 276 453 296 q 415 204 440 242 q 356 130 390 167 q 279 58 321 93 q 194 -7 238 22 l 469 -7 l 469 -90 l 67 -90 l 67 -7 z "},"₃":{"ha":472,"x_min":36,"x_max":432,"o":"m 300 208 q 394 163 356 200 q 432 68 432 125 q 417 3 432 35 q 374 -51 403 -28 q 304 -87 346 -74 q 208 -100 263 -100 q 106 -87 151 -100 q 36 -58 60 -74 l 71 17 q 94 5 79 11 q 126 -6 108 -1 q 165 -14 143 -10 q 208 -18 186 -18 q 274 -10 247 -18 q 316 13 300 -1 q 339 44 332 26 q 346 79 346 61 q 331 125 346 107 q 292 154 315 143 q 240 169 268 165 q 186 174 213 174 l 132 174 l 132 243 l 186 243 q 233 248 208 243 q 279 263 258 253 q 315 289 300 272 q 329 326 329 306 q 301 376 329 356 q 218 397 274 397 q 147 385 181 397 q 92 360 113 374 l 57 431 q 131 463 85 449 q 232 478 178 478 q 310 467 276 478 q 367 436 344 456 q 401 392 390 417 q 413 342 413 367 q 385 263 413 297 q 300 210 357 228 l 300 208 z "},"₄":{"ha":531,"x_min":38,"x_max":492,"o":"m 407 476 l 407 144 l 492 144 l 492 61 l 407 61 l 407 -81 l 322 -81 l 322 61 l 38 61 l 38 121 l 297 476 l 407 476 m 133 144 l 322 144 l 322 403 l 133 144 z "},"₅":{"ha":461,"x_min":36,"x_max":424,"o":"m 176 393 l 160 275 q 180 277 171 276 q 200 278 189 278 q 292 266 250 278 q 365 231 335 254 q 409 175 394 208 q 424 101 424 142 q 424 94 424 99 q 403 22 421 56 q 357 -36 386 -11 q 288 -76 328 -61 q 200 -90 247 -90 q 113 -82 157 -90 q 36 -54 69 -74 l 72 24 q 121 3 88 14 q 200 -8 154 -8 q 251 -1 228 -8 q 292 19 274 6 q 324 51 311 32 q 340 94 336 69 q 342 108 342 101 q 338 135 342 119 q 319 166 335 150 q 276 192 304 182 q 200 201 247 201 q 155 199 178 201 q 113 194 132 197 q 81 189 93 192 q 65 185 68 186 q 69 219 67 201 q 75 258 72 238 q 81 303 78 279 q 88 354 83 326 q 95 412 92 382 q 104 476 99 442 l 392 476 l 392 393 l 176 393 z "},"₆":{"ha":521,"x_min":47,"x_max":474,"o":"m 288 294 q 362 281 328 294 q 421 244 396 268 q 460 187 446 221 q 474 110 474 153 q 459 35 474 71 q 417 -29 444 -1 q 352 -73 390 -57 q 267 -89 314 -89 q 175 -72 215 -89 q 106 -22 135 -54 q 63 54 78 10 q 47 153 47 99 q 75 298 47 235 q 149 403 103 361 q 240 458 189 438 q 354 485 290 479 q 386 488 372 488 q 410 486 400 488 l 411 414 q 383 413 399 414 q 350 411 368 413 q 267 389 303 406 q 205 348 231 372 q 164 294 179 324 q 143 232 149 264 l 144 232 q 203 276 168 258 q 288 294 239 294 m 267 -7 q 315 1 293 -7 q 352 23 336 8 q 378 58 368 38 q 388 104 388 79 q 351 197 388 169 q 260 225 315 225 q 193 206 224 225 q 147 158 163 188 q 142 144 143 151 q 140 128 140 136 q 147 77 140 101 q 169 34 154 53 q 209 4 185 15 q 267 -7 233 -7 z "},"₇":{"ha":454,"x_min":36,"x_max":426,"o":"m 426 415 l 168 -81 l 75 -81 l 322 393 l 36 393 l 36 476 l 426 476 l 426 415 z "},"₈":{"ha":492,"x_min":36,"x_max":456,"o":"m 36 64 q 65 151 36 115 q 150 207 94 188 l 150 211 q 80 265 101 232 q 58 335 58 297 q 73 397 58 368 q 113 445 88 425 q 174 476 139 465 q 250 488 208 488 q 331 475 297 488 q 388 443 365 463 q 421 399 410 424 q 432 347 432 374 q 411 276 432 311 q 339 219 390 242 l 339 217 q 424 165 392 200 q 456 78 456 129 q 439 9 456 40 q 394 -44 422 -22 q 328 -78 367 -67 q 243 -89 289 -89 q 156 -76 194 -89 q 90 -43 117 -64 q 50 6 64 -22 q 36 64 36 33 m 143 339 q 143 336 143 338 q 174 278 143 300 q 256 246 204 256 q 319 277 293 254 q 344 338 344 300 q 340 367 344 351 q 322 394 335 382 q 290 415 310 407 q 244 422 271 422 q 168 397 193 422 q 143 339 143 372 m 233 178 q 155 140 183 168 q 126 75 126 113 q 126 72 126 74 q 159 6 126 36 q 246 -24 192 -24 q 331 3 300 -24 q 363 67 363 31 q 328 140 363 115 q 233 178 294 165 z "},"₉":{"ha":497,"x_min":39,"x_max":463,"o":"m 246 488 q 337 470 297 488 q 404 421 376 453 q 447 344 432 389 q 463 244 463 300 q 442 117 463 175 q 381 16 421 60 q 286 -54 342 -28 q 161 -86 231 -81 q 133 -90 143 -89 q 117 -90 122 -90 q 100 -89 107 -90 l 100 -15 q 118 -17 108 -17 q 132 -16 122 -17 q 160 -12 142 -15 q 244 8 208 -8 q 306 49 281 25 q 347 104 332 74 q 367 168 361 135 l 364 168 q 304 123 340 139 q 221 107 268 107 q 148 120 182 107 q 90 157 114 133 q 52 214 65 181 q 39 288 39 247 q 53 364 39 328 q 96 428 68 400 q 162 472 124 456 q 246 488 200 488 m 363 240 q 368 253 365 246 q 371 269 371 261 q 363 320 371 296 q 341 364 356 344 q 302 394 326 383 q 244 404 278 404 q 197 397 219 404 q 159 375 175 390 q 133 340 143 360 q 124 293 124 319 q 159 203 124 232 q 249 175 194 175 q 317 194 288 175 q 363 240 347 213 z "},"⁰":{"ha":526,"x_min":40,"x_max":488,"o":"m 264 1051 q 355 1031 314 1051 q 426 974 396 1011 q 472 883 456 936 q 488 763 488 829 q 472 642 488 696 q 426 551 456 589 q 355 494 396 514 q 264 474 314 474 q 173 494 214 474 q 102 551 132 514 q 56 642 72 589 q 40 763 40 696 q 56 883 40 829 q 102 974 72 936 q 173 1031 132 1011 q 264 1051 214 1051 m 404 763 q 399 828 404 792 q 377 895 393 864 q 334 947 361 926 q 264 968 307 968 q 194 947 222 968 q 151 895 167 926 q 129 828 136 864 q 122 763 122 792 q 129 697 122 732 q 151 630 136 661 q 194 578 167 599 q 264 557 222 557 q 334 578 307 557 q 377 630 361 599 q 399 697 393 661 q 404 763 404 732 z "},"¹":{"ha":338,"x_min":42,"x_max":256,"o":"m 256 1049 l 256 488 l 164 488 l 164 967 l 60 913 l 42 983 l 174 1049 l 256 1049 z "},"²":{"ha":499,"x_min":39,"x_max":461,"o":"m 58 568 q 151 638 101 599 q 244 719 200 678 q 320 801 288 761 q 360 875 353 842 q 363 894 363 885 q 360 911 363 900 q 347 935 358 922 q 312 962 333 953 q 261 971 290 971 q 196 960 225 971 q 145 937 167 950 q 112 913 124 924 q 100 903 100 903 l 39 958 q 56 975 40 960 q 102 1008 72 990 q 172 1040 132 1025 q 261 1054 211 1054 q 349 1036 310 1054 q 414 985 388 1018 q 440 931 435 956 q 444 890 444 906 q 440 851 444 871 q 408 779 432 817 q 349 705 383 742 q 272 633 314 668 q 186 568 229 599 l 461 568 l 461 485 l 58 485 l 58 568 z "},"³":{"ha":474,"x_min":39,"x_max":435,"o":"m 303 785 q 397 739 358 776 q 435 646 435 701 q 420 581 435 611 q 377 527 406 550 q 306 490 349 504 q 211 476 264 476 q 108 490 154 476 q 39 519 63 504 l 72 593 q 96 582 82 588 q 128 572 110 576 q 167 564 146 567 q 210 561 188 561 q 276 569 250 561 q 318 590 303 576 q 341 621 333 603 q 349 657 349 639 q 333 701 349 683 q 294 731 318 719 q 243 746 271 742 q 189 750 215 750 l 135 750 l 135 819 l 189 819 q 235 824 210 819 q 281 840 260 829 q 317 866 303 850 q 332 904 332 882 q 303 953 332 932 q 221 975 275 975 q 149 963 182 975 q 94 938 115 951 l 58 1007 q 133 1040 86 1025 q 233 1054 181 1054 q 313 1043 279 1054 q 369 1013 347 1032 q 403 969 392 993 q 414 918 414 944 q 387 840 414 875 q 303 786 360 806 l 303 785 z "},"⁴":{"ha":526,"x_min":33,"x_max":488,"o":"m 403 1040 l 403 708 l 488 708 l 488 624 l 403 624 l 403 483 l 319 483 l 319 624 l 33 624 l 33 685 l 293 1040 l 403 1040 m 129 708 l 319 708 l 319 967 l 129 708 z "},"⁵":{"ha":453,"x_min":33,"x_max":421,"o":"m 174 957 l 157 839 q 177 841 167 840 q 197 842 188 842 q 290 830 249 842 q 362 795 332 818 q 406 739 392 772 q 421 665 421 706 q 421 658 421 663 q 402 586 419 619 q 355 528 385 553 q 285 488 325 503 q 197 474 244 474 q 111 483 154 474 q 33 511 68 492 l 69 588 q 118 567 85 578 q 197 556 151 556 q 248 563 224 556 q 291 583 272 569 q 322 615 310 596 q 338 658 333 633 q 339 672 339 665 q 335 699 339 683 q 317 730 332 714 q 273 756 301 746 q 197 765 244 765 q 152 763 175 765 q 110 758 129 761 q 78 753 92 756 q 63 749 65 750 q 67 783 64 765 q 72 822 69 801 q 77 867 74 843 q 85 918 81 890 q 92 976 89 946 q 101 1040 96 1006 l 388 1040 l 388 957 l 174 957 z "},"⁶":{"ha":501,"x_min":36,"x_max":464,"o":"m 278 857 q 351 844 317 857 q 410 807 385 831 q 449 749 435 783 q 464 672 464 715 q 449 598 464 633 q 406 535 433 563 q 342 490 379 507 q 257 474 304 474 q 165 491 206 474 q 96 540 124 508 q 52 617 68 572 q 36 717 36 661 q 65 861 36 797 q 138 965 93 925 q 228 1022 178 1001 q 343 1047 279 1042 q 375 1050 361 1050 q 400 1050 389 1050 l 401 976 q 382 978 392 978 q 368 977 378 978 q 340 974 358 976 q 256 951 293 968 q 194 911 219 935 q 153 857 168 888 q 133 794 138 826 l 135 794 q 193 839 157 821 q 278 857 229 857 m 256 557 q 304 564 282 557 q 342 586 326 571 q 367 622 358 601 q 376 667 376 642 q 340 760 376 732 q 249 789 304 789 q 182 769 213 789 q 138 721 151 750 q 131 707 133 715 q 129 690 129 699 q 136 640 129 664 q 159 597 143 615 q 199 567 175 578 q 256 557 222 557 z "},"⁷":{"ha":463,"x_min":49,"x_max":439,"o":"m 439 979 l 181 483 l 88 483 l 335 957 l 49 957 l 49 1040 l 439 1040 l 439 979 z "},"⁸":{"ha":497,"x_min":42,"x_max":460,"o":"m 42 628 q 70 715 42 679 q 154 771 99 750 l 154 775 q 84 828 106 796 q 63 897 63 860 q 77 960 63 932 q 117 1008 92 988 q 178 1039 143 1028 q 256 1050 214 1050 q 336 1038 301 1050 q 393 1007 371 1026 q 426 962 415 988 q 438 910 438 936 q 416 839 438 874 q 343 783 394 804 l 343 781 q 428 728 396 763 q 460 640 460 693 q 444 572 460 603 q 399 519 428 540 q 332 486 371 499 q 249 474 293 474 q 160 486 199 474 q 94 519 121 499 q 55 569 68 540 q 42 628 42 597 m 149 903 q 149 900 149 901 q 178 841 149 863 q 261 808 208 819 q 324 840 297 817 q 350 901 350 864 q 344 931 350 915 q 327 958 339 946 q 296 978 315 971 q 249 986 276 986 q 174 961 199 986 q 149 903 149 936 m 239 742 q 160 703 188 731 q 132 639 132 676 q 132 633 132 636 q 164 569 132 597 q 251 540 196 540 q 335 567 304 540 q 367 631 367 594 q 333 703 367 679 q 239 742 299 728 z "},"⁹":{"ha":503,"x_min":39,"x_max":463,"o":"m 247 1050 q 338 1033 297 1050 q 406 983 378 1015 q 448 906 433 951 q 463 808 463 861 q 442 679 463 738 q 382 578 421 621 q 288 509 343 535 q 164 476 232 483 q 128 474 143 475 q 100 474 113 474 l 100 549 q 118 547 108 547 q 133 548 122 547 q 161 550 143 549 q 246 572 210 556 q 307 612 282 588 q 347 667 332 636 q 368 731 361 697 l 365 731 q 306 686 342 703 q 222 669 269 669 q 149 683 182 669 q 91 719 115 696 q 53 776 67 743 q 39 850 39 810 q 54 926 39 890 q 97 990 69 963 q 162 1034 124 1018 q 247 1050 200 1050 m 364 803 q 369 815 367 808 q 371 832 371 822 q 364 883 371 858 q 342 927 357 908 q 303 957 326 946 q 246 968 279 968 q 199 960 221 968 q 160 937 176 951 q 135 901 144 922 q 125 856 125 881 q 160 766 125 794 q 250 738 196 738 q 319 756 289 738 q 364 803 350 775 z "},"⁄":{"ha":689,"x_min":18,"x_max":669,"o":"m 669 974 l 110 0 l 18 0 l 579 974 l 669 974 z "},"½":{"ha":1138,"x_min":40,"x_max":1090,"o":"m 828 974 l 268 0 l 176 0 l 738 974 l 828 974 m 254 965 l 254 403 l 161 403 l 161 883 l 57 829 l 40 900 l 172 965 l 254 965 m 1071 385 q 1036 313 1061 350 q 975 238 1011 275 q 895 165 939 200 q 806 100 851 131 l 1090 100 l 1090 17 l 688 17 l 688 103 q 780 171 731 132 q 874 251 829 210 q 950 334 918 293 q 992 407 982 375 q 993 421 993 414 q 990 442 993 431 q 978 468 988 454 q 942 494 964 485 q 890 504 919 504 q 825 494 854 504 q 774 470 796 483 q 741 446 753 457 q 729 435 729 435 l 668 492 q 685 508 669 493 q 731 541 701 524 q 801 573 761 558 q 890 588 842 588 q 978 569 939 588 q 1043 518 1018 551 q 1071 464 1065 489 q 1076 424 1076 439 q 1071 385 1076 404 z "},"⅓":{"ha":1149,"x_min":44,"x_max":1104,"o":"m 842 974 l 281 0 l 190 0 l 751 974 l 842 974 m 251 964 l 251 404 l 167 404 l 167 882 l 63 828 l 44 900 l 178 964 l 251 964 m 972 319 q 1067 272 1029 310 q 1104 179 1104 235 q 1090 114 1104 144 q 1047 60 1075 83 q 977 24 1018 38 q 881 11 936 11 q 778 25 824 11 q 708 53 732 39 l 735 132 q 759 119 743 125 q 794 107 775 113 q 836 98 814 101 q 881 94 858 94 q 946 103 919 94 q 988 124 972 111 q 1011 155 1004 138 q 1018 190 1018 172 q 1003 235 1018 217 q 965 264 988 253 q 913 280 942 275 q 860 285 885 285 l 804 285 l 804 353 l 858 353 q 906 358 881 353 q 952 373 931 363 q 988 399 974 383 q 1003 438 1003 415 q 974 488 1003 467 q 892 508 946 508 q 815 495 853 508 q 756 468 776 482 l 729 542 q 804 574 757 560 q 904 589 851 589 q 983 577 949 589 q 1040 547 1018 565 q 1074 503 1063 528 q 1085 453 1085 479 q 1057 374 1085 408 q 972 321 1029 339 l 972 319 z "},"⅔":{"ha":1350,"x_min":42,"x_max":1306,"o":"m 1040 974 l 479 0 l 389 0 l 950 974 l 1040 974 m 444 769 q 408 697 435 735 q 346 621 382 658 q 269 549 310 583 q 188 485 228 514 l 465 485 l 465 403 l 63 403 l 63 486 q 153 555 104 517 q 247 635 203 593 q 324 719 292 678 q 365 792 356 760 q 367 806 367 799 q 364 827 367 815 q 351 851 361 839 q 315 879 338 869 q 264 889 293 889 q 200 878 229 889 q 149 855 171 868 q 115 831 128 842 q 103 819 103 819 l 42 876 q 60 892 43 878 q 106 925 76 907 q 175 958 135 943 q 264 972 215 972 q 352 954 313 972 q 417 903 392 936 q 444 849 439 874 q 450 808 450 824 q 444 769 450 789 m 1175 319 q 1267 272 1229 310 q 1306 179 1306 235 q 1291 114 1306 144 q 1249 60 1276 83 q 1178 24 1221 38 q 1082 11 1136 11 q 980 25 1026 11 q 911 53 933 39 l 938 132 q 961 119 946 125 q 996 107 976 113 q 1038 98 1015 101 q 1082 94 1060 94 q 1147 103 1121 94 q 1190 124 1174 111 q 1213 155 1206 138 q 1219 190 1219 172 q 1204 235 1219 217 q 1166 264 1189 253 q 1115 280 1143 275 q 1060 285 1088 285 l 1006 285 l 1006 353 l 1061 353 q 1107 358 1082 353 q 1153 373 1132 363 q 1190 399 1175 383 q 1204 438 1204 415 q 1176 488 1204 467 q 1092 508 1147 508 q 1016 495 1054 508 q 957 468 978 482 l 931 542 q 1006 574 958 560 q 1104 589 1053 589 q 1185 577 1151 589 q 1240 547 1218 565 q 1274 503 1263 528 q 1285 453 1285 479 q 1258 374 1285 408 q 1175 321 1231 339 l 1175 319 z "},"¼":{"ha":1069,"x_min":42,"x_max":1024,"o":"m 817 974 l 256 0 l 164 0 l 725 974 l 817 974 m 256 965 l 256 403 l 163 403 l 163 883 l 58 829 l 42 900 l 174 965 l 256 965 m 938 583 l 938 251 l 1024 251 l 1024 167 l 938 167 l 938 17 l 853 17 l 853 167 l 568 167 l 568 226 l 828 583 l 938 583 m 663 251 l 853 251 l 853 510 l 663 251 z "},"¾":{"ha":1131,"x_min":28,"x_max":1085,"o":"m 199 479 q 265 488 239 479 q 307 509 292 496 q 330 540 322 522 q 338 575 338 557 q 322 621 338 603 q 283 650 307 639 q 232 665 260 661 q 178 669 204 669 l 124 669 l 124 739 l 178 739 q 224 744 199 739 q 270 759 249 749 q 306 785 292 769 q 321 824 321 800 q 292 873 321 851 q 210 894 264 894 q 133 881 171 894 q 75 854 96 867 l 47 926 q 122 959 75 944 q 222 974 169 974 q 302 962 268 974 q 358 931 336 950 q 392 888 381 913 q 403 836 403 864 q 375 758 403 793 q 292 706 347 724 l 292 704 q 385 658 347 696 q 424 565 424 621 q 409 499 424 531 q 366 446 394 468 q 296 410 338 424 q 200 396 254 396 q 97 409 143 396 q 28 439 50 422 l 54 515 q 78 505 63 511 q 113 493 93 499 q 154 483 132 488 q 199 479 176 479 m 326 0 l 236 0 l 796 974 l 888 974 l 326 0 m 1000 583 l 1000 251 l 1085 251 l 1085 167 l 1000 167 l 1000 17 l 915 17 l 915 167 l 629 167 l 629 226 l 890 583 l 1000 583 m 915 251 l 915 510 l 725 251 l 915 251 z "},"⅛":{"ha":1189,"x_min":46,"x_max":1142,"o":"m 839 974 l 279 0 l 188 0 l 749 974 l 839 974 m 251 965 l 251 404 l 167 404 l 167 883 l 63 829 l 46 900 l 178 965 l 251 965 m 1024 317 q 1110 265 1078 300 q 1142 178 1142 229 q 1126 110 1142 140 q 1081 57 1110 79 q 1014 23 1053 35 q 929 11 975 11 q 842 24 881 11 q 776 58 803 38 q 736 107 750 79 q 722 165 722 135 q 751 251 722 215 q 836 308 781 288 l 836 311 q 766 365 788 332 q 744 436 744 399 q 759 497 744 469 q 799 546 774 525 q 860 578 825 567 q 938 589 896 589 q 1017 576 983 589 q 1074 544 1051 564 q 1108 500 1097 525 q 1118 449 1118 475 q 1097 377 1118 413 q 1024 321 1076 342 l 1024 317 m 931 522 q 855 498 881 522 q 829 440 829 474 q 859 380 829 403 q 943 347 889 357 q 1005 378 979 356 q 1031 439 1031 401 q 1025 468 1031 453 q 1008 495 1019 483 q 977 515 996 507 q 931 522 958 522 m 932 78 q 1017 104 985 78 q 1049 168 1049 131 q 1014 240 1049 215 q 919 279 979 265 q 840 241 868 268 q 813 176 813 214 q 813 174 813 175 q 844 108 813 138 q 932 78 876 78 z "},"⅜":{"ha":1315,"x_min":49,"x_max":1269,"o":"m 967 974 l 407 0 l 315 0 l 876 974 l 967 974 m 313 704 q 406 658 368 696 q 443 565 443 621 q 429 499 443 531 q 387 446 415 468 q 316 410 358 424 q 219 396 274 396 q 117 409 164 396 q 49 439 71 422 l 75 515 q 99 505 83 511 q 133 493 114 499 q 175 483 153 488 q 219 479 197 479 q 285 488 258 479 q 327 509 311 496 q 350 540 343 522 q 357 575 357 557 q 342 621 357 603 q 303 650 326 639 q 253 665 281 661 q 197 669 225 669 l 143 669 l 143 739 l 199 739 q 244 744 219 739 q 291 759 269 749 q 327 785 313 769 q 342 824 342 800 q 313 873 342 851 q 229 894 285 894 q 153 881 192 894 q 96 854 115 867 l 68 926 q 143 959 96 944 q 242 974 190 974 q 322 962 289 974 q 378 931 356 950 q 412 888 401 913 q 422 836 422 864 q 395 758 422 793 q 313 706 368 724 l 313 704 m 1153 317 q 1238 265 1206 300 q 1269 178 1269 229 q 1253 109 1269 139 q 1209 57 1238 79 q 1142 23 1181 35 q 1058 11 1103 11 q 970 24 1008 11 q 905 58 932 38 q 865 107 878 79 q 851 165 851 135 q 881 251 851 215 q 964 308 910 288 l 964 311 q 894 365 915 332 q 872 436 872 399 q 887 497 872 469 q 927 546 901 525 q 988 578 953 567 q 1065 589 1024 589 q 1147 576 1113 589 q 1203 544 1181 564 q 1236 500 1225 525 q 1247 449 1247 475 q 1226 377 1247 413 q 1153 321 1204 342 l 1153 317 m 1060 522 q 983 498 1008 522 q 958 440 958 474 q 958 438 958 439 q 988 379 958 401 q 1071 347 1018 357 q 1133 378 1107 356 q 1160 439 1160 401 q 1154 468 1160 453 q 1137 495 1149 483 q 1106 515 1125 507 q 1060 522 1088 522 m 1061 78 q 1145 104 1114 78 q 1176 168 1176 131 q 1142 240 1176 215 q 1049 278 1108 265 q 969 241 997 268 q 942 176 942 214 q 942 171 942 174 q 974 107 942 136 q 1061 78 1006 78 z "},"⅝":{"ha":1310,"x_min":39,"x_max":1272,"o":"m 971 974 l 410 0 l 319 0 l 881 974 l 971 974 m 203 768 q 296 757 254 768 q 367 723 338 746 q 412 668 397 700 q 426 599 426 636 q 426 586 426 593 q 408 514 425 547 q 361 456 390 481 q 291 416 332 431 q 203 401 250 401 q 117 410 160 401 q 39 439 74 418 l 63 518 q 118 494 79 506 q 203 483 157 483 q 254 490 231 483 q 297 510 278 497 q 327 542 315 524 q 343 586 339 561 q 344 601 344 593 q 342 626 344 611 q 323 658 339 642 q 278 683 307 674 q 203 693 250 693 q 158 691 181 693 q 116 686 135 689 q 84 680 97 683 q 68 676 71 676 l 107 968 l 394 968 l 394 885 l 179 885 l 164 767 q 183 767 174 767 q 203 768 193 768 m 1156 317 q 1240 265 1208 300 q 1272 178 1272 229 q 1256 110 1272 140 q 1212 57 1240 79 q 1144 23 1183 35 q 1060 11 1106 11 q 972 24 1011 11 q 907 58 933 38 q 867 107 881 79 q 853 165 853 135 q 882 251 853 215 q 967 308 911 288 l 967 311 q 897 365 918 332 q 875 436 875 399 q 890 497 875 469 q 930 546 904 525 q 990 578 956 567 q 1067 589 1025 589 q 1149 576 1114 589 q 1205 544 1183 564 q 1238 500 1226 525 q 1249 449 1249 475 q 1228 377 1249 413 q 1156 321 1207 342 l 1156 317 m 1061 522 q 985 498 1010 522 q 960 440 960 474 q 960 438 960 439 q 990 379 960 401 q 1072 347 1021 357 q 1135 378 1110 356 q 1161 439 1161 401 q 1156 468 1161 453 q 1139 495 1151 483 q 1107 515 1126 507 q 1061 522 1088 522 m 1063 78 q 1148 104 1117 78 q 1179 168 1179 131 q 1144 240 1179 215 q 1050 279 1110 265 q 972 241 1000 268 q 943 176 943 214 q 943 174 943 175 q 975 108 943 138 q 1063 78 1007 78 z "},"⅞":{"ha":1282,"x_min":49,"x_max":1236,"o":"m 935 974 l 374 0 l 283 0 l 844 974 l 935 974 m 439 963 l 439 901 l 181 406 l 88 406 l 335 881 l 49 881 l 49 963 l 439 963 m 1119 317 q 1204 265 1172 300 q 1236 178 1236 229 q 1220 110 1236 140 q 1176 57 1204 79 q 1108 23 1147 35 q 1025 11 1069 11 q 936 24 975 11 q 871 58 897 38 q 831 107 844 79 q 818 165 818 135 q 847 251 818 215 q 931 308 876 288 l 931 311 q 860 365 882 332 q 839 436 839 399 q 853 497 839 469 q 894 546 868 525 q 955 578 919 567 q 1032 589 990 589 q 1113 576 1078 589 q 1169 544 1147 564 q 1203 500 1192 525 q 1214 449 1214 475 q 1192 377 1214 413 q 1119 321 1171 342 l 1119 317 m 1025 522 q 949 498 975 522 q 924 440 924 474 q 954 380 924 403 q 1038 347 985 357 q 1100 378 1074 356 q 1126 439 1126 401 q 1121 468 1126 453 q 1103 495 1115 483 q 1073 515 1092 507 q 1025 522 1054 522 m 1028 78 q 1112 104 1081 78 q 1143 168 1143 131 q 1109 240 1143 215 q 1015 279 1075 265 q 936 241 964 268 q 908 176 908 214 q 908 171 908 174 q 940 107 908 136 q 1028 78 972 78 z "},"*":{"ha":636,"x_min":47,"x_max":590,"o":"m 508 915 l 361 731 l 361 728 l 590 763 l 590 649 l 361 679 l 361 676 l 508 497 l 406 439 l 318 651 l 315 651 l 222 439 l 126 497 l 272 676 l 272 681 l 47 649 l 47 763 l 271 729 l 271 732 l 126 915 l 228 972 l 317 761 l 319 761 l 408 972 l 508 915 z "},"\\":{"ha":692,"x_min":32,"x_max":664,"o":"m 32 972 l 147 972 l 664 -76 l 550 -76 l 32 972 z "},"·":{"ha":339,"x_min":64,"x_max":271,"o":"m 64 486 q 93 561 64 532 q 167 590 122 590 q 242 561 214 590 q 271 486 269 532 q 242 412 271 442 q 167 382 214 382 q 92 412 121 382 q 64 486 64 442 z "},"•":{"ha":490,"x_min":79,"x_max":414,"o":"m 414 486 q 401 421 414 451 q 365 368 388 390 q 312 332 343 346 q 246 318 281 318 q 182 331 213 318 q 128 367 151 344 q 92 420 106 390 q 79 486 79 450 q 79 492 79 489 q 92 551 79 522 q 128 603 106 581 q 181 640 150 626 q 246 653 213 653 q 312 640 281 653 q 365 603 343 626 q 401 550 388 581 q 414 486 414 519 z "},":":{"ha":333,"x_min":64,"x_max":271,"o":"m 167 701 q 242 672 214 701 q 271 597 269 643 q 242 523 271 553 q 167 493 214 493 q 92 523 121 493 q 64 597 64 553 q 93 672 64 643 q 167 701 122 701 m 167 208 q 242 179 214 208 q 271 104 269 150 q 242 30 271 60 q 167 0 214 0 q 92 30 121 0 q 64 104 64 60 q 93 179 64 150 q 167 208 122 208 z "},",":{"ha":368,"x_min":47,"x_max":310,"o":"m 47 -174 q 75 -91 61 -137 q 101 4 89 -44 q 124 101 114 53 q 140 193 133 150 l 310 208 q 276 106 296 158 q 237 3 257 53 q 197 -90 217 -46 q 157 -164 176 -133 l 47 -174 z "},"…":{"ha":1174,"x_min":28,"x_max":1150,"o":"m 28 94 q 57 169 28 140 q 131 199 86 199 q 206 169 178 199 q 235 94 233 140 q 206 19 235 50 q 131 -11 178 -11 q 56 19 85 -11 q 28 94 28 50 m 486 94 q 515 169 486 140 q 589 199 543 199 q 663 169 635 199 q 692 94 692 140 q 663 19 692 50 q 589 -11 635 -11 q 515 19 543 -11 q 486 90 486 49 q 486 94 486 93 m 943 94 q 972 169 943 140 q 1047 199 1001 199 q 1121 169 1093 199 q 1150 94 1149 140 q 1122 19 1150 50 q 1047 -11 1093 -11 q 972 19 1000 -11 q 943 94 943 50 z "},"!":{"ha":343,"x_min":79,"x_max":267,"o":"m 246 974 l 232 260 l 115 260 l 100 974 l 246 974 m 174 171 q 240 144 213 171 q 267 78 267 117 q 240 10 267 38 q 174 -17 213 -17 q 106 10 133 -17 q 79 78 79 38 q 106 144 79 117 q 174 171 133 171 z "},"¡":{"ha":346,"x_min":79,"x_max":267,"o":"m 174 803 q 106 830 133 803 q 79 897 79 857 q 106 963 79 936 q 174 990 133 990 q 240 963 213 990 q 267 897 267 936 q 240 830 267 857 q 174 803 213 803 m 247 0 l 101 0 l 115 714 l 232 714 l 247 0 z "},"#":{"ha":736,"x_min":33,"x_max":704,"o":"m 617 939 l 581 674 l 704 674 l 704 569 l 564 569 l 538 378 l 668 378 l 668 274 l 521 274 l 483 0 l 381 0 l 419 274 l 263 274 l 225 0 l 122 0 l 160 274 l 33 274 l 33 378 l 178 378 l 203 569 l 72 569 l 72 674 l 218 674 l 256 939 l 357 939 l 319 674 l 478 674 l 515 939 l 617 939 m 279 378 l 436 378 l 461 569 l 306 569 l 279 378 z "},".":{"ha":328,"x_min":64,"x_max":271,"o":"m 64 94 q 93 171 64 142 q 167 200 122 200 q 242 171 214 200 q 271 94 269 142 q 242 21 271 51 q 167 -10 214 -10 q 92 21 121 -10 q 64 94 64 51 z "},"?":{"ha":632,"x_min":33,"x_max":594,"o":"m 310 857 q 243 846 271 857 q 199 817 215 835 q 175 776 182 799 q 168 733 168 754 q 169 718 168 726 l 35 718 q 33 742 33 729 q 49 831 33 786 q 99 910 64 875 q 187 967 133 946 q 310 988 240 988 q 442 967 386 988 q 533 911 497 947 q 581 832 568 875 q 594 744 594 789 q 593 718 594 732 q 568 630 588 665 q 522 565 549 594 q 466 510 496 536 q 412 450 436 483 q 371 370 388 417 q 354 257 354 324 l 222 257 q 238 388 222 333 q 276 481 253 442 q 328 547 299 519 q 383 599 357 574 q 428 653 408 625 q 453 721 447 682 q 456 749 456 736 q 450 785 456 765 q 426 822 444 804 q 378 848 408 839 q 310 857 349 857 m 296 -21 q 231 6 258 -21 q 203 74 203 33 q 231 140 203 113 q 296 167 258 167 q 363 140 335 167 q 390 74 390 113 q 363 6 390 33 q 296 -21 335 -21 z "},"¿":{"ha":611,"x_min":28,"x_max":588,"o":"m 325 986 q 391 959 364 986 q 418 893 418 932 q 391 826 418 853 q 325 799 364 799 q 259 826 286 799 q 232 893 232 853 q 259 959 232 932 q 325 986 286 986 m 313 110 q 378 120 350 110 q 423 149 406 131 q 447 191 440 168 q 453 238 453 214 q 453 247 453 243 l 586 247 q 588 224 588 236 q 572 135 588 179 q 522 55 557 90 q 435 -1 488 19 q 313 -22 382 -22 q 179 -2 235 -22 q 89 54 124 18 q 41 134 54 90 q 28 222 28 178 q 29 247 28 235 q 53 336 33 300 q 99 401 72 372 q 155 456 125 429 q 210 515 185 482 q 251 595 235 549 q 268 708 268 642 l 399 708 q 399 696 399 701 q 384 576 399 628 q 346 485 369 524 q 294 419 322 447 q 240 366 265 392 q 194 312 214 340 q 168 244 174 283 q 165 217 165 231 q 171 181 165 201 q 195 144 176 161 q 243 119 214 128 q 313 110 272 110 z "},"\"":{"ha":582,"x_min":101,"x_max":486,"o":"m 247 974 l 224 613 l 125 613 l 101 974 l 247 974 m 486 974 l 463 613 l 364 613 l 340 974 l 486 974 z "},"'":{"ha":324,"x_min":88,"x_max":233,"o":"m 233 974 l 210 613 l 111 613 l 88 974 l 233 974 z "},";":{"ha":346,"x_min":33,"x_max":306,"o":"m 201 493 q 127 523 156 493 q 99 597 99 553 q 127 672 99 642 q 203 701 156 701 q 276 672 249 701 q 306 597 304 642 q 277 523 306 553 q 201 493 249 493 m 294 224 q 261 121 279 174 q 223 18 243 68 q 182 -75 203 -32 q 143 -149 161 -118 l 33 -160 q 60 -76 46 -122 q 85 19 74 -31 q 108 117 97 68 q 125 208 119 165 l 294 224 z "},"/":{"ha":690,"x_min":29,"x_max":663,"o":"m 663 972 l 143 -76 l 29 -76 l 546 972 l 663 972 z "},"_":{"ha":636,"x_min":0,"x_max":633,"o":"m 0 -62 l 633 -62 l 633 -165 l 0 -165 l 0 -62 z "},"{":{"ha":453,"x_min":35,"x_max":401,"o":"m 156 338 q 152 373 156 354 q 136 408 149 392 q 99 434 124 424 q 35 446 75 444 l 35 529 q 44 529 39 529 q 101 539 78 529 q 136 564 124 549 q 152 599 149 579 q 156 638 156 618 q 151 695 156 665 q 144 754 147 725 q 136 814 139 785 q 133 871 133 843 q 194 1017 133 972 q 353 1063 254 1063 l 401 1063 l 401 969 l 374 969 q 283 938 308 969 q 258 847 258 906 q 262 801 258 824 q 268 753 265 778 q 276 700 274 726 q 279 644 279 674 q 279 639 279 642 q 250 537 279 572 q 168 489 221 501 l 168 486 q 250 438 221 474 q 279 336 279 401 q 279 331 279 333 q 276 273 279 300 q 268 222 274 246 q 262 172 265 196 q 258 126 258 149 q 285 33 258 65 q 374 1 313 1 l 401 1 l 401 -90 l 353 -90 q 264 -80 304 -90 q 194 -45 224 -69 q 149 17 165 -21 q 133 110 133 56 q 136 167 133 138 q 144 224 139 196 q 151 281 147 253 q 156 338 156 310 z "},"}":{"ha":457,"x_min":58,"x_max":425,"o":"m 326 110 q 311 17 326 56 q 266 -44 296 -21 q 196 -79 236 -68 q 107 -90 156 -90 l 58 -90 l 58 1 l 86 1 q 174 33 147 1 q 201 128 201 65 q 198 174 201 150 q 192 222 194 197 q 183 274 186 247 q 181 331 181 300 q 181 336 181 333 q 210 438 181 401 q 292 486 239 475 l 292 489 q 210 537 239 501 q 181 639 181 572 q 181 644 181 642 q 183 701 181 674 q 192 753 186 728 q 198 801 194 778 q 201 847 201 825 q 176 938 201 907 q 86 969 151 969 l 58 969 l 58 1063 l 107 1063 q 266 1018 206 1063 q 326 872 326 974 q 324 814 326 843 q 315 756 321 785 q 308 695 313 725 q 304 638 304 665 q 308 599 304 618 q 324 564 313 579 q 360 539 336 549 q 425 529 385 529 l 425 446 q 360 434 385 444 q 324 408 336 424 q 308 373 313 392 q 304 338 304 354 q 308 281 304 310 q 315 224 313 253 q 324 167 321 196 q 326 110 326 138 z "},"[":{"ha":428,"x_min":60,"x_max":354,"o":"m 178 969 l 178 3 l 354 3 l 354 -90 l 60 -90 l 60 1063 l 354 1063 l 354 969 l 178 969 z "},"]":{"ha":426,"x_min":72,"x_max":367,"o":"m 72 969 l 72 1063 l 367 1063 l 367 -90 l 72 -90 l 72 3 l 249 3 l 249 969 l 72 969 z "},"(":{"ha":399,"x_min":39,"x_max":347,"o":"m 347 1081 q 274 963 307 1026 q 218 826 242 900 q 181 667 194 753 q 168 483 168 582 q 181 303 168 386 q 219 147 194 219 q 276 11 243 74 q 347 -107 310 -51 l 229 -107 q 160 -3 194 -61 q 99 128 126 56 q 56 290 72 200 q 39 485 39 379 q 56 681 39 592 q 99 843 72 769 q 160 975 126 917 q 229 1081 194 1033 l 347 1081 z "},")":{"ha":400,"x_min":53,"x_max":361,"o":"m 53 -107 q 123 11 90 -51 q 180 147 156 74 q 218 303 204 219 q 232 486 232 388 q 219 669 232 583 q 181 827 206 754 q 124 963 157 900 q 53 1081 92 1026 l 169 1081 q 238 975 204 1033 q 299 844 272 917 q 344 681 326 771 q 361 485 361 592 q 344 290 361 379 q 299 128 326 201 q 238 -3 272 56 q 169 -107 204 -61 l 53 -107 z "},"—":{"ha":1357,"x_min":0,"x_max":1357,"o":"m 0 538 l 1357 538 l 1357 436 l 0 436 l 0 538 z "},"–":{"ha":417,"x_min":33,"x_max":379,"o":"m 33 542 l 379 542 l 379 432 l 33 432 l 33 542 z "},"-":{"ha":449,"x_min":35,"x_max":414,"o":"m 35 542 l 414 542 l 414 432 l 35 432 l 35 542 z "},"­":{"ha":418,"x_min":35,"x_max":381,"o":"m 381 456 l 35 456 l 35 518 l 381 518 l 381 456 z "},"«":{"ha":649,"x_min":24,"x_max":600,"o":"m 340 749 l 140 475 l 340 204 l 221 204 l 24 475 l 219 749 l 340 749 m 600 749 l 400 475 l 600 204 l 481 204 l 283 475 l 479 749 l 600 749 z "},"»":{"ha":644,"x_min":46,"x_max":621,"o":"m 422 749 l 621 475 l 422 204 l 304 204 l 504 475 l 303 749 l 422 749 m 165 749 l 363 475 l 165 204 l 46 204 l 246 475 l 46 749 l 165 749 z "},"‹":{"ha":393,"x_min":29,"x_max":346,"o":"m 346 749 l 146 476 l 346 204 l 226 204 l 29 476 l 225 749 l 346 749 z "},"›":{"ha":393,"x_min":44,"x_max":363,"o":"m 164 749 l 363 476 l 164 204 l 46 204 l 246 476 l 44 749 l 164 749 z "},"„":{"ha":539,"x_min":24,"x_max":514,"o":"m 514 154 q 482 55 500 107 q 444 -45 464 3 q 403 -135 424 -93 q 367 -207 383 -176 l 265 -215 q 292 -135 279 -179 q 317 -44 304 -92 q 339 51 329 4 q 356 140 349 99 l 514 154 m 271 154 q 239 55 257 107 q 201 -45 221 3 q 162 -135 182 -93 q 124 -207 142 -176 l 24 -215 q 49 -135 36 -179 q 75 -44 63 -92 q 97 51 88 4 q 114 140 107 99 l 271 154 z "},"“":{"ha":547,"x_min":29,"x_max":519,"o":"m 272 663 q 304 761 286 710 q 342 860 322 813 q 381 951 361 908 q 418 1022 401 993 l 519 1032 q 492 951 506 996 q 467 860 479 907 q 446 765 456 813 q 431 676 436 718 l 272 663 m 29 663 q 62 761 43 710 q 100 860 81 813 q 140 951 119 908 q 176 1022 160 993 l 278 1032 q 251 951 264 996 q 226 860 238 907 q 204 765 214 813 q 188 676 194 718 l 29 663 z "},"”":{"ha":547,"x_min":29,"x_max":519,"o":"m 519 974 q 487 874 506 926 q 449 774 468 822 q 409 685 429 726 q 371 613 389 643 l 271 604 q 297 685 285 640 q 322 776 310 729 q 344 871 335 824 q 360 960 354 918 l 519 974 m 276 974 q 244 874 263 926 q 207 774 226 822 q 167 685 188 726 q 129 613 147 643 l 29 604 q 55 685 42 640 q 80 776 68 729 q 101 871 92 824 q 118 960 111 918 l 276 974 z "},"‘":{"ha":297,"x_min":35,"x_max":282,"o":"m 282 1032 q 256 951 269 996 q 231 860 243 907 q 209 765 219 813 q 193 675 199 717 l 35 663 q 67 761 49 710 q 104 860 85 813 q 144 951 124 908 q 182 1022 164 993 l 282 1032 z "},"’":{"ha":296,"x_min":18,"x_max":265,"o":"m 18 601 q 44 682 31 638 q 69 774 57 726 q 92 868 82 821 q 107 957 101 915 l 265 971 q 233 872 251 924 q 196 772 215 821 q 156 682 176 724 q 118 611 136 640 l 18 601 z "},"‚":{"ha":294,"x_min":24,"x_max":271,"o":"m 24 -210 q 49 -131 36 -175 q 74 -38 63 -86 q 97 58 86 10 q 113 147 107 106 l 271 161 q 239 61 257 113 q 201 -39 221 10 q 162 -129 182 -87 q 124 -200 142 -171 l 24 -210 z "}," ":{"ha":222,"x_min":0,"x_max":0,"o":""},"¢":{"ha":693,"x_min":38,"x_max":656,"o":"m 399 581 q 313 563 353 581 q 242 513 272 544 q 195 440 213 482 q 178 351 178 399 q 195 262 178 303 q 242 190 213 221 q 313 140 272 158 q 399 122 353 122 q 487 141 446 122 q 557 192 528 160 l 656 93 q 560 22 614 50 q 444 -15 507 -6 l 444 -156 l 336 -156 l 336 -12 q 217 33 272 0 q 123 113 163 65 q 60 222 83 161 q 38 351 38 283 q 60 481 38 419 q 123 590 83 542 q 217 670 163 638 q 336 714 272 703 l 336 858 l 444 858 l 444 717 q 560 681 507 708 q 656 608 614 653 l 557 510 q 487 562 528 543 q 399 581 446 581 z "},"¤":{"ha":736,"x_min":28,"x_max":708,"o":"m 708 215 l 632 139 l 539 232 q 459 191 503 206 q 368 176 415 176 q 276 191 319 176 q 197 232 233 206 l 104 139 l 28 215 l 122 310 q 84 389 97 346 q 71 479 71 432 q 84 569 71 526 q 122 649 97 613 l 28 743 l 104 819 l 197 728 q 276 767 233 753 q 368 782 319 782 q 459 767 415 782 q 539 728 503 753 l 632 819 l 708 743 l 614 649 q 652 569 639 613 q 665 479 665 526 q 652 389 665 432 q 614 310 639 346 l 708 215 m 368 285 q 441 300 407 285 q 501 342 475 315 q 542 403 526 368 q 557 479 557 439 q 542 555 557 519 q 501 617 526 590 q 441 658 475 643 q 368 674 407 674 q 294 658 328 674 q 234 617 260 643 q 193 555 208 590 q 178 479 178 519 q 193 403 178 439 q 234 342 208 368 q 294 300 260 315 q 368 285 328 285 z "},"$":{"ha":679,"x_min":44,"x_max":632,"o":"m 301 1026 l 410 1026 l 410 879 q 512 861 457 874 q 632 825 567 849 l 583 694 q 443 734 496 726 q 357 742 390 742 q 315 739 342 742 q 263 724 288 736 q 229 704 239 713 q 199 663 204 683 q 193 626 193 642 q 194 610 193 618 q 240 546 200 571 q 363 494 281 521 q 440 467 397 483 q 521 426 482 451 q 589 361 560 400 q 626 267 618 322 q 631 224 631 244 q 611 131 631 181 q 540 39 592 81 q 485 6 518 22 q 406 -18 453 -11 l 406 -169 l 297 -169 l 297 -25 q 183 -7 244 -22 q 44 38 121 8 l 96 167 q 238 123 183 132 q 329 114 293 114 q 367 116 340 114 q 419 129 394 118 q 453 147 443 140 q 485 192 479 169 q 490 229 490 214 q 489 246 490 238 q 443 310 483 285 q 321 361 403 335 q 244 388 286 371 q 163 430 201 404 q 95 494 125 456 q 57 588 65 532 q 54 628 54 608 q 72 722 54 672 q 140 813 90 771 q 203 851 164 832 q 301 876 242 869 l 301 1026 z "},"€":{"ha":838,"x_min":40,"x_max":771,"o":"m 544 124 q 625 134 586 124 q 700 165 664 144 l 771 47 q 664 1 721 17 q 544 -15 607 -15 q 401 8 469 -15 q 278 74 333 32 q 181 174 222 117 q 121 301 140 232 l 40 301 l 40 385 l 104 385 q 102 406 103 396 q 101 428 101 417 q 102 450 101 439 q 104 471 103 461 l 40 471 l 40 554 l 121 554 q 181 681 140 624 q 278 781 222 739 q 401 847 333 824 q 544 871 469 871 q 664 855 607 871 q 771 808 721 839 l 700 690 q 626 722 665 711 q 544 732 588 732 q 459 719 501 732 q 380 684 417 707 q 315 628 343 661 q 268 554 286 594 l 561 554 l 561 471 l 243 471 q 241 450 242 461 q 240 428 240 439 q 241 406 240 417 q 243 385 242 396 l 561 385 l 561 301 l 269 301 q 315 228 286 261 q 380 172 343 194 q 459 136 417 149 q 544 124 501 124 z "},"£":{"ha":733,"x_min":35,"x_max":699,"o":"m 699 129 l 699 0 l 35 0 l 35 83 q 104 128 72 103 q 160 185 136 154 q 197 251 183 215 q 210 326 210 286 q 208 366 210 347 q 203 411 207 385 l 46 411 l 46 522 l 185 522 q 176 589 179 553 q 172 663 172 625 q 194 783 172 729 q 258 875 217 836 q 355 935 299 914 q 479 956 411 956 q 585 944 542 956 q 656 918 629 932 l 625 800 q 567 822 601 813 q 482 832 532 832 q 406 818 438 832 q 355 781 375 804 q 326 724 335 757 q 318 654 318 692 q 322 583 318 615 q 332 522 325 551 l 556 522 l 556 411 l 346 411 q 347 340 347 375 q 338 272 347 306 q 302 193 326 226 q 246 132 278 160 l 246 129 l 699 129 z "},"¥":{"ha":860,"x_min":25,"x_max":838,"o":"m 838 939 l 510 415 l 718 415 l 718 335 l 501 335 l 501 233 l 718 233 l 718 153 l 501 153 l 501 0 l 361 0 l 361 153 l 144 153 l 144 233 l 361 233 l 361 335 l 144 335 l 144 415 l 351 415 l 25 939 l 201 939 l 431 546 l 667 939 l 838 939 z "},"+":{"ha":851,"x_min":38,"x_max":808,"o":"m 478 871 l 478 540 l 808 540 l 808 436 l 478 436 l 478 100 l 369 100 l 369 436 l 38 436 l 38 540 l 369 540 l 369 871 l 478 871 z "},"−":{"ha":708,"x_min":38,"x_max":671,"o":"m 38 538 l 671 538 l 671 436 l 38 436 l 38 538 z "},"×":{"ha":697,"x_min":40,"x_max":660,"o":"m 660 721 l 426 486 l 653 260 l 581 186 l 353 413 l 117 178 l 40 254 l 275 490 l 49 718 l 122 790 l 349 563 l 583 797 l 660 721 z "},"÷":{"ha":686,"x_min":28,"x_max":661,"o":"m 346 815 q 418 786 390 815 q 446 713 446 757 q 418 639 446 668 q 344 610 390 610 q 272 639 300 610 q 243 713 243 668 q 272 786 243 757 q 346 815 300 815 m 28 435 l 28 536 l 661 536 l 661 435 l 28 435 m 346 361 q 418 333 390 361 q 446 258 446 304 q 418 186 446 215 q 344 157 390 157 q 272 186 300 157 q 243 258 243 215 q 272 333 243 304 q 346 361 300 361 z "},"=":{"ha":850,"x_min":51,"x_max":796,"o":"m 51 696 l 796 696 l 796 594 l 51 594 l 51 696 m 51 404 l 796 404 l 796 301 l 51 301 l 51 404 z "},"≠":{"ha":931,"x_min":40,"x_max":893,"o":"m 893 844 l 733 685 l 839 685 l 839 582 l 632 582 l 442 392 l 839 392 l 839 290 l 340 290 l 113 60 l 40 132 l 197 290 l 94 290 l 94 392 l 299 392 l 489 582 l 94 582 l 94 685 l 589 685 l 821 917 l 893 844 z "},">":{"ha":796,"x_min":64,"x_max":740,"o":"m 740 533 l 740 438 l 64 101 l 64 217 l 621 483 l 621 488 l 64 754 l 64 869 l 740 533 z "},"<":{"ha":794,"x_min":56,"x_max":732,"o":"m 732 757 l 176 490 l 176 486 l 732 219 l 732 104 l 56 440 l 56 536 l 732 872 l 732 757 z "},"≥":{"ha":778,"x_min":64,"x_max":740,"o":"m 740 578 l 740 482 l 64 144 l 64 261 l 619 528 l 619 531 l 64 799 l 64 913 l 740 578 m 64 103 l 740 103 l 740 0 l 64 0 l 64 103 z "},"≤":{"ha":772,"x_min":39,"x_max":715,"o":"m 715 799 l 157 531 l 157 528 l 715 261 l 715 144 l 39 482 l 39 578 l 715 913 l 715 799 m 39 103 l 715 103 l 715 0 l 39 0 l 39 103 z "},"±":{"ha":844,"x_min":46,"x_max":797,"o":"m 476 897 l 476 565 l 797 565 l 797 461 l 476 461 l 476 128 l 367 128 l 367 461 l 46 461 l 46 565 l 367 565 l 367 897 l 476 897 m 47 103 l 797 103 l 797 0 l 47 0 l 47 103 z "},"≈":{"ha":683,"x_min":39,"x_max":646,"o":"m 138 494 l 39 507 q 55 577 43 540 q 86 644 67 614 q 135 696 106 675 q 204 717 164 717 q 284 697 247 717 q 355 655 321 678 q 423 612 389 632 q 496 592 457 592 q 526 604 515 592 q 542 634 538 617 q 547 670 547 651 q 546 704 547 689 l 643 717 q 646 675 646 696 q 642 628 646 657 q 622 567 639 599 q 573 514 604 535 q 496 493 542 493 q 403 513 444 493 q 326 556 361 533 q 260 598 290 578 q 204 618 231 618 q 174 602 186 618 q 155 566 163 586 q 143 526 147 546 q 138 494 139 506 m 138 239 l 39 251 q 55 320 43 283 q 86 388 67 357 q 135 440 106 419 q 204 461 164 461 q 284 441 247 461 q 355 398 321 421 q 423 356 389 375 q 496 336 457 336 q 526 348 515 336 q 542 377 538 360 q 547 414 547 394 q 546 447 547 433 l 643 460 q 646 418 646 439 q 642 371 646 400 q 621 310 639 342 q 572 258 603 279 q 496 238 542 238 q 403 257 444 238 q 326 299 361 276 q 260 342 290 322 q 204 361 231 361 q 174 346 186 361 q 153 310 161 331 q 142 269 146 290 q 138 239 139 249 z "},"~":{"ha":668,"x_min":32,"x_max":639,"o":"m 489 365 q 397 385 439 365 q 319 427 354 404 q 254 469 285 450 q 197 489 224 489 q 167 474 179 489 q 147 438 154 458 q 135 397 139 418 q 131 365 132 376 l 32 378 q 48 448 36 411 q 80 516 60 485 q 129 567 100 547 q 197 588 158 588 q 277 568 240 588 q 348 526 314 549 q 416 483 382 503 q 489 464 450 464 q 519 476 508 464 q 535 505 531 488 q 540 541 540 522 q 539 574 540 560 l 638 588 q 639 560 639 574 q 635 503 639 536 q 613 439 631 471 q 565 386 596 407 q 489 365 535 365 z "},"¬":{"ha":688,"x_min":31,"x_max":660,"o":"m 660 540 l 660 279 l 558 279 l 558 439 l 31 439 l 31 540 l 660 540 z "},"∫":{"ha":538,"x_min":78,"x_max":460,"o":"m 92 -219 l 78 -219 l 78 -89 l 92 -89 q 137 -79 115 -89 q 175 -53 158 -69 q 201 -15 192 -37 q 210 32 210 7 l 210 774 q 230 870 210 825 q 284 950 250 915 q 363 1004 318 985 q 460 1024 408 1024 l 460 893 q 414 884 436 893 q 376 858 392 875 q 350 820 360 842 q 340 774 340 799 l 340 32 q 321 -66 340 -21 q 268 -146 301 -111 q 189 -200 235 -181 q 92 -219 143 -219 z "},"%":{"ha":1229,"x_min":40,"x_max":1196,"o":"m 396 0 l 282 0 l 842 974 l 954 974 l 396 0 m 282 974 q 458 898 390 974 q 525 685 525 822 q 458 472 525 547 q 282 396 390 396 q 108 472 175 396 q 40 685 40 547 q 108 898 40 822 q 282 974 175 974 m 400 685 q 397 735 400 706 q 381 792 393 764 q 346 840 369 819 q 282 860 322 860 q 220 840 243 860 q 185 792 197 819 q 169 735 172 764 q 165 685 165 706 q 169 635 165 665 q 185 578 172 606 q 220 531 197 551 q 282 511 243 511 q 346 531 322 511 q 381 578 369 551 q 397 635 393 606 q 400 685 400 665 m 954 585 q 1129 510 1063 585 q 1196 297 1196 435 q 1129 83 1196 158 q 954 7 1063 7 q 780 83 847 7 q 713 297 713 158 q 780 510 713 435 q 954 585 847 585 m 1072 297 q 1069 345 1072 315 q 1053 403 1065 375 q 1018 450 1042 431 q 954 469 994 469 q 891 450 914 469 q 856 403 868 431 q 840 345 843 375 q 838 297 838 315 q 840 247 838 276 q 856 189 843 217 q 891 142 868 161 q 954 122 914 122 q 1018 142 994 122 q 1053 189 1042 161 q 1069 247 1065 217 q 1072 297 1072 276 z "},"‰":{"ha":1751,"x_min":32,"x_max":1714,"o":"m 386 0 l 272 0 l 833 974 l 946 974 l 386 0 m 274 974 q 449 898 381 974 q 517 685 517 822 q 449 472 517 547 q 274 396 381 396 q 99 472 165 396 q 32 685 32 547 q 99 898 32 822 q 274 974 165 974 m 392 685 q 388 734 392 704 q 372 792 385 764 q 337 840 360 819 q 274 860 314 860 q 211 840 235 860 q 176 792 188 819 q 160 734 164 764 q 156 685 156 704 q 160 635 156 665 q 176 578 164 606 q 211 531 188 550 q 274 511 235 511 q 337 531 314 511 q 372 578 360 550 q 388 635 385 606 q 392 685 392 665 m 946 585 q 1120 510 1053 585 q 1188 297 1188 435 q 1120 83 1188 158 q 946 7 1053 7 q 770 83 838 7 q 703 296 703 158 q 770 510 703 435 q 946 585 838 585 m 1472 585 q 1647 510 1579 585 q 1714 296 1714 435 q 1647 83 1714 158 q 1472 7 1579 7 q 1297 83 1364 7 q 1229 296 1229 158 q 1297 510 1229 435 q 1472 585 1364 585 m 1064 296 q 1060 345 1064 315 q 1044 403 1057 375 q 1009 450 1032 431 q 946 469 986 469 q 882 450 906 469 q 847 403 858 431 q 831 345 835 375 q 828 296 828 315 q 831 247 828 276 q 847 189 835 217 q 882 142 858 161 q 946 122 906 122 q 1009 142 986 122 q 1044 189 1032 161 q 1060 247 1057 217 q 1064 296 1064 276 m 1589 296 q 1585 345 1589 315 q 1570 403 1582 375 q 1535 450 1558 431 q 1472 469 1511 469 q 1408 450 1432 469 q 1373 403 1385 431 q 1358 345 1361 375 q 1354 296 1354 315 q 1358 247 1354 276 q 1373 189 1361 217 q 1408 142 1385 161 q 1472 122 1432 122 q 1535 142 1511 122 q 1570 189 1558 161 q 1585 247 1582 217 q 1589 296 1589 276 z "},"@":{"ha":1150,"x_min":68,"x_max":1083,"o":"m 622 989 q 808 956 724 989 q 953 864 892 922 q 1049 726 1015 806 q 1083 549 1083 646 q 1061 416 1083 475 q 1001 315 1039 357 q 915 251 964 274 q 811 228 865 228 q 766 235 788 228 q 728 257 744 242 q 701 296 711 272 q 692 353 692 319 l 686 353 q 597 260 649 292 q 472 228 546 228 q 408 241 439 228 q 353 278 376 254 q 317 338 331 303 q 303 418 303 374 q 329 547 303 486 q 403 654 356 608 q 515 726 450 700 q 656 751 579 751 q 755 742 708 751 q 831 718 801 732 l 786 461 q 778 388 778 418 q 786 336 778 363 q 831 308 794 310 q 835 308 833 308 q 888 323 861 308 q 937 367 914 338 q 974 442 960 397 q 989 546 989 488 q 964 692 989 625 q 890 807 939 758 q 769 884 840 856 q 608 913 699 913 q 437 881 518 913 q 295 790 356 849 q 200 647 235 731 q 165 457 165 563 q 194 293 165 367 q 277 167 224 219 q 402 88 331 115 q 558 60 474 60 q 682 72 622 60 q 788 110 742 85 l 811 38 q 683 -7 747 6 q 539 -19 618 -19 q 359 14 444 -19 q 208 108 274 47 q 106 255 143 169 q 68 444 68 340 q 107 653 68 554 q 218 826 146 751 q 392 944 290 900 q 622 989 494 989 m 690 510 l 715 650 q 685 657 703 653 q 642 661 667 661 q 553 643 594 661 q 481 594 511 625 q 433 520 450 563 q 417 429 417 478 q 441 351 417 382 q 517 319 465 319 q 576 337 547 319 q 628 381 604 354 q 669 442 653 407 q 690 510 685 476 z "},"&":{"ha":999,"x_min":47,"x_max":960,"o":"m 167 742 q 184 831 167 786 q 236 910 201 875 q 322 968 271 946 q 442 990 374 990 q 539 975 494 990 q 616 932 583 960 q 667 864 649 904 q 685 776 685 824 q 632 635 685 699 q 463 521 579 572 l 463 515 q 528 444 496 479 q 590 378 560 410 q 647 319 621 347 q 694 271 674 292 q 757 383 729 317 q 800 546 785 449 l 940 546 q 881 333 918 422 q 783 179 844 244 q 874 85 832 129 q 960 0 917 42 l 771 0 q 727 42 749 19 q 679 89 706 64 q 540 8 614 35 q 376 -18 467 -18 q 235 5 296 -18 q 132 66 174 28 q 69 153 90 104 q 47 258 47 203 q 63 353 47 310 q 105 431 78 396 q 169 494 132 467 q 249 543 206 521 l 249 547 q 189 641 211 590 q 167 742 167 692 m 549 771 q 542 813 549 792 q 520 851 535 833 q 484 878 506 868 q 433 889 463 889 q 379 878 403 889 q 340 849 356 867 q 317 807 325 831 q 310 758 310 783 q 333 669 310 710 q 388 593 356 629 q 453 633 424 614 q 505 674 483 653 q 538 717 526 694 q 549 771 549 740 m 600 176 q 551 226 581 196 q 484 293 521 256 q 406 375 447 331 q 322 465 364 419 q 281 438 303 454 q 240 399 258 421 q 209 349 221 378 q 197 285 197 319 q 213 210 197 244 q 255 151 228 175 q 319 113 282 126 q 401 99 356 99 q 516 121 465 99 q 600 176 567 143 z "},"¶":{"ha":686,"x_min":39,"x_max":617,"o":"m 617 982 l 617 -135 l 515 -135 l 515 881 l 411 881 l 411 -135 l 310 -135 l 310 426 q 203 451 253 428 q 118 510 154 474 q 60 597 82 547 q 39 704 39 647 q 61 813 39 763 q 121 900 83 863 q 209 960 158 938 q 317 982 260 982 l 617 982 z "},"§":{"ha":632,"x_min":35,"x_max":593,"o":"m 574 443 q 576 408 576 425 q 560 322 576 367 q 497 240 543 276 q 547 185 528 217 q 574 115 567 154 q 576 74 576 93 q 561 -6 576 35 q 508 -81 546 -47 q 417 -131 469 -114 q 307 -149 365 -149 q 180 -132 250 -149 q 35 -86 110 -115 l 85 35 q 197 -3 140 13 q 308 -19 254 -19 q 361 -14 335 -19 q 408 6 388 -8 q 438 38 429 19 q 447 75 447 57 q 446 96 447 85 q 427 132 443 117 q 390 159 411 147 q 344 179 368 171 q 300 194 321 188 q 221 223 260 207 q 149 263 182 239 q 94 319 117 286 q 64 397 72 351 q 61 435 61 417 q 78 518 61 475 q 142 599 96 561 q 90 653 111 622 q 64 724 69 685 q 61 765 61 744 q 77 845 61 804 q 131 919 93 886 q 222 969 169 953 q 331 986 274 986 q 454 970 386 986 q 593 926 522 954 l 546 806 q 438 842 493 826 q 329 857 382 857 q 278 851 304 857 q 231 832 251 844 q 200 800 210 819 q 190 761 190 781 q 192 744 190 753 q 211 708 196 724 q 248 681 226 693 q 294 660 269 669 q 339 644 319 651 q 418 617 379 632 q 489 578 457 601 q 544 521 521 554 q 574 443 567 488 m 192 418 q 215 377 196 394 q 258 347 233 360 q 310 326 283 335 q 356 313 336 318 q 423 344 399 319 q 447 404 447 369 q 446 422 447 413 q 424 463 442 446 q 381 492 406 479 q 331 513 357 504 q 286 525 306 521 q 246 515 265 522 q 214 493 226 507 q 196 463 201 479 q 190 432 190 447 q 192 418 190 425 z "},"©":{"ha":1124,"x_min":31,"x_max":1090,"o":"m 560 1015 q 767 974 671 1015 q 935 860 864 932 q 1049 692 1007 789 q 1090 486 1090 596 q 1049 278 1090 375 q 935 110 1007 182 q 767 -3 864 39 q 560 -44 671 -44 q 353 -3 450 -44 q 185 111 257 39 q 72 280 114 183 q 31 486 31 376 q 72 692 31 596 q 186 860 114 789 q 355 974 258 932 q 560 1015 451 1015 m 560 51 q 730 85 651 51 q 868 178 808 119 q 962 317 928 238 q 996 486 996 396 q 961 655 996 576 q 867 793 926 733 q 729 887 808 853 q 560 921 650 921 q 392 886 471 921 q 253 792 313 851 q 160 654 194 733 q 126 486 126 575 q 160 317 126 396 q 253 178 194 238 q 392 85 313 119 q 560 51 471 51 m 564 756 q 462 735 510 756 q 378 677 414 714 q 323 591 343 640 q 303 486 303 542 q 323 381 303 431 q 378 295 343 332 q 462 238 414 258 q 564 217 510 217 q 666 239 618 217 q 750 299 714 261 l 824 226 q 707 144 774 174 q 564 114 640 114 q 422 143 489 114 q 306 223 356 172 q 228 342 257 274 q 200 486 200 410 q 228 631 200 564 q 306 749 257 699 q 422 829 356 800 q 564 858 489 858 q 707 828 640 858 q 824 747 774 799 l 750 674 q 666 734 714 713 q 564 756 618 756 z "},"®":{"ha":1118,"x_min":31,"x_max":1090,"o":"m 560 -43 q 353 -1 450 -43 q 185 112 257 40 q 72 281 114 183 q 31 488 31 378 q 72 693 31 596 q 185 862 114 790 q 353 975 257 933 q 561 1017 450 1017 q 767 975 671 1017 q 935 862 864 933 q 1049 693 1007 790 q 1090 488 1090 596 q 1049 280 1090 376 q 935 112 1007 183 q 767 -1 864 40 q 560 -43 671 -43 m 560 922 q 392 888 471 922 q 253 794 313 854 q 160 656 194 735 q 126 488 126 578 q 160 318 126 397 q 253 180 193 239 q 392 87 313 121 q 560 53 471 53 q 729 86 650 53 q 867 179 808 119 q 961 317 926 239 q 996 488 996 396 q 962 655 996 576 q 869 793 928 733 q 731 888 811 853 q 560 922 651 922 m 814 625 q 775 506 814 558 q 676 435 736 454 l 828 150 l 721 150 l 575 425 l 435 425 l 435 150 l 339 150 l 339 825 l 613 825 q 691 809 654 825 q 755 766 728 793 q 798 703 782 739 q 814 625 814 667 m 613 521 q 654 528 635 521 q 688 551 674 536 q 710 584 701 565 q 718 625 718 603 q 710 665 718 646 q 688 699 701 685 q 654 721 674 713 q 613 729 635 729 l 435 729 l 435 521 l 613 521 z "},"℗":{"ha":1121,"x_min":32,"x_max":1090,"o":"m 561 1015 q 767 974 671 1015 q 935 860 864 932 q 1049 692 1007 789 q 1090 485 1090 596 q 1049 278 1090 375 q 935 110 1007 182 q 767 -3 864 39 q 561 -44 671 -44 q 353 -3 450 -44 q 185 111 257 39 q 73 280 114 183 q 32 485 32 376 q 74 692 32 596 q 187 860 115 789 q 355 974 258 932 q 561 1015 451 1015 m 996 486 q 962 654 996 575 q 869 792 928 733 q 731 886 810 851 q 560 921 651 921 q 392 886 471 921 q 253 792 313 851 q 160 654 194 733 q 126 486 126 575 q 160 317 126 396 q 253 179 194 239 q 391 85 313 119 q 560 51 469 51 q 729 85 650 51 q 867 178 808 118 q 961 316 926 238 q 996 486 996 394 m 368 835 l 636 835 q 724 817 683 835 q 794 769 764 800 q 842 699 824 739 q 860 613 860 660 q 842 522 860 563 q 789 452 824 482 q 703 406 754 422 q 585 389 651 389 q 518 393 547 389 q 467 401 489 397 l 467 136 l 368 136 l 368 835 m 585 489 q 651 495 619 489 q 706 515 682 501 q 745 553 731 529 q 760 613 760 576 q 750 660 760 638 q 724 700 740 683 q 685 726 707 717 q 636 736 663 736 l 467 736 l 467 504 q 510 494 482 500 q 585 489 539 489 z "},"™":{"ha":1013,"x_min":24,"x_max":989,"o":"m 24 974 l 436 974 l 436 903 l 265 903 l 265 479 l 194 479 l 194 903 l 24 903 l 24 974 m 942 974 l 989 479 l 917 479 l 881 860 l 850 736 l 756 479 l 667 479 l 571 736 l 540 860 l 503 479 l 433 479 l 481 974 l 560 974 l 710 564 l 861 974 l 942 974 z "},"°":{"ha":556,"x_min":69,"x_max":482,"o":"m 276 1014 q 363 998 325 1014 q 428 954 401 982 q 468 891 454 926 q 482 818 482 856 q 465 735 482 772 q 419 670 449 697 q 353 628 390 643 q 275 614 315 614 q 191 630 229 614 q 126 672 153 646 q 85 734 100 699 q 69 810 69 769 q 85 891 69 854 q 129 956 101 928 q 195 999 157 983 q 276 1014 233 1014 m 275 694 q 357 729 325 694 q 389 815 389 764 q 383 856 389 835 q 363 894 376 876 q 328 922 349 911 q 275 933 307 933 q 226 923 246 933 q 192 894 206 913 q 171 854 178 876 q 164 811 164 832 q 195 728 164 761 q 275 694 226 694 z "},"|":{"ha":411,"x_min":156,"x_max":269,"o":"m 156 1139 l 269 1139 l 269 -306 l 156 -306 l 156 1139 z "},"¦":{"ha":453,"x_min":178,"x_max":279,"o":"m 178 1111 l 279 1111 l 279 556 l 178 556 l 178 1111 m 178 278 l 279 278 l 279 -278 l 178 -278 l 178 278 z "},"†":{"ha":556,"x_min":31,"x_max":525,"o":"m 329 974 l 329 693 l 525 693 l 525 590 l 329 590 l 329 -133 l 226 -133 l 226 590 l 31 590 l 31 693 l 226 693 l 226 974 l 329 974 z "},"‡":{"ha":556,"x_min":31,"x_max":525,"o":"m 328 974 l 328 693 l 525 693 l 525 590 l 328 590 l 328 250 l 525 250 l 525 149 l 328 149 l 328 -133 l 226 -133 l 226 149 l 31 149 l 31 250 l 226 250 l 226 590 l 31 590 l 31 693 l 226 693 l 226 974 l 328 974 z "},"№":{"ha":1743,"x_min":68,"x_max":1700,"o":"m 1339 981 q 1480 952 1414 981 q 1594 873 1546 924 q 1672 756 1643 822 q 1700 613 1700 689 q 1672 469 1700 536 q 1594 351 1643 401 q 1480 272 1546 301 q 1339 243 1414 243 q 1199 272 1265 243 q 1085 351 1133 301 q 1008 469 1036 401 q 979 613 979 536 q 1008 756 979 689 q 1085 873 1036 822 q 1199 952 1133 924 q 1339 981 1265 981 m 758 969 l 899 969 l 899 -3 l 717 -3 l 207 779 l 207 0 l 68 0 l 68 972 l 249 972 l 758 189 l 758 969 m 1339 382 q 1425 400 1385 382 q 1495 449 1465 418 q 1542 523 1525 481 q 1560 613 1560 565 q 1542 701 1560 658 q 1495 774 1525 743 q 1425 822 1465 804 q 1339 840 1385 840 q 1254 822 1294 840 q 1184 774 1214 804 q 1137 701 1154 743 q 1119 613 1119 658 q 1137 523 1119 565 q 1184 449 1154 481 q 1254 400 1214 418 q 1339 382 1294 382 m 1025 -3 l 1025 100 l 1654 100 l 1654 -3 l 1025 -3 z "},"^":{"ha":560,"x_min":49,"x_max":511,"o":"m 328 974 l 511 606 l 401 606 l 281 854 l 278 854 l 158 606 l 49 606 l 232 974 l 328 974 z "},"ˉ":{"ha":331,"x_min":33,"x_max":294,"o":"m 33 1150 l 294 1150 l 294 1056 l 33 1056 l 33 1150 z "},"´":{"ha":363,"x_min":25,"x_max":339,"o":"m 339 1231 l 156 1056 l 25 1056 l 156 1231 l 339 1231 z "},"˘":{"ha":368,"x_min":24,"x_max":346,"o":"m 346 1174 q 290 1088 335 1122 q 185 1054 244 1054 q 81 1088 126 1054 q 24 1174 36 1122 l 110 1190 q 135 1153 115 1168 q 185 1138 156 1138 q 234 1153 214 1138 q 260 1190 254 1168 l 346 1174 z "},"ˇ":{"ha":489,"x_min":29,"x_max":460,"o":"m 460 1232 l 304 1057 l 188 1057 l 29 1232 l 151 1232 l 244 1128 l 247 1128 l 340 1232 l 460 1232 z "},"¸":{"ha":356,"x_min":46,"x_max":311,"o":"m 210 -53 q 281 -89 251 -61 q 311 -162 311 -117 q 298 -219 311 -196 q 263 -256 285 -242 q 212 -277 240 -271 q 156 -283 183 -283 q 96 -277 125 -283 q 46 -258 67 -271 l 68 -187 q 105 -200 83 -194 q 149 -206 126 -206 q 192 -196 175 -206 q 208 -165 208 -186 q 179 -126 208 -139 q 93 -107 150 -112 l 160 19 l 251 19 l 210 -53 z "},"ˆ":{"ha":472,"x_min":22,"x_max":451,"o":"m 293 1231 l 451 1056 l 329 1056 l 236 1160 l 233 1160 l 142 1056 l 22 1056 l 178 1231 l 293 1231 z "},"¨":{"ha":538,"x_min":44,"x_max":493,"o":"m 411 1221 q 470 1197 447 1221 q 493 1138 493 1174 q 470 1081 493 1106 q 411 1056 447 1056 q 352 1081 375 1056 q 329 1138 329 1106 q 353 1197 329 1174 q 411 1221 376 1221 m 128 1221 q 185 1197 163 1221 q 207 1138 207 1174 q 185 1081 207 1106 q 128 1056 163 1056 q 68 1081 92 1056 q 44 1138 44 1106 q 68 1197 44 1174 q 128 1221 92 1221 z "},"˙":{"ha":274,"x_min":49,"x_max":229,"o":"m 140 1032 q 74 1059 100 1032 q 49 1122 49 1086 q 74 1186 49 1160 q 140 1213 100 1213 q 204 1187 179 1213 q 229 1122 229 1161 q 204 1059 229 1086 q 140 1032 179 1032 z "},"`":{"ha":364,"x_min":26,"x_max":338,"o":"m 207 1232 l 338 1058 l 208 1058 l 26 1232 l 207 1232 z "},"˝":{"ha":513,"x_min":25,"x_max":489,"o":"m 289 1232 l 154 1056 l 25 1056 l 154 1232 l 289 1232 m 489 1232 l 354 1056 l 225 1056 l 356 1232 l 489 1232 z "},"¯":{"ha":475,"x_min":110,"x_max":371,"o":"m 110 1085 l 371 1085 l 371 989 l 110 989 l 110 1085 z "},"˛":{"ha":331,"x_min":46,"x_max":308,"o":"m 279 6 q 237 -29 258 -10 q 197 -69 215 -49 q 168 -110 179 -90 q 157 -149 157 -131 q 169 -184 157 -169 q 201 -199 182 -199 q 239 -190 221 -199 q 274 -167 257 -181 l 308 -242 q 288 -258 301 -249 q 256 -274 274 -267 q 218 -286 239 -281 q 175 -292 197 -292 q 126 -284 149 -292 q 85 -262 103 -276 q 57 -226 68 -247 q 46 -178 46 -206 q 59 -123 46 -150 q 92 -72 72 -96 q 134 -29 111 -49 q 176 6 157 -10 l 279 6 z "},"˚":{"ha":367,"x_min":32,"x_max":338,"o":"m 186 1042 q 74 1079 115 1042 q 32 1172 32 1117 q 73 1269 32 1229 q 186 1308 114 1308 q 297 1269 257 1308 q 338 1172 338 1231 q 295 1079 338 1117 q 186 1042 253 1042 m 183 1250 q 133 1227 151 1250 q 114 1172 114 1204 q 133 1122 114 1144 q 183 1100 153 1100 q 235 1122 215 1100 q 254 1174 254 1143 q 235 1228 254 1206 q 183 1250 215 1250 z "},"˜":{"ha":469,"x_min":40,"x_max":429,"o":"m 311 1026 q 338 1038 328 1026 q 350 1086 347 1049 l 429 1086 q 429 1078 429 1082 q 403 969 429 1006 q 325 932 378 932 q 276 940 299 932 q 229 960 254 947 q 190 979 207 971 q 158 988 174 988 q 131 971 140 988 q 119 922 122 954 l 40 922 q 40 936 40 929 q 67 1043 40 1003 q 146 1083 94 1083 q 194 1075 172 1083 q 239 1053 215 1067 q 276 1035 258 1043 q 311 1026 293 1026 z "},"ƒ":{"ha":814,"x_min":1,"x_max":811,"o":"m 811 1083 l 811 953 l 699 953 q 650 944 674 953 q 607 918 626 935 q 574 880 588 901 q 554 833 560 858 l 525 690 l 626 690 l 626 607 l 508 607 l 403 92 q 363 -6 392 39 q 294 -86 335 -51 q 203 -140 253 -121 q 101 -160 154 -160 l 1 -160 l 1 -29 l 129 -29 q 176 -19 153 -29 q 219 6 200 -10 q 253 44 239 22 q 272 92 267 67 l 376 607 l 275 607 l 275 690 l 394 690 l 424 833 q 463 930 435 885 q 533 1010 492 975 q 624 1064 575 1044 q 725 1083 674 1083 l 811 1083 z "},"μ":{"ha":810,"x_min":71,"x_max":744,"o":"m 606 703 l 744 703 l 744 0 l 604 0 l 604 85 q 560 40 586 60 q 505 8 533 21 q 445 -11 476 -6 q 383 -17 414 -17 q 289 -2 333 -17 q 210 38 244 13 l 210 -369 l 71 -369 l 71 703 l 210 703 l 210 331 q 227 240 210 279 q 272 175 244 201 q 335 135 300 149 q 407 122 371 122 q 486 139 450 122 q 549 185 522 156 q 590 255 575 214 q 604 344 604 296 l 606 703 z "},"̦":{"ha":331,"x_min":92,"x_max":265,"o":"m 265 -207 q 251 -262 263 -232 q 225 -324 240 -293 q 194 -381 210 -354 q 168 -424 178 -407 l 92 -432 q 125 -349 104 -394 q 157 -256 146 -304 q 125 -234 136 -247 q 111 -200 114 -221 q 111 -190 111 -194 q 132 -142 111 -162 q 190 -122 153 -122 q 231 -131 215 -122 q 253 -151 246 -139 q 263 -176 261 -164 q 265 -197 265 -189 q 265 -207 265 -203 z "},"Æ":{"ha":1322,"x_min":29,"x_max":1263,"o":"m 1217 974 l 1217 835 l 758 835 l 797 575 l 1203 575 l 1203 436 l 818 436 l 864 140 l 1263 140 l 1263 0 l 744 0 l 694 325 l 346 325 l 185 0 l 29 0 l 510 974 l 1217 974 m 414 464 l 674 464 l 613 861 l 610 861 l 414 464 z "},"Ç":{"ha":946,"x_min":50,"x_max":892,"o":"m 892 136 q 735 25 825 65 q 540 -15 644 -15 q 349 24 439 -15 q 193 131 260 63 q 88 291 126 200 q 50 486 50 382 q 88 682 50 590 q 193 842 126 774 q 349 949 260 910 q 540 989 439 989 q 735 949 644 989 q 892 838 825 908 l 793 739 q 681 821 746 792 q 540 850 615 850 q 404 822 468 850 q 292 744 340 793 q 217 628 244 694 q 189 486 189 563 q 217 345 189 411 q 292 230 244 279 q 404 152 340 181 q 540 124 468 124 q 681 153 615 124 q 793 235 746 183 l 892 136 m 504 -53 q 576 -89 546 -61 q 606 -162 606 -117 q 592 -219 606 -196 q 557 -256 579 -242 q 506 -277 535 -271 q 450 -283 478 -283 q 390 -277 419 -283 q 340 -258 361 -271 l 363 -187 q 399 -200 378 -194 q 443 -206 421 -206 q 486 -196 469 -206 q 503 -165 503 -186 q 474 -126 503 -139 q 388 -107 444 -112 l 454 19 l 546 19 l 504 -53 z "},"Ì":{"ha":310,"x_min":-1,"x_max":311,"o":"m 85 974 l 224 974 l 224 0 l 85 0 l 85 974 m 181 1232 l 311 1058 l 182 1058 l -1 1232 l 181 1232 z "},"Í":{"ha":310,"x_min":-1,"x_max":311,"o":"m 85 974 l 224 974 l 224 0 l 85 0 l 85 974 m 311 1232 l 128 1056 l -1 1056 l 128 1232 l 311 1232 z "},"Î":{"ha":314,"x_min":-58,"x_max":371,"o":"m 88 974 l 226 974 l 226 0 l 88 0 l 88 974 m 214 1231 l 371 1056 l 250 1056 l 157 1160 l 154 1160 l 63 1056 l -58 1056 l 97 1231 l 214 1231 z "},"Ï":{"ha":313,"x_min":-69,"x_max":379,"o":"m 86 974 l 225 974 l 225 0 l 86 0 l 86 974 m 299 1219 q 357 1196 335 1219 q 379 1136 379 1172 q 357 1079 379 1104 q 299 1054 335 1054 q 239 1079 261 1054 q 217 1136 217 1104 q 240 1196 217 1172 q 299 1219 264 1219 m 15 1219 q 72 1196 49 1219 q 94 1136 94 1172 q 72 1079 94 1104 q 14 1054 50 1054 q -46 1079 -22 1054 q -69 1136 -69 1104 q -45 1196 -69 1172 q 15 1219 -21 1219 z "},"Ð":{"ha":982,"x_min":1,"x_max":929,"o":"m 442 974 q 632 935 543 974 q 787 831 721 897 q 891 676 853 764 q 929 486 929 588 q 891 297 929 386 q 787 142 853 208 q 632 38 721 76 q 442 0 543 0 l 74 0 l 74 442 l 1 442 l 1 535 l 74 535 l 74 974 l 442 974 m 442 140 q 576 167 514 140 q 686 242 639 194 q 761 351 733 289 q 789 486 789 414 q 761 622 789 558 q 686 732 733 685 q 576 807 639 779 q 442 835 514 835 l 213 835 l 213 535 l 344 535 l 344 442 l 213 442 l 213 140 l 442 140 z "},"Ñ":{"ha":989,"x_min":78,"x_max":908,"o":"m 260 972 l 769 189 l 769 969 l 908 969 l 908 -3 l 726 -3 l 218 779 l 218 0 l 78 0 l 78 972 l 260 972 m 571 1151 q 598 1163 589 1151 q 610 1211 607 1174 l 689 1211 q 689 1197 689 1204 q 663 1094 689 1129 q 585 1058 638 1058 q 536 1065 558 1058 q 489 1086 514 1072 q 451 1106 468 1097 q 418 1114 435 1114 q 392 1097 401 1114 q 381 1049 383 1079 l 300 1049 q 300 1061 300 1056 q 328 1169 300 1128 q 406 1210 356 1210 q 453 1201 432 1210 q 499 1179 475 1192 q 536 1160 518 1168 q 571 1151 554 1151 z "},"Ò":{"ha":1079,"x_min":47,"x_max":1029,"o":"m 539 988 q 729 949 640 988 q 885 841 818 910 q 990 681 951 772 q 1029 486 1029 590 q 990 290 1029 382 q 885 131 951 199 q 729 23 818 63 q 538 -17 640 -17 q 347 23 436 -17 q 191 131 257 63 q 86 290 125 199 q 47 486 47 382 q 86 681 47 590 q 191 841 125 772 q 347 949 257 910 q 539 988 436 988 m 538 849 q 401 820 465 849 q 290 742 338 792 q 215 627 242 693 q 188 486 188 561 q 215 345 188 411 q 290 230 242 279 q 401 152 338 181 q 538 124 465 124 q 675 152 611 124 q 787 230 739 181 q 863 345 835 279 q 890 486 890 411 q 863 627 890 561 q 787 742 835 693 q 675 820 739 792 q 538 849 611 849 m 567 1232 l 697 1058 l 568 1058 l 385 1232 l 567 1232 z "},"Ó":{"ha":1079,"x_min":47,"x_max":1029,"o":"m 539 988 q 729 949 640 988 q 885 841 818 910 q 990 681 951 772 q 1029 486 1029 590 q 990 290 1029 382 q 885 131 951 199 q 729 23 818 63 q 538 -17 640 -17 q 347 23 436 -17 q 191 131 257 63 q 86 290 125 199 q 47 486 47 382 q 86 681 47 590 q 191 841 125 772 q 347 949 257 910 q 539 988 436 988 m 538 849 q 401 820 465 849 q 290 742 338 792 q 215 627 242 693 q 188 486 188 561 q 215 345 188 411 q 290 230 242 279 q 401 152 338 181 q 538 124 465 124 q 675 152 611 124 q 787 230 739 181 q 863 345 835 279 q 890 486 890 411 q 863 627 890 561 q 787 742 835 693 q 675 820 739 792 q 538 849 611 849 m 697 1232 l 514 1056 l 385 1056 l 514 1232 l 697 1232 z "},"Ô":{"ha":1079,"x_min":47,"x_max":1029,"o":"m 539 988 q 729 949 640 988 q 885 841 818 910 q 990 681 951 772 q 1029 486 1029 590 q 990 290 1029 382 q 885 131 951 199 q 729 23 818 63 q 538 -17 640 -17 q 347 23 436 -17 q 191 131 257 63 q 86 290 125 199 q 47 486 47 382 q 86 681 47 590 q 191 841 125 772 q 347 949 257 910 q 539 988 436 988 m 538 849 q 401 820 465 849 q 290 742 338 792 q 215 627 242 693 q 188 486 188 561 q 215 345 188 411 q 290 230 242 279 q 401 152 338 181 q 538 124 465 124 q 675 152 611 124 q 787 230 739 181 q 863 345 835 279 q 890 486 890 411 q 863 627 890 561 q 787 742 835 693 q 675 820 739 792 q 538 849 611 849 m 597 1231 l 754 1056 l 633 1056 l 540 1160 l 538 1160 l 446 1056 l 325 1056 l 481 1231 l 597 1231 z "},"Õ":{"ha":1079,"x_min":47,"x_max":1029,"o":"m 539 988 q 729 949 640 988 q 885 841 818 910 q 990 681 951 772 q 1029 486 1029 590 q 990 290 1029 382 q 885 131 951 199 q 729 23 818 63 q 538 -17 640 -17 q 347 23 436 -17 q 191 131 257 63 q 86 290 125 199 q 47 486 47 382 q 86 681 47 590 q 191 841 125 772 q 347 949 257 910 q 539 988 436 988 m 538 849 q 401 820 465 849 q 290 742 338 792 q 215 627 242 693 q 188 486 188 561 q 215 345 188 411 q 290 230 242 279 q 401 152 338 181 q 538 124 465 124 q 675 152 611 124 q 787 230 739 181 q 863 345 835 279 q 890 486 890 411 q 863 627 890 561 q 787 742 835 693 q 675 820 739 792 q 538 849 611 849 m 617 1151 q 644 1163 635 1151 q 656 1211 653 1174 l 735 1211 q 735 1197 735 1204 q 709 1094 735 1129 q 631 1058 683 1058 q 582 1065 604 1058 q 535 1086 560 1072 q 497 1106 514 1097 q 464 1114 481 1114 q 438 1097 447 1114 q 426 1049 429 1079 l 346 1049 q 346 1061 346 1056 q 374 1169 346 1128 q 451 1210 401 1210 q 499 1201 478 1210 q 544 1179 521 1192 q 582 1160 564 1168 q 617 1151 600 1151 z "},"Ö":{"ha":1079,"x_min":47,"x_max":1029,"o":"m 539 988 q 729 949 640 988 q 885 841 818 910 q 990 681 951 772 q 1029 486 1029 590 q 990 290 1029 382 q 885 131 951 199 q 729 23 818 63 q 538 -17 640 -17 q 347 23 436 -17 q 191 131 257 63 q 86 290 125 199 q 47 486 47 382 q 86 681 47 590 q 191 841 125 772 q 347 949 257 910 q 539 988 436 988 m 538 849 q 401 820 465 849 q 290 742 338 792 q 215 627 242 693 q 188 486 188 561 q 215 345 188 411 q 290 230 242 279 q 401 152 338 181 q 538 124 465 124 q 675 152 611 124 q 787 230 739 181 q 863 345 835 279 q 890 486 890 411 q 863 627 890 561 q 787 742 835 693 q 675 820 739 792 q 538 849 611 849 m 683 1219 q 742 1196 719 1219 q 764 1136 764 1172 q 742 1079 764 1104 q 683 1054 719 1054 q 624 1079 646 1054 q 601 1136 601 1104 q 625 1196 601 1172 q 683 1219 649 1219 m 400 1219 q 456 1196 433 1219 q 479 1136 479 1172 q 457 1079 479 1104 q 399 1054 435 1054 q 339 1079 363 1054 q 315 1136 315 1104 q 340 1196 315 1172 q 400 1219 364 1219 z "},"Ø":{"ha":1079,"x_min":47,"x_max":1029,"o":"m 935 1000 l 854 871 q 982 703 935 803 q 1029 488 1029 604 q 990 292 1029 383 q 885 132 951 200 q 729 24 818 64 q 538 -17 640 -17 q 424 -3 479 -17 q 321 36 369 11 l 249 -78 l 169 -28 l 243 86 q 100 259 153 154 q 47 488 47 364 q 86 683 47 592 q 191 842 125 774 q 347 951 257 911 q 538 990 436 990 q 663 974 603 990 q 778 926 724 957 l 857 1050 l 935 1000 m 186 488 q 222 328 186 401 q 318 204 257 254 l 703 808 q 624 840 665 829 q 538 850 583 850 q 401 822 465 850 q 290 744 338 793 q 214 628 242 694 q 186 488 186 563 m 538 124 q 675 152 611 124 q 787 230 739 181 q 863 346 835 279 q 890 488 890 413 q 860 635 890 567 q 776 751 829 703 l 397 156 q 465 131 429 139 q 538 124 500 124 z "},"Ù":{"ha":915,"x_min":51,"x_max":864,"o":"m 725 974 l 864 974 l 864 390 q 838 224 864 299 q 761 96 813 150 q 634 13 710 42 q 458 -17 558 -17 q 283 13 358 -17 q 156 96 207 42 q 78 224 104 150 q 51 390 51 299 l 51 974 l 192 974 l 192 390 q 208 274 192 324 q 258 190 225 224 q 342 140 292 157 q 458 124 392 124 q 575 140 525 124 q 658 190 625 157 q 708 274 692 224 q 725 390 725 324 l 725 974 m 485 1232 l 615 1058 l 486 1058 l 303 1232 l 485 1232 z "},"Ú":{"ha":915,"x_min":51,"x_max":864,"o":"m 725 974 l 864 974 l 864 390 q 838 224 864 299 q 761 96 813 150 q 634 13 710 42 q 458 -17 558 -17 q 283 13 358 -17 q 156 96 207 42 q 78 224 104 150 q 51 390 51 299 l 51 974 l 192 974 l 192 390 q 208 274 192 324 q 258 190 225 224 q 342 140 292 157 q 458 124 392 124 q 575 140 525 124 q 658 190 625 157 q 708 274 692 224 q 725 390 725 324 l 725 974 m 615 1232 l 432 1056 l 303 1056 l 432 1232 l 615 1232 z "},"Û":{"ha":915,"x_min":51,"x_max":864,"o":"m 725 974 l 864 974 l 864 390 q 838 224 864 299 q 761 96 813 150 q 634 13 710 42 q 458 -17 558 -17 q 283 13 358 -17 q 156 96 207 42 q 78 224 104 150 q 51 390 51 299 l 51 974 l 192 974 l 192 390 q 208 274 192 324 q 258 190 225 224 q 342 140 292 157 q 458 124 392 124 q 575 140 525 124 q 658 190 625 157 q 708 274 692 224 q 725 390 725 324 l 725 974 m 515 1231 l 672 1056 l 551 1056 l 458 1160 l 456 1160 l 364 1056 l 243 1056 l 399 1231 l 515 1231 z "},"Ü":{"ha":915,"x_min":51,"x_max":864,"o":"m 725 974 l 864 974 l 864 390 q 838 224 864 299 q 761 96 813 150 q 634 13 710 42 q 458 -17 558 -17 q 283 13 358 -17 q 156 96 207 42 q 78 224 104 150 q 51 390 51 299 l 51 974 l 192 974 l 192 390 q 208 274 192 324 q 258 190 225 224 q 342 140 292 157 q 458 124 392 124 q 575 140 525 124 q 658 190 625 157 q 708 274 692 224 q 725 390 725 324 l 725 974 m 601 1219 q 660 1196 638 1219 q 682 1136 682 1172 q 660 1079 682 1104 q 601 1054 638 1054 q 542 1079 564 1054 q 519 1136 519 1104 q 543 1196 519 1172 q 601 1219 567 1219 m 318 1219 q 374 1196 351 1219 q 397 1136 397 1172 q 375 1079 397 1104 q 317 1054 353 1054 q 257 1079 281 1054 q 233 1136 233 1104 q 258 1196 233 1172 q 318 1219 282 1219 z "},"Ý":{"ha":882,"x_min":26,"x_max":860,"o":"m 860 974 l 513 425 l 513 0 l 374 0 l 374 425 l 26 974 l 203 974 l 443 569 l 689 974 l 860 974 m 599 1232 l 415 1056 l 286 1056 l 415 1232 l 599 1232 z "},"̂":{"ha":472,"x_min":22,"x_max":451,"o":"m 293 1053 l 451 878 l 329 878 l 236 982 l 233 982 l 142 878 l 22 878 l 178 1053 l 293 1053 z "},"̄":{"ha":475,"x_min":110,"x_max":371,"o":"m 110 1007 l 371 1007 l 371 911 l 110 911 l 110 1007 z "},"̆":{"ha":368,"x_min":24,"x_max":346,"o":"m 346 997 q 290 912 335 946 q 185 878 244 878 q 81 912 126 878 q 24 997 36 946 l 110 1014 q 135 976 115 992 q 185 961 156 961 q 234 976 214 961 q 260 1014 254 992 l 346 997 z "},"̇":{"ha":274,"x_min":49,"x_max":229,"o":"m 140 871 q 74 898 100 871 q 49 961 49 925 q 74 1025 49 999 q 140 1051 100 1051 q 204 1026 179 1051 q 229 961 229 1000 q 204 898 229 925 q 140 871 179 871 z "},"̈":{"ha":536,"x_min":43,"x_max":492,"o":"m 410 1043 q 469 1019 446 1043 q 492 960 492 996 q 469 903 492 928 q 410 878 446 878 q 351 903 374 878 q 328 960 328 928 q 351 1019 328 996 q 410 1043 375 1043 m 126 1043 q 183 1019 161 1043 q 206 960 206 996 q 183 903 206 928 q 126 878 161 878 q 67 903 90 878 q 43 960 43 928 q 67 1019 43 996 q 126 1043 90 1043 z "},"̊":{"ha":367,"x_min":32,"x_max":338,"o":"m 186 869 q 74 907 115 869 q 32 1000 32 944 q 73 1097 32 1057 q 186 1136 114 1136 q 297 1097 257 1136 q 338 1000 338 1058 q 295 907 338 944 q 186 869 253 869 m 183 1078 q 133 1055 151 1078 q 114 1000 114 1032 q 133 950 114 972 q 183 928 153 928 q 235 949 215 928 q 254 1001 254 971 q 235 1056 254 1033 q 183 1078 215 1078 z "},"̋":{"ha":513,"x_min":25,"x_max":489,"o":"m 289 1053 l 154 876 l 25 876 l 154 1053 l 289 1053 m 489 1053 l 354 876 l 225 876 l 356 1053 l 489 1053 z "},"̌":{"ha":489,"x_min":29,"x_max":460,"o":"m 460 1053 l 304 878 l 188 878 l 29 1053 l 151 1053 l 244 949 l 247 949 l 340 1053 l 460 1053 z "},"̧":{"ha":357,"x_min":47,"x_max":313,"o":"m 211 -53 q 283 -89 253 -61 q 313 -162 313 -117 q 299 -219 313 -196 q 264 -256 286 -242 q 213 -277 242 -271 q 157 -283 185 -283 q 97 -277 126 -283 q 47 -258 68 -271 l 69 -187 q 106 -200 85 -194 q 150 -206 128 -206 q 193 -196 176 -206 q 210 -165 210 -186 q 181 -126 210 -139 q 94 -107 151 -112 l 161 19 l 253 19 l 211 -53 z "},"̨":{"ha":331,"x_min":46,"x_max":308,"o":"m 279 6 q 237 -29 258 -10 q 197 -69 215 -49 q 168 -110 179 -90 q 157 -149 157 -131 q 169 -184 157 -169 q 201 -199 182 -199 q 239 -190 221 -199 q 274 -167 257 -181 l 308 -242 q 288 -258 301 -249 q 256 -274 274 -267 q 218 -286 239 -281 q 175 -292 197 -292 q 126 -284 149 -292 q 85 -262 103 -276 q 57 -226 68 -247 q 46 -178 46 -206 q 59 -123 46 -150 q 92 -72 72 -96 q 134 -29 111 -49 q 176 6 157 -10 l 279 6 z "},"̀":{"ha":365,"x_min":28,"x_max":339,"o":"m 208 1051 l 339 878 l 210 878 l 28 1051 l 208 1051 z "},"́":{"ha":360,"x_min":24,"x_max":338,"o":"m 338 1053 l 154 878 l 24 878 l 154 1053 l 338 1053 z "},"̃":{"ha":469,"x_min":40,"x_max":429,"o":"m 311 986 q 338 997 328 986 q 350 1046 347 1008 l 429 1046 q 429 1038 429 1042 q 403 928 429 965 q 325 892 378 892 q 276 899 299 892 q 229 919 254 907 q 190 939 207 931 q 158 947 174 947 q 131 931 140 947 q 119 882 122 914 l 40 882 q 40 896 40 889 q 67 1003 40 963 q 146 1043 94 1043 q 194 1035 172 1043 q 239 1013 215 1026 q 276 994 258 1003 q 311 986 293 986 z "},"À":{"ha":951,"x_min":29,"x_max":928,"o":"m 578 974 l 928 0 l 779 0 l 675 290 l 282 290 l 178 0 l 29 0 l 379 974 l 578 974 m 332 431 l 626 431 l 478 836 l 332 431 m 503 1232 l 633 1058 l 504 1058 l 321 1232 l 503 1232 z "},"Á":{"ha":951,"x_min":29,"x_max":928,"o":"m 578 974 l 928 0 l 779 0 l 675 290 l 282 290 l 178 0 l 29 0 l 379 974 l 578 974 m 332 431 l 626 431 l 478 836 l 332 431 m 633 1232 l 450 1056 l 321 1056 l 450 1232 l 633 1232 z "},"Â":{"ha":951,"x_min":29,"x_max":928,"o":"m 578 974 l 928 0 l 779 0 l 675 290 l 282 290 l 178 0 l 29 0 l 379 974 l 578 974 m 332 431 l 626 431 l 478 836 l 332 431 m 533 1231 l 690 1056 l 569 1056 l 476 1160 l 474 1160 l 382 1056 l 261 1056 l 417 1231 l 533 1231 z "},"Ã":{"ha":951,"x_min":29,"x_max":928,"o":"m 578 974 l 928 0 l 779 0 l 675 290 l 282 290 l 178 0 l 29 0 l 379 974 l 578 974 m 332 431 l 626 431 l 478 836 l 332 431 m 553 1151 q 580 1163 571 1151 q 592 1211 589 1174 l 671 1211 q 671 1197 671 1204 q 645 1094 671 1129 q 567 1058 619 1058 q 518 1065 540 1058 q 471 1086 496 1072 q 433 1106 450 1097 q 400 1114 417 1114 q 374 1097 383 1114 q 363 1049 365 1079 l 282 1049 q 282 1061 282 1056 q 310 1169 282 1128 q 388 1210 338 1210 q 435 1201 414 1210 q 481 1179 457 1192 q 518 1160 500 1168 q 553 1151 536 1151 z "},"Ä":{"ha":951,"x_min":29,"x_max":928,"o":"m 578 974 l 928 0 l 779 0 l 675 290 l 282 290 l 178 0 l 29 0 l 379 974 l 578 974 m 332 431 l 626 431 l 478 836 l 332 431 m 619 1219 q 678 1196 656 1219 q 700 1136 700 1172 q 678 1079 700 1104 q 619 1054 656 1054 q 560 1079 582 1054 q 538 1136 538 1104 q 561 1196 538 1172 q 619 1219 585 1219 m 336 1219 q 392 1196 369 1219 q 415 1136 415 1172 q 393 1079 415 1104 q 335 1054 371 1054 q 275 1079 299 1054 q 251 1136 251 1104 q 276 1196 251 1172 q 336 1219 300 1219 z "},"Å":{"ha":951,"x_min":29,"x_max":928,"o":"m 578 974 l 928 0 l 779 0 l 675 290 l 282 290 l 178 0 l 29 0 l 379 974 l 578 974 m 332 431 l 626 431 l 478 836 l 332 431 m 478 1040 q 366 1078 408 1040 q 324 1171 324 1117 q 365 1269 324 1229 q 478 1308 406 1308 q 590 1269 550 1308 q 629 1171 629 1231 q 587 1078 629 1115 q 478 1040 544 1040 m 475 1249 q 425 1226 443 1249 q 407 1171 407 1203 q 426 1122 407 1144 q 476 1100 444 1100 q 526 1121 507 1100 q 546 1174 546 1142 q 526 1226 546 1204 q 475 1249 507 1249 z "},"Ỳ":{"ha":882,"x_min":26,"x_max":860,"o":"m 860 974 l 513 425 l 513 0 l 374 0 l 374 425 l 26 974 l 203 974 l 443 569 l 689 974 l 860 974 m 468 1232 l 599 1058 l 469 1058 l 286 1232 l 468 1232 z "},"È":{"ha":757,"x_min":76,"x_max":699,"o":"m 675 974 l 675 835 l 217 835 l 217 575 l 650 575 l 650 435 l 217 435 l 217 140 l 699 140 l 699 0 l 76 0 l 76 974 l 675 974 m 404 1232 l 535 1058 l 406 1058 l 222 1232 l 404 1232 z "},"É":{"ha":757,"x_min":76,"x_max":699,"o":"m 675 974 l 675 835 l 217 835 l 217 575 l 650 575 l 650 435 l 217 435 l 217 140 l 699 140 l 699 0 l 76 0 l 76 974 l 675 974 m 535 1232 l 351 1056 l 222 1056 l 351 1232 l 535 1232 z "},"Ê":{"ha":757,"x_min":76,"x_max":699,"o":"m 675 974 l 675 835 l 217 835 l 217 575 l 650 575 l 650 435 l 217 435 l 217 140 l 699 140 l 699 0 l 76 0 l 76 974 l 675 974 m 435 1231 l 592 1056 l 471 1056 l 378 1160 l 375 1160 l 283 1056 l 163 1056 l 318 1231 l 435 1231 z "},"Ë":{"ha":757,"x_min":76,"x_max":699,"o":"m 675 974 l 675 835 l 217 835 l 217 575 l 650 575 l 650 435 l 217 435 l 217 140 l 699 140 l 699 0 l 76 0 l 76 974 l 675 974 m 522 1219 q 581 1196 558 1219 q 603 1136 603 1172 q 581 1079 603 1104 q 522 1054 558 1054 q 463 1079 485 1054 q 440 1136 440 1104 q 464 1196 440 1172 q 522 1219 488 1219 m 239 1219 q 295 1196 272 1219 q 318 1136 318 1172 q 296 1079 318 1104 q 238 1054 274 1054 q 178 1079 201 1054 q 154 1136 154 1104 q 178 1196 154 1172 q 239 1219 203 1219 z "},"Ā":{"ha":951,"x_min":29,"x_max":928,"o":"m 578 974 l 928 0 l 779 0 l 675 290 l 282 290 l 178 0 l 29 0 l 379 974 l 578 974 m 332 431 l 626 431 l 478 836 l 332 431 m 346 1150 l 607 1150 l 607 1056 l 346 1056 l 346 1150 z "},"Ă":{"ha":951,"x_min":29,"x_max":928,"o":"m 578 974 l 928 0 l 779 0 l 675 290 l 282 290 l 178 0 l 29 0 l 379 974 l 578 974 m 332 431 l 626 431 l 478 836 l 332 431 m 638 1179 q 581 1094 626 1128 q 476 1061 536 1061 q 373 1094 418 1061 q 315 1179 328 1128 l 401 1196 q 428 1159 407 1175 q 476 1143 449 1143 q 526 1159 506 1143 q 551 1196 547 1175 l 638 1179 z "},"Ą":{"ha":951,"x_min":29,"x_max":928,"o":"m 578 974 l 928 0 l 779 0 l 675 290 l 282 290 l 178 0 l 29 0 l 379 974 l 578 974 m 332 431 l 626 431 l 478 836 l 332 431 m 889 6 q 847 -29 868 -10 q 807 -69 825 -49 q 778 -110 789 -90 q 767 -149 767 -131 q 779 -184 767 -169 q 811 -199 792 -199 q 849 -190 831 -199 q 883 -167 867 -181 l 918 -242 q 897 -258 911 -249 q 866 -274 883 -267 q 828 -286 849 -281 q 785 -292 807 -292 q 735 -284 758 -292 q 695 -262 713 -276 q 667 -226 678 -247 q 656 -178 656 -206 q 669 -123 656 -150 q 701 -72 682 -96 q 744 -29 721 -49 q 786 6 767 -10 l 889 6 z "},"Ć":{"ha":946,"x_min":50,"x_max":892,"o":"m 892 136 q 735 25 825 65 q 540 -15 644 -15 q 349 24 439 -15 q 193 131 260 63 q 88 291 126 200 q 50 486 50 382 q 88 682 50 590 q 193 842 126 774 q 349 949 260 910 q 540 989 439 989 q 735 949 644 989 q 892 838 825 908 l 793 739 q 681 821 746 792 q 540 850 615 850 q 404 822 468 850 q 292 744 340 793 q 217 628 244 694 q 189 486 189 563 q 217 345 189 411 q 292 230 244 279 q 404 152 340 181 q 540 124 468 124 q 681 153 615 124 q 793 235 746 183 l 892 136 m 631 1232 l 447 1056 l 318 1056 l 447 1232 l 631 1232 z "},"Ĉ":{"ha":946,"x_min":50,"x_max":892,"o":"m 892 136 q 735 25 825 65 q 540 -15 644 -15 q 349 24 439 -15 q 193 131 260 63 q 88 291 126 200 q 50 486 50 382 q 88 682 50 590 q 193 842 126 774 q 349 949 260 910 q 540 989 439 989 q 735 949 644 989 q 892 838 825 908 l 793 739 q 681 821 746 792 q 540 850 615 850 q 404 822 468 850 q 292 744 340 793 q 217 628 244 694 q 189 486 189 563 q 217 345 189 411 q 292 230 244 279 q 404 152 340 181 q 540 124 468 124 q 681 153 615 124 q 793 235 746 183 l 892 136 m 531 1231 l 688 1056 l 567 1056 l 474 1160 l 471 1160 l 379 1056 l 258 1056 l 414 1231 l 531 1231 z "},"Ċ":{"ha":946,"x_min":50,"x_max":892,"o":"m 892 136 q 735 25 825 65 q 540 -15 644 -15 q 349 24 439 -15 q 193 131 260 63 q 88 291 126 200 q 50 486 50 382 q 88 682 50 590 q 193 842 126 774 q 349 949 260 910 q 540 989 439 989 q 735 949 644 989 q 892 838 825 908 l 793 739 q 681 821 746 792 q 540 850 615 850 q 404 822 468 850 q 292 744 340 793 q 217 628 244 694 q 189 486 189 563 q 217 345 189 411 q 292 230 244 279 q 404 152 340 181 q 540 124 468 124 q 681 153 615 124 q 793 235 746 183 l 892 136 m 474 1046 q 408 1073 433 1046 q 383 1136 383 1100 q 409 1201 383 1175 q 474 1226 435 1226 q 538 1201 513 1226 q 563 1136 563 1175 q 538 1073 563 1100 q 474 1046 514 1046 z "},"Č":{"ha":946,"x_min":50,"x_max":892,"o":"m 892 136 q 735 25 825 65 q 540 -15 644 -15 q 349 24 439 -15 q 193 131 260 63 q 88 291 126 200 q 50 486 50 382 q 88 682 50 590 q 193 842 126 774 q 349 949 260 910 q 540 989 439 989 q 735 949 644 989 q 892 838 825 908 l 793 739 q 681 821 746 792 q 540 850 615 850 q 404 822 468 850 q 292 744 340 793 q 217 628 244 694 q 189 486 189 563 q 217 345 189 411 q 292 230 244 279 q 404 152 340 181 q 540 124 468 124 q 681 153 615 124 q 793 235 746 183 l 892 136 m 689 1232 l 532 1056 l 417 1056 l 258 1232 l 381 1232 l 474 1128 l 476 1128 l 568 1232 l 689 1232 z "},"Ď":{"ha":982,"x_min":72,"x_max":928,"o":"m 442 974 q 631 935 542 974 q 785 831 719 897 q 890 676 851 765 q 928 488 928 588 q 890 298 928 386 q 785 143 851 210 q 631 38 719 76 q 442 0 542 0 l 72 0 l 72 974 l 442 974 m 213 835 l 213 140 l 442 140 q 577 167 514 140 q 687 242 640 194 q 760 352 733 289 q 788 488 788 415 q 760 623 788 560 q 687 733 733 686 q 577 808 640 781 q 442 835 514 835 l 213 835 m 708 1232 l 551 1056 l 436 1056 l 278 1232 l 400 1232 l 493 1128 l 496 1128 l 588 1232 l 708 1232 z "},"Đ":{"ha":982,"x_min":1,"x_max":929,"o":"m 442 974 q 632 935 543 974 q 787 831 721 897 q 891 676 853 764 q 929 486 929 588 q 891 297 929 386 q 787 142 853 208 q 632 38 721 76 q 442 0 543 0 l 74 0 l 74 442 l 1 442 l 1 535 l 74 535 l 74 974 l 442 974 m 442 140 q 576 167 514 140 q 686 242 639 194 q 761 351 733 289 q 789 486 789 414 q 761 622 789 558 q 686 732 733 685 q 576 807 639 779 q 442 835 514 835 l 213 835 l 213 535 l 344 535 l 344 442 l 213 442 l 213 140 l 442 140 z "},"Ē":{"ha":757,"x_min":76,"x_max":699,"o":"m 675 974 l 675 835 l 217 835 l 217 575 l 650 575 l 650 435 l 217 435 l 217 140 l 699 140 l 699 0 l 76 0 l 76 974 l 675 974 m 247 1150 l 508 1150 l 508 1056 l 247 1056 l 247 1150 z "},"Ĕ":{"ha":757,"x_min":76,"x_max":699,"o":"m 675 974 l 675 835 l 217 835 l 217 575 l 650 575 l 650 435 l 217 435 l 217 140 l 699 140 l 699 0 l 76 0 l 76 974 l 675 974 m 539 1179 q 483 1094 528 1128 q 378 1061 438 1061 q 274 1094 319 1061 q 217 1179 229 1128 l 303 1196 q 329 1159 308 1175 q 378 1143 350 1143 q 428 1159 407 1143 q 453 1196 449 1175 l 539 1179 z "},"Ė":{"ha":757,"x_min":76,"x_max":699,"o":"m 675 974 l 675 835 l 217 835 l 217 575 l 650 575 l 650 435 l 217 435 l 217 140 l 699 140 l 699 0 l 76 0 l 76 974 l 675 974 m 378 1046 q 313 1073 338 1046 q 288 1136 288 1100 q 313 1201 288 1175 q 378 1226 339 1226 q 442 1201 417 1226 q 467 1136 467 1175 q 442 1073 467 1100 q 378 1046 418 1046 z "},"Ę":{"ha":757,"x_min":76,"x_max":700,"o":"m 675 974 l 675 835 l 217 835 l 217 575 l 650 575 l 650 435 l 217 435 l 217 140 l 699 140 l 699 0 l 76 0 l 76 974 l 675 974 m 671 6 q 628 -29 650 -10 q 589 -69 607 -49 q 560 -110 571 -90 q 549 -149 549 -131 q 561 -184 549 -169 q 593 -199 574 -199 q 631 -190 613 -199 q 665 -167 649 -181 l 700 -242 q 679 -258 693 -249 q 648 -274 665 -267 q 610 -286 631 -281 q 567 -292 589 -292 q 517 -284 540 -292 q 477 -262 494 -276 q 449 -226 460 -247 q 438 -178 438 -206 q 451 -123 438 -150 q 483 -72 464 -96 q 526 -29 503 -49 q 568 6 549 -10 l 671 6 z "},"Ě":{"ha":757,"x_min":76,"x_max":699,"o":"m 675 974 l 675 835 l 217 835 l 217 575 l 650 575 l 650 435 l 217 435 l 217 140 l 699 140 l 699 0 l 76 0 l 76 974 l 675 974 m 594 1232 l 438 1056 l 322 1056 l 164 1232 l 286 1232 l 379 1128 l 382 1128 l 474 1232 l 594 1232 z "},"Ĝ":{"ha":983,"x_min":49,"x_max":939,"o":"m 939 167 q 857 80 899 115 q 767 24 815 44 q 664 -6 719 3 q 540 -15 608 -15 q 349 24 439 -15 q 193 132 260 64 q 88 292 126 200 q 49 488 49 383 q 88 683 49 592 q 193 842 126 774 q 349 950 260 911 q 540 989 439 989 q 733 949 643 989 q 890 838 824 908 l 792 739 q 680 822 744 792 q 540 851 615 851 q 403 823 467 851 q 292 745 340 794 q 217 629 244 696 q 189 488 189 563 q 217 346 189 411 q 292 231 244 281 q 403 153 340 182 q 540 125 467 125 q 690 148 622 125 q 800 231 758 171 l 800 407 l 514 407 l 514 546 l 939 546 l 939 167 m 549 1231 l 706 1056 l 585 1056 l 492 1160 l 489 1160 l 397 1056 l 276 1056 l 432 1231 l 549 1231 z "},"Ğ":{"ha":983,"x_min":49,"x_max":939,"o":"m 939 167 q 857 80 899 115 q 767 24 815 44 q 664 -6 719 3 q 540 -15 608 -15 q 349 24 439 -15 q 193 132 260 64 q 88 292 126 200 q 49 488 49 383 q 88 683 49 592 q 193 842 126 774 q 349 950 260 911 q 540 989 439 989 q 733 949 643 989 q 890 838 824 908 l 792 739 q 680 822 744 792 q 540 851 615 851 q 403 823 467 851 q 292 745 340 794 q 217 629 244 696 q 189 488 189 563 q 217 346 189 411 q 292 231 244 281 q 403 153 340 182 q 540 125 467 125 q 690 148 622 125 q 800 231 758 171 l 800 407 l 514 407 l 514 546 l 939 546 l 939 167 m 653 1179 q 597 1094 642 1128 q 492 1061 551 1061 q 388 1094 433 1061 q 331 1179 343 1128 l 417 1196 q 443 1159 422 1175 q 492 1143 464 1143 q 542 1159 521 1143 q 567 1196 563 1175 l 653 1179 z "},"Ġ":{"ha":983,"x_min":49,"x_max":939,"o":"m 939 167 q 857 80 899 115 q 767 24 815 44 q 664 -6 719 3 q 540 -15 608 -15 q 349 24 439 -15 q 193 132 260 64 q 88 292 126 200 q 49 488 49 383 q 88 683 49 592 q 193 842 126 774 q 349 950 260 911 q 540 989 439 989 q 733 949 643 989 q 890 838 824 908 l 792 739 q 680 822 744 792 q 540 851 615 851 q 403 823 467 851 q 292 745 340 794 q 217 629 244 696 q 189 488 189 563 q 217 346 189 411 q 292 231 244 281 q 403 153 340 182 q 540 125 467 125 q 690 148 622 125 q 800 231 758 171 l 800 407 l 514 407 l 514 546 l 939 546 l 939 167 m 492 1046 q 426 1073 451 1046 q 401 1136 401 1100 q 427 1201 401 1175 q 492 1226 453 1226 q 556 1201 531 1226 q 581 1136 581 1175 q 556 1073 581 1100 q 492 1046 532 1046 z "},"Ģ":{"ha":983,"x_min":49,"x_max":939,"o":"m 939 167 q 857 80 899 115 q 767 24 815 44 q 664 -6 719 3 q 540 -15 608 -15 q 349 24 439 -15 q 193 132 260 64 q 88 292 126 200 q 49 488 49 383 q 88 683 49 592 q 193 842 126 774 q 349 950 260 911 q 540 989 439 989 q 733 949 643 989 q 890 838 824 908 l 792 739 q 680 822 744 792 q 540 851 615 851 q 403 823 467 851 q 292 745 340 794 q 217 629 244 696 q 189 488 189 563 q 217 346 189 411 q 292 231 244 281 q 403 153 340 182 q 540 125 467 125 q 690 148 622 125 q 800 231 758 171 l 800 407 l 514 407 l 514 546 l 939 546 l 939 167 m 579 -207 q 565 -262 576 -232 q 539 -324 554 -293 q 508 -381 524 -354 q 482 -424 492 -407 l 406 -432 q 439 -349 418 -394 q 471 -256 460 -304 q 439 -234 450 -247 q 425 -200 428 -221 q 425 -190 425 -194 q 446 -142 425 -162 q 504 -122 467 -122 q 544 -131 529 -122 q 567 -151 560 -139 q 577 -176 575 -164 q 579 -197 579 -189 q 579 -207 579 -203 z "},"Ĥ":{"ha":947,"x_min":74,"x_max":872,"o":"m 214 0 l 74 0 l 74 974 l 214 974 l 214 576 l 733 576 l 733 974 l 872 974 l 872 0 l 733 0 l 733 436 l 214 436 l 214 0 m 531 1231 l 688 1056 l 567 1056 l 474 1160 l 471 1160 l 379 1056 l 258 1056 l 414 1231 l 531 1231 z "},"Ħ":{"ha":947,"x_min":25,"x_max":922,"o":"m 872 974 l 872 826 l 922 826 l 922 733 l 872 733 l 872 0 l 732 0 l 732 436 l 214 436 l 214 0 l 75 0 l 75 733 l 25 733 l 25 826 l 75 826 l 75 974 l 214 974 l 214 826 l 732 826 l 732 974 l 872 974 m 214 576 l 732 576 l 732 733 l 214 733 l 214 576 z "},"Ĩ":{"ha":308,"x_min":-42,"x_max":347,"o":"m 83 974 l 222 974 l 222 0 l 83 0 l 83 974 m 229 1151 q 256 1163 247 1151 q 268 1211 265 1174 l 347 1211 q 347 1197 347 1204 q 322 1094 347 1129 q 243 1058 296 1058 q 194 1065 217 1058 q 147 1086 172 1072 q 110 1106 126 1097 q 76 1114 93 1114 q 51 1097 60 1114 q 39 1049 42 1079 l -42 1049 q -42 1061 -42 1056 q -14 1169 -42 1128 q 64 1210 14 1210 q 112 1201 90 1210 q 157 1179 133 1192 q 194 1160 176 1168 q 229 1151 213 1151 z "},"Ī":{"ha":313,"x_min":25,"x_max":286,"o":"m 86 974 l 225 974 l 225 0 l 86 0 l 86 974 m 25 1150 l 286 1150 l 286 1056 l 25 1056 l 25 1150 z "},"Į":{"ha":313,"x_min":-44,"x_max":225,"o":"m 86 974 l 225 974 l 225 0 l 86 0 l 86 974 m 189 6 q 147 -29 168 -10 q 107 -69 125 -49 q 78 -110 89 -90 q 67 -149 67 -131 q 79 -184 67 -169 q 111 -199 92 -199 q 149 -190 131 -199 q 183 -167 167 -181 l 218 -242 q 197 -258 211 -249 q 166 -274 183 -267 q 128 -286 149 -281 q 85 -292 107 -292 q 35 -284 58 -292 q -5 -262 13 -276 q -33 -226 -22 -247 q -44 -178 -44 -206 q -31 -123 -44 -150 q 1 -72 -18 -96 q 44 -29 21 -49 q 86 6 67 -10 l 189 6 z "},"İ":{"ha":313,"x_min":67,"x_max":246,"o":"m 86 974 l 225 974 l 225 0 l 86 0 l 86 974 m 157 1046 q 92 1073 117 1046 q 67 1136 67 1100 q 92 1201 67 1175 q 157 1226 118 1226 q 221 1201 196 1226 q 246 1136 246 1175 q 222 1073 246 1100 q 157 1046 197 1046 z "},"Ĳ":{"ha":722,"x_min":86,"x_max":633,"o":"m 86 974 l 225 974 l 225 0 l 86 0 l 86 974 m 633 54 q 609 -66 633 -10 q 544 -163 585 -122 q 447 -228 503 -204 q 328 -253 390 -253 l 232 -253 l 232 -114 l 328 -114 q 393 -101 363 -114 q 446 -65 424 -87 q 481 -12 468 -42 q 494 54 494 18 l 494 974 l 633 974 l 633 54 z "},"Ĵ":{"ha":410,"x_min":-81,"x_max":418,"o":"m 321 54 q 297 -66 321 -10 q 231 -163 272 -122 q 134 -228 190 -204 q 15 -253 78 -253 l -81 -253 l -81 -114 l 15 -114 q 81 -101 50 -114 q 133 -65 111 -87 q 169 -12 156 -42 q 182 54 182 18 l 182 974 l 321 974 l 321 54 m 261 1231 l 418 1056 l 297 1056 l 204 1160 l 201 1160 l 110 1056 l -11 1056 l 144 1231 l 261 1231 z "},"Ķ":{"ha":876,"x_min":75,"x_max":856,"o":"m 215 360 l 215 0 l 75 0 l 75 974 l 215 974 l 215 558 l 631 974 l 828 974 l 429 575 l 856 0 l 682 0 l 329 475 l 215 360 m 525 -207 q 511 -262 522 -232 q 485 -324 500 -293 q 453 -381 469 -354 q 428 -424 438 -407 l 351 -432 q 385 -349 364 -394 q 417 -256 406 -304 q 385 -234 396 -247 q 371 -200 374 -221 q 371 -190 371 -194 q 392 -142 371 -162 q 450 -122 413 -122 q 490 -131 475 -122 q 513 -151 506 -139 q 523 -176 521 -164 q 525 -197 525 -189 q 525 -207 525 -203 z "},"Ĺ":{"ha":746,"x_min":79,"x_max":693,"o":"m 79 0 l 79 974 l 219 974 l 219 140 l 693 140 l 693 0 l 79 0 m 392 1232 l 208 1056 l 79 1056 l 208 1232 l 392 1232 z "},"Ļ":{"ha":746,"x_min":79,"x_max":693,"o":"m 79 0 l 79 974 l 219 974 l 219 140 l 693 140 l 693 0 l 79 0 m 461 -207 q 447 -262 458 -232 q 421 -324 436 -293 q 390 -381 406 -354 q 364 -424 374 -407 l 288 -432 q 321 -349 300 -394 q 353 -256 342 -304 q 321 -234 332 -247 q 307 -200 310 -221 q 307 -190 307 -194 q 328 -142 307 -162 q 386 -122 349 -122 q 426 -131 411 -122 q 449 -151 442 -139 q 459 -176 457 -164 q 461 -197 461 -189 q 461 -207 461 -203 z "},"Ľ":{"ha":746,"x_min":79,"x_max":693,"o":"m 510 901 q 497 847 508 878 q 470 786 485 817 q 440 728 456 756 q 413 685 424 701 l 336 678 q 370 760 350 715 q 401 853 390 806 q 370 874 382 861 q 357 910 358 888 q 357 919 357 915 q 377 966 357 946 q 435 986 397 986 q 475 978 460 986 q 498 958 490 971 q 508 933 506 946 q 510 911 510 921 q 510 901 510 906 m 218 974 l 218 140 l 693 140 l 693 0 l 79 0 l 79 974 l 218 974 z "},"Ŀ":{"ha":746,"x_min":79,"x_max":693,"o":"m 79 0 l 79 974 l 219 974 l 219 140 l 693 140 l 693 0 l 79 0 m 389 528 q 418 603 389 574 q 492 632 447 632 q 567 603 539 632 q 596 528 594 574 q 567 453 596 483 q 492 424 539 424 q 417 453 446 424 q 389 528 389 483 z "},"Ł":{"ha":746,"x_min":-24,"x_max":693,"o":"m 218 974 l 218 613 l 342 735 l 342 604 l 218 481 l 218 140 l 693 140 l 693 0 l 79 0 l 79 340 l -24 239 l -24 371 l 79 474 l 79 974 l 218 974 z "},"Ń":{"ha":989,"x_min":78,"x_max":908,"o":"m 260 972 l 769 189 l 769 969 l 908 969 l 908 -3 l 726 -3 l 218 779 l 218 0 l 78 0 l 78 972 l 260 972 m 651 1232 l 468 1056 l 339 1056 l 468 1232 l 651 1232 z "},"Ņ":{"ha":989,"x_min":78,"x_max":908,"o":"m 260 972 l 769 189 l 769 969 l 908 969 l 908 -3 l 726 -3 l 218 779 l 218 0 l 78 0 l 78 972 l 260 972 m 582 -207 q 568 -262 579 -232 q 542 -324 557 -293 q 510 -381 526 -354 q 485 -424 494 -407 l 408 -432 q 442 -349 421 -394 q 474 -256 463 -304 q 442 -234 453 -247 q 428 -200 431 -221 q 428 -190 428 -194 q 449 -142 428 -162 q 507 -122 469 -122 q 547 -131 532 -122 q 570 -151 563 -139 q 580 -176 578 -164 q 582 -197 582 -189 q 582 -207 582 -203 z "},"Ň":{"ha":989,"x_min":78,"x_max":908,"o":"m 260 972 l 769 189 l 769 969 l 908 969 l 908 -3 l 726 -3 l 218 779 l 218 0 l 78 0 l 78 972 l 260 972 m 710 1232 l 553 1056 l 438 1056 l 279 1232 l 401 1232 l 494 1128 l 497 1128 l 589 1232 l 710 1232 z "},"Ō":{"ha":1079,"x_min":47,"x_max":1029,"o":"m 539 988 q 729 949 640 988 q 885 841 818 910 q 990 681 951 772 q 1029 486 1029 590 q 990 290 1029 382 q 885 131 951 199 q 729 23 818 63 q 538 -17 640 -17 q 347 23 436 -17 q 191 131 257 63 q 86 290 125 199 q 47 486 47 382 q 86 681 47 590 q 191 841 125 772 q 347 949 257 910 q 539 988 436 988 m 538 849 q 401 820 465 849 q 290 742 338 792 q 215 627 242 693 q 188 486 188 561 q 215 345 188 411 q 290 230 242 279 q 401 152 338 181 q 538 124 465 124 q 675 152 611 124 q 787 230 739 181 q 863 345 835 279 q 890 486 890 411 q 863 627 890 561 q 787 742 835 693 q 675 820 739 792 q 538 849 611 849 m 410 1150 l 671 1150 l 671 1056 l 410 1056 l 410 1150 z "},"Ŏ":{"ha":1079,"x_min":47,"x_max":1029,"o":"m 539 988 q 729 949 640 988 q 885 841 818 910 q 990 681 951 772 q 1029 486 1029 590 q 990 290 1029 382 q 885 131 951 199 q 729 23 818 63 q 538 -17 640 -17 q 347 23 436 -17 q 191 131 257 63 q 86 290 125 199 q 47 486 47 382 q 86 681 47 590 q 191 841 125 772 q 347 949 257 910 q 539 988 436 988 m 538 849 q 401 820 465 849 q 290 742 338 792 q 215 627 242 693 q 188 486 188 561 q 215 345 188 411 q 290 230 242 279 q 401 152 338 181 q 538 124 465 124 q 675 152 611 124 q 787 230 739 181 q 863 345 835 279 q 890 486 890 411 q 863 627 890 561 q 787 742 835 693 q 675 820 739 792 q 538 849 611 849 m 700 1179 q 644 1094 689 1128 q 539 1061 599 1061 q 435 1094 481 1061 q 378 1179 390 1128 l 464 1196 q 490 1159 469 1175 q 539 1143 511 1143 q 589 1159 568 1143 q 614 1196 610 1175 l 700 1179 z "},"Ő":{"ha":1079,"x_min":47,"x_max":1029,"o":"m 539 988 q 729 949 640 988 q 885 841 818 910 q 990 681 951 772 q 1029 486 1029 590 q 990 290 1029 382 q 885 131 951 199 q 729 23 818 63 q 538 -17 640 -17 q 347 23 436 -17 q 191 131 257 63 q 86 290 125 199 q 47 486 47 382 q 86 681 47 590 q 191 841 125 772 q 347 949 257 910 q 539 988 436 988 m 538 849 q 401 820 465 849 q 290 742 338 792 q 215 627 242 693 q 188 486 188 561 q 215 345 188 411 q 290 230 242 279 q 401 152 338 181 q 538 124 465 124 q 675 152 611 124 q 787 230 739 181 q 863 345 835 279 q 890 486 890 411 q 863 627 890 561 q 787 742 835 693 q 675 820 739 792 q 538 849 611 849 m 572 1232 l 439 1057 l 310 1057 l 439 1232 l 572 1232 m 772 1232 l 639 1057 l 508 1057 l 639 1232 l 772 1232 z "},"Œ":{"ha":1336,"x_min":47,"x_max":1281,"o":"m 797 139 l 1281 139 l 1281 0 l 658 0 q 600 -12 631 -7 q 538 -17 569 -17 q 347 23 436 -17 q 191 131 257 63 q 86 290 125 199 q 47 486 47 382 q 86 681 47 590 q 191 841 125 772 q 347 949 257 910 q 538 988 436 988 q 599 984 569 988 q 657 974 628 981 l 1256 974 l 1256 835 l 797 835 l 797 575 l 1232 575 l 1232 436 l 797 436 l 797 139 m 658 826 q 601 844 631 838 q 538 850 571 850 q 401 822 465 850 q 290 744 338 793 q 215 628 242 694 q 188 486 188 561 q 215 344 188 410 q 290 228 242 278 q 401 151 338 179 q 538 122 465 122 q 601 128 571 122 q 658 144 631 133 l 658 826 z "},"Ŕ":{"ha":817,"x_min":83,"x_max":792,"o":"m 635 0 l 422 396 l 224 396 l 224 0 l 83 0 l 83 974 l 481 974 q 593 951 540 974 q 685 889 646 928 q 747 797 725 850 q 769 685 769 744 q 755 594 769 638 q 714 515 740 550 q 651 452 688 479 q 574 411 615 425 l 792 0 l 635 0 m 481 536 q 540 548 513 536 q 587 580 567 560 q 619 627 607 600 q 631 685 631 654 q 619 743 631 715 q 587 791 607 771 q 540 823 567 811 q 481 835 513 835 l 224 835 l 224 536 l 481 536 m 565 1232 l 382 1056 l 253 1056 l 382 1232 l 565 1232 z "},"Ŗ":{"ha":817,"x_min":83,"x_max":792,"o":"m 635 0 l 422 396 l 224 396 l 224 0 l 83 0 l 83 974 l 481 974 q 593 951 540 974 q 685 889 646 928 q 747 797 725 850 q 769 685 769 744 q 755 594 769 638 q 714 515 740 550 q 651 452 688 479 q 574 411 615 425 l 792 0 l 635 0 m 481 536 q 540 548 513 536 q 587 580 567 560 q 619 627 607 600 q 631 685 631 654 q 619 743 631 715 q 587 791 607 771 q 540 823 567 811 q 481 835 513 835 l 224 835 l 224 536 l 481 536 m 496 -207 q 482 -262 493 -232 q 456 -324 471 -293 q 424 -381 440 -354 q 399 -424 408 -407 l 322 -432 q 356 -349 335 -394 q 388 -256 376 -304 q 356 -234 367 -247 q 342 -200 344 -221 q 342 -190 342 -194 q 363 -142 342 -162 q 421 -122 383 -122 q 461 -131 446 -122 q 484 -151 476 -139 q 494 -176 492 -164 q 496 -197 496 -189 q 496 -207 496 -203 z "},"Ř":{"ha":817,"x_min":83,"x_max":792,"o":"m 635 0 l 422 396 l 224 396 l 224 0 l 83 0 l 83 974 l 481 974 q 593 951 540 974 q 685 889 646 928 q 747 797 725 850 q 769 685 769 744 q 755 594 769 638 q 714 515 740 550 q 651 452 688 479 q 574 411 615 425 l 792 0 l 635 0 m 481 536 q 540 548 513 536 q 587 580 567 560 q 619 627 607 600 q 631 685 631 654 q 619 743 631 715 q 587 791 607 771 q 540 823 567 811 q 481 835 513 835 l 224 835 l 224 536 l 481 536 m 624 1232 l 467 1056 l 351 1056 l 193 1232 l 315 1232 l 408 1128 l 411 1128 l 503 1232 l 624 1232 z "},"Ś":{"ha":758,"x_min":50,"x_max":728,"o":"m 414 554 q 526 513 472 536 q 622 454 581 489 q 688 372 664 419 q 711 258 711 325 q 711 251 711 256 q 682 136 710 186 q 608 52 654 86 q 503 1 563 18 q 381 -17 444 -17 q 235 0 315 -17 q 50 58 154 17 l 103 188 q 256 139 186 154 q 382 124 325 124 q 449 130 415 124 q 510 153 483 136 q 554 194 538 169 q 571 256 571 219 q 571 261 571 258 q 552 324 571 297 q 503 368 533 350 q 439 399 474 386 q 374 421 404 411 q 264 462 317 439 q 169 519 211 485 q 103 601 128 553 q 79 718 79 650 q 107 835 79 785 q 181 920 135 886 q 287 971 226 954 q 410 988 347 988 q 551 972 472 988 q 728 917 629 957 l 676 788 q 533 834 600 818 q 408 850 465 850 q 342 843 375 850 q 281 819 308 836 q 235 778 253 803 q 218 717 218 754 q 237 651 218 678 q 285 606 256 624 q 350 576 315 588 q 414 554 385 564 m 536 1232 l 353 1056 l 224 1056 l 353 1232 l 536 1232 z "},"Ŝ":{"ha":758,"x_min":50,"x_max":728,"o":"m 414 554 q 526 513 472 536 q 622 454 581 489 q 688 372 664 419 q 711 258 711 325 q 711 251 711 256 q 682 136 710 186 q 608 52 654 86 q 503 1 563 18 q 381 -17 444 -17 q 235 0 315 -17 q 50 58 154 17 l 103 188 q 256 139 186 154 q 382 124 325 124 q 449 130 415 124 q 510 153 483 136 q 554 194 538 169 q 571 256 571 219 q 571 261 571 258 q 552 324 571 297 q 503 368 533 350 q 439 399 474 386 q 374 421 404 411 q 264 462 317 439 q 169 519 211 485 q 103 601 128 553 q 79 718 79 650 q 107 835 79 785 q 181 920 135 886 q 287 971 226 954 q 410 988 347 988 q 551 972 472 988 q 728 917 629 957 l 676 788 q 533 834 600 818 q 408 850 465 850 q 342 843 375 850 q 281 819 308 836 q 235 778 253 803 q 218 717 218 754 q 237 651 218 678 q 285 606 256 624 q 350 576 315 588 q 414 554 385 564 m 436 1231 l 593 1056 l 472 1056 l 379 1160 l 376 1160 l 285 1056 l 164 1056 l 319 1231 l 436 1231 z "},"Ş":{"ha":758,"x_min":50,"x_max":728,"o":"m 414 554 q 526 513 472 536 q 622 454 581 489 q 688 372 664 419 q 711 258 711 325 q 711 251 711 256 q 682 136 710 186 q 608 52 654 86 q 503 1 563 18 q 381 -17 444 -17 q 235 0 315 -17 q 50 58 154 17 l 103 188 q 256 139 186 154 q 382 124 325 124 q 449 130 415 124 q 510 153 483 136 q 554 194 538 169 q 571 256 571 219 q 571 261 571 258 q 552 324 571 297 q 503 368 533 350 q 439 399 474 386 q 374 421 404 411 q 264 462 317 439 q 169 519 211 485 q 103 601 128 553 q 79 718 79 650 q 107 835 79 785 q 181 920 135 886 q 287 971 226 954 q 410 988 347 988 q 551 972 472 988 q 728 917 629 957 l 676 788 q 533 834 600 818 q 408 850 465 850 q 342 843 375 850 q 281 819 308 836 q 235 778 253 803 q 218 717 218 754 q 237 651 218 678 q 285 606 256 624 q 350 576 315 588 q 414 554 385 564 m 411 -53 q 483 -89 453 -61 q 513 -162 513 -117 q 499 -219 513 -196 q 464 -256 486 -242 q 413 -277 442 -271 q 357 -283 385 -283 q 297 -277 326 -283 q 247 -258 268 -271 l 269 -187 q 306 -200 285 -194 q 350 -206 328 -206 q 393 -196 376 -206 q 410 -165 410 -186 q 381 -126 410 -139 q 294 -107 351 -112 l 361 19 l 453 19 l 411 -53 z "},"Š":{"ha":758,"x_min":50,"x_max":728,"o":"m 414 554 q 526 513 472 536 q 622 454 581 489 q 688 372 664 419 q 711 258 711 325 q 711 251 711 256 q 682 136 710 186 q 608 52 654 86 q 503 1 563 18 q 381 -17 444 -17 q 235 0 315 -17 q 50 58 154 17 l 103 188 q 256 139 186 154 q 382 124 325 124 q 449 130 415 124 q 510 153 483 136 q 554 194 538 169 q 571 256 571 219 q 571 261 571 258 q 552 324 571 297 q 503 368 533 350 q 439 399 474 386 q 374 421 404 411 q 264 462 317 439 q 169 519 211 485 q 103 601 128 553 q 79 718 79 650 q 107 835 79 785 q 181 920 135 886 q 287 971 226 954 q 410 988 347 988 q 551 972 472 988 q 728 917 629 957 l 676 788 q 533 834 600 818 q 408 850 465 850 q 342 843 375 850 q 281 819 308 836 q 235 778 253 803 q 218 717 218 754 q 237 651 218 678 q 285 606 256 624 q 350 576 315 588 q 414 554 385 564 m 596 1232 l 439 1056 l 324 1056 l 165 1232 l 288 1232 l 381 1128 l 383 1128 l 475 1232 l 596 1232 z "},"Ť":{"ha":899,"x_min":46,"x_max":856,"o":"m 46 974 l 856 974 l 856 835 l 519 835 l 519 0 l 381 0 l 381 835 l 46 835 l 46 974 m 665 1232 l 508 1056 l 393 1056 l 235 1232 l 357 1232 l 450 1128 l 453 1128 l 544 1232 l 665 1232 z "},"Ŧ":{"ha":899,"x_min":44,"x_max":853,"o":"m 853 974 l 853 835 l 518 835 l 518 513 l 649 513 l 649 419 l 518 419 l 518 0 l 379 0 l 379 419 l 249 419 l 249 513 l 379 513 l 379 835 l 44 835 l 44 974 l 853 974 z "},"Ũ":{"ha":915,"x_min":51,"x_max":864,"o":"m 725 974 l 864 974 l 864 390 q 838 224 864 299 q 761 96 813 150 q 634 13 710 42 q 458 -17 558 -17 q 283 13 358 -17 q 156 96 207 42 q 78 224 104 150 q 51 390 51 299 l 51 974 l 192 974 l 192 390 q 208 274 192 324 q 258 190 225 224 q 342 140 292 157 q 458 124 392 124 q 575 140 525 124 q 658 190 625 157 q 708 274 692 224 q 725 390 725 324 l 725 974 m 535 1151 q 562 1163 553 1151 q 574 1211 571 1174 l 653 1211 q 653 1197 653 1204 q 627 1094 653 1129 q 549 1058 601 1058 q 500 1065 522 1058 q 453 1086 478 1072 q 415 1106 432 1097 q 382 1114 399 1114 q 356 1097 365 1114 q 344 1049 347 1079 l 264 1049 q 264 1061 264 1056 q 292 1169 264 1128 q 369 1210 319 1210 q 417 1201 396 1210 q 463 1179 439 1192 q 500 1160 482 1168 q 535 1151 518 1151 z "},"Ū":{"ha":915,"x_min":51,"x_max":864,"o":"m 725 974 l 864 974 l 864 390 q 838 224 864 299 q 761 96 813 150 q 634 13 710 42 q 458 -17 558 -17 q 283 13 358 -17 q 156 96 207 42 q 78 224 104 150 q 51 390 51 299 l 51 974 l 192 974 l 192 390 q 208 274 192 324 q 258 190 225 224 q 342 140 292 157 q 458 124 392 124 q 575 140 525 124 q 658 190 625 157 q 708 274 692 224 q 725 390 725 324 l 725 974 m 328 1150 l 589 1150 l 589 1056 l 328 1056 l 328 1150 z "},"Ŭ":{"ha":915,"x_min":51,"x_max":864,"o":"m 725 974 l 864 974 l 864 390 q 838 224 864 299 q 761 96 813 150 q 634 13 710 42 q 458 -17 558 -17 q 283 13 358 -17 q 156 96 207 42 q 78 224 104 150 q 51 390 51 299 l 51 974 l 192 974 l 192 390 q 208 274 192 324 q 258 190 225 224 q 342 140 292 157 q 458 124 392 124 q 575 140 525 124 q 658 190 625 157 q 708 274 692 224 q 725 390 725 324 l 725 974 m 619 1179 q 563 1094 608 1128 q 458 1061 518 1061 q 355 1094 400 1061 q 297 1179 310 1128 l 383 1196 q 410 1159 389 1175 q 458 1143 431 1143 q 508 1159 488 1143 q 533 1196 529 1175 l 619 1179 z "},"Ů":{"ha":915,"x_min":51,"x_max":864,"o":"m 725 974 l 864 974 l 864 390 q 838 224 864 299 q 761 96 813 150 q 634 13 710 42 q 458 -17 558 -17 q 283 13 358 -17 q 156 96 207 42 q 78 224 104 150 q 51 390 51 299 l 51 974 l 192 974 l 192 390 q 208 274 192 324 q 258 190 225 224 q 342 140 292 157 q 458 124 392 124 q 575 140 525 124 q 658 190 625 157 q 708 274 692 224 q 725 390 725 324 l 725 974 m 460 1040 q 348 1078 390 1040 q 306 1171 306 1117 q 347 1269 306 1229 q 460 1308 388 1308 q 572 1269 532 1308 q 611 1171 611 1231 q 569 1078 611 1115 q 460 1040 526 1040 m 457 1249 q 407 1226 425 1249 q 389 1171 389 1203 q 408 1122 389 1144 q 458 1100 426 1100 q 508 1121 489 1100 q 528 1174 528 1142 q 508 1226 528 1204 q 457 1249 489 1249 z "},"Ű":{"ha":915,"x_min":51,"x_max":864,"o":"m 725 974 l 864 974 l 864 390 q 838 224 864 299 q 761 96 813 150 q 634 13 710 42 q 458 -17 558 -17 q 283 13 358 -17 q 156 96 207 42 q 78 224 104 150 q 51 390 51 299 l 51 974 l 192 974 l 192 390 q 208 274 192 324 q 258 190 225 224 q 342 140 292 157 q 458 124 392 124 q 575 140 525 124 q 658 190 625 157 q 708 274 692 224 q 725 390 725 324 l 725 974 m 490 1232 l 357 1057 l 228 1057 l 357 1232 l 490 1232 m 690 1232 l 557 1057 l 426 1057 l 557 1232 l 690 1232 z "},"Ţ":{"ha":899,"x_min":46,"x_max":856,"o":"m 46 974 l 856 974 l 856 835 l 519 835 l 519 0 l 381 0 l 381 835 l 46 835 l 46 974 m 439 -53 q 510 -89 481 -61 q 540 -162 540 -117 q 527 -219 540 -196 q 492 -256 514 -242 q 441 -277 469 -271 q 385 -283 413 -283 q 325 -277 354 -283 q 275 -258 296 -271 l 297 -187 q 334 -200 313 -194 q 378 -206 356 -206 q 421 -196 404 -206 q 438 -165 438 -186 q 408 -126 438 -139 q 322 -107 379 -112 l 389 19 l 481 19 l 439 -53 z "},"Ų":{"ha":915,"x_min":51,"x_max":864,"o":"m 725 974 l 864 974 l 864 390 q 838 224 864 299 q 761 96 813 150 q 634 13 710 42 q 458 -17 558 -17 q 283 13 358 -17 q 156 96 207 42 q 78 224 104 150 q 51 390 51 299 l 51 974 l 192 974 l 192 390 q 208 274 192 324 q 258 190 225 224 q 342 140 292 157 q 458 124 392 124 q 575 140 525 124 q 658 190 625 157 q 708 274 692 224 q 725 390 725 324 l 725 974 m 610 6 q 567 -29 589 -10 q 528 -69 546 -49 q 499 -110 510 -90 q 488 -149 488 -131 q 500 -184 488 -169 q 532 -199 513 -199 q 569 -190 551 -199 q 604 -167 588 -181 l 639 -242 q 618 -258 632 -249 q 587 -274 604 -267 q 549 -286 569 -281 q 506 -292 528 -292 q 456 -284 479 -292 q 416 -262 433 -276 q 388 -226 399 -247 q 376 -178 376 -206 q 390 -123 376 -150 q 422 -72 403 -96 q 465 -29 442 -49 q 507 6 488 -10 l 610 6 z "},"Ŵ":{"ha":1378,"x_min":25,"x_max":1356,"o":"m 1211 974 l 1356 974 l 1085 0 l 903 0 l 690 731 l 478 0 l 296 0 l 25 974 l 169 974 l 386 192 l 613 974 l 768 974 l 993 192 l 1211 974 m 746 1231 l 903 1056 l 782 1056 l 689 1160 l 686 1160 l 594 1056 l 474 1056 l 629 1231 l 746 1231 z "},"Ŷ":{"ha":882,"x_min":26,"x_max":860,"o":"m 860 974 l 513 425 l 513 0 l 374 0 l 374 425 l 26 974 l 203 974 l 443 569 l 689 974 l 860 974 m 499 1231 l 656 1056 l 535 1056 l 442 1160 l 439 1160 l 347 1056 l 226 1056 l 382 1231 l 499 1231 z "},"Ÿ":{"ha":882,"x_min":26,"x_max":860,"o":"m 860 974 l 513 425 l 513 0 l 374 0 l 374 425 l 26 974 l 203 974 l 443 569 l 689 974 l 860 974 m 585 1219 q 643 1196 621 1219 q 665 1136 665 1172 q 643 1079 665 1104 q 585 1054 621 1054 q 525 1079 547 1054 q 503 1136 503 1104 q 526 1196 503 1172 q 585 1219 550 1219 m 301 1219 q 358 1196 335 1219 q 381 1136 381 1172 q 358 1079 381 1104 q 300 1054 336 1054 q 240 1079 264 1054 q 217 1136 217 1104 q 241 1196 217 1172 q 301 1219 265 1219 z "},"Ź":{"ha":872,"x_min":35,"x_max":836,"o":"m 829 974 l 829 882 l 247 140 l 836 140 l 836 0 l 35 0 l 35 92 l 615 835 l 85 835 l 85 974 l 829 974 m 593 1232 l 410 1056 l 281 1056 l 410 1232 l 593 1232 z "},"Ż":{"ha":872,"x_min":35,"x_max":836,"o":"m 829 974 l 829 882 l 247 140 l 836 140 l 836 0 l 35 0 l 35 92 l 615 835 l 85 835 l 85 974 l 829 974 m 436 1046 q 371 1073 396 1046 q 346 1136 346 1100 q 372 1201 346 1175 q 436 1226 397 1226 q 500 1201 475 1226 q 525 1136 525 1175 q 501 1073 525 1100 q 436 1046 476 1046 z "},"Ž":{"ha":872,"x_min":35,"x_max":836,"o":"m 829 974 l 829 882 l 247 140 l 836 140 l 836 0 l 35 0 l 35 92 l 615 835 l 85 835 l 85 974 l 829 974 m 653 1232 l 496 1056 l 381 1056 l 222 1232 l 344 1232 l 438 1128 l 440 1128 l 532 1232 l 653 1232 z "},"Ǵ":{"ha":983,"x_min":49,"x_max":939,"o":"m 939 167 q 857 80 899 115 q 767 24 815 44 q 664 -6 719 3 q 540 -15 608 -15 q 349 24 439 -15 q 193 132 260 64 q 88 292 126 200 q 49 488 49 383 q 88 683 49 592 q 193 842 126 774 q 349 950 260 911 q 540 989 439 989 q 733 949 643 989 q 890 838 824 908 l 792 739 q 680 822 744 792 q 540 851 615 851 q 403 823 467 851 q 292 745 340 794 q 217 629 244 696 q 189 488 189 563 q 217 346 189 411 q 292 231 244 281 q 403 153 340 182 q 540 125 467 125 q 690 148 622 125 q 800 231 758 171 l 800 407 l 514 407 l 514 546 l 939 546 l 939 167 m 649 1232 l 465 1056 l 336 1056 l 465 1232 l 649 1232 z "},"Ș":{"ha":758,"x_min":50,"x_max":728,"o":"m 414 554 q 526 513 472 536 q 622 454 581 489 q 688 372 664 419 q 711 258 711 325 q 711 251 711 256 q 682 136 710 186 q 608 52 654 86 q 503 1 563 18 q 381 -17 444 -17 q 235 0 315 -17 q 50 58 154 17 l 103 188 q 256 139 186 154 q 382 124 325 124 q 449 130 415 124 q 510 153 483 136 q 554 194 538 169 q 571 256 571 219 q 571 261 571 258 q 552 324 571 297 q 503 368 533 350 q 439 399 474 386 q 374 421 404 411 q 264 462 317 439 q 169 519 211 485 q 103 601 128 553 q 79 718 79 650 q 107 835 79 785 q 181 920 135 886 q 287 971 226 954 q 410 988 347 988 q 551 972 472 988 q 728 917 629 957 l 676 788 q 533 834 600 818 q 408 850 465 850 q 342 843 375 850 q 281 819 308 836 q 235 778 253 803 q 218 717 218 754 q 237 651 218 678 q 285 606 256 624 q 350 576 315 588 q 414 554 385 564 m 467 -207 q 453 -262 464 -232 q 426 -324 442 -293 q 395 -381 411 -354 q 369 -424 379 -407 l 293 -432 q 326 -349 306 -394 q 358 -256 347 -304 q 326 -234 338 -247 q 313 -200 315 -221 q 313 -190 313 -194 q 333 -142 313 -162 q 392 -122 354 -122 q 432 -131 417 -122 q 455 -151 447 -139 q 465 -176 463 -164 q 467 -197 467 -189 q 467 -207 467 -203 z "},"Ț":{"ha":899,"x_min":46,"x_max":856,"o":"m 46 974 l 856 974 l 856 835 l 519 835 l 519 0 l 381 0 l 381 835 l 46 835 l 46 974 m 536 -207 q 522 -262 533 -232 q 496 -324 511 -293 q 465 -381 481 -354 q 439 -424 449 -407 l 363 -432 q 396 -349 375 -394 q 428 -256 417 -304 q 396 -234 407 -247 q 382 -200 385 -221 q 382 -190 382 -194 q 403 -142 382 -162 q 461 -122 424 -122 q 501 -131 486 -122 q 524 -151 517 -139 q 534 -176 532 -164 q 536 -197 536 -189 q 536 -207 536 -203 z "},"Ẁ":{"ha":1378,"x_min":25,"x_max":1356,"o":"m 1211 974 l 1356 974 l 1085 0 l 903 0 l 690 731 l 478 0 l 296 0 l 25 974 l 169 974 l 386 192 l 613 974 l 768 974 l 993 192 l 1211 974 m 717 1232 l 847 1058 l 718 1058 l 535 1232 l 717 1232 z "},"Ẃ":{"ha":1378,"x_min":25,"x_max":1356,"o":"m 1211 974 l 1356 974 l 1085 0 l 903 0 l 690 731 l 478 0 l 296 0 l 25 974 l 169 974 l 386 192 l 613 974 l 768 974 l 993 192 l 1211 974 m 847 1232 l 664 1056 l 535 1056 l 664 1232 l 847 1232 z "},"Ẅ":{"ha":1378,"x_min":25,"x_max":1356,"o":"m 1211 974 l 1356 974 l 1085 0 l 903 0 l 690 731 l 478 0 l 296 0 l 25 974 l 169 974 l 386 192 l 613 974 l 768 974 l 993 192 l 1211 974 m 833 1219 q 892 1196 869 1219 q 914 1136 914 1172 q 892 1079 914 1104 q 833 1054 869 1054 q 774 1079 796 1054 q 751 1136 751 1104 q 775 1196 751 1172 q 833 1219 799 1219 m 550 1219 q 606 1196 583 1219 q 629 1136 629 1172 q 607 1079 629 1104 q 549 1054 585 1054 q 489 1079 513 1054 q 465 1136 465 1104 q 490 1196 465 1172 q 550 1219 514 1219 z "},"Ǽ":{"ha":1322,"x_min":29,"x_max":1263,"o":"m 1217 974 l 1217 835 l 758 835 l 797 575 l 1203 575 l 1203 436 l 818 436 l 864 140 l 1263 140 l 1263 0 l 744 0 l 694 325 l 346 325 l 185 0 l 29 0 l 510 974 l 1217 974 m 414 464 l 674 464 l 613 861 l 610 861 l 414 464 m 819 1232 l 636 1056 l 507 1056 l 636 1232 l 819 1232 z "},"Ǿ":{"ha":1082,"x_min":49,"x_max":1031,"o":"m 936 1000 l 856 871 q 983 703 936 803 q 1031 488 1031 604 q 992 292 1031 383 q 886 132 953 200 q 731 24 819 64 q 539 -17 642 -17 q 426 -3 481 -17 q 322 36 371 11 l 250 -78 l 171 -28 l 244 86 q 101 259 154 154 q 49 488 49 364 q 88 683 49 592 q 192 842 126 774 q 348 951 258 911 q 539 990 438 990 q 665 974 604 990 q 779 926 725 957 l 858 1050 l 936 1000 m 188 488 q 223 328 188 401 q 319 204 258 254 l 704 808 q 626 840 667 829 q 539 850 585 850 q 403 822 467 850 q 291 744 339 793 q 215 628 243 694 q 188 488 188 563 m 539 124 q 676 152 613 124 q 788 230 740 181 q 864 346 836 279 q 892 488 892 413 q 861 635 892 567 q 778 751 831 703 l 399 156 q 466 131 431 139 q 539 124 501 124 m 699 1232 l 515 1056 l 386 1056 l 515 1232 l 699 1232 z "},"Ŋ":{"ha":989,"x_min":78,"x_max":908,"o":"m 908 974 l 908 -18 q 881 -161 908 -107 q 807 -246 853 -215 q 702 -286 761 -276 q 582 -296 643 -296 l 582 -157 q 644 -153 613 -157 q 700 -135 675 -149 q 740 -100 725 -122 q 756 -43 756 -78 l 218 783 l 218 1 l 78 1 l 78 974 l 260 974 l 769 192 l 769 974 l 908 974 z "},"ʼ":{"ha":269,"x_min":38,"x_max":210,"o":"m 210 1228 q 198 1172 210 1203 q 171 1111 186 1142 q 139 1054 156 1081 l 114 1010 l 38 1004 q 71 1085 50 1040 q 103 1179 92 1131 q 71 1199 83 1186 q 57 1235 58 1213 q 57 1246 57 1240 q 77 1292 57 1272 q 136 1313 97 1313 q 176 1304 161 1313 q 199 1283 190 1296 q 208 1259 207 1271 q 210 1239 210 1247 q 210 1228 210 1233 z "},"Ĭ":{"ha":313,"x_min":-6,"x_max":317,"o":"m 86 974 l 225 974 l 225 0 l 86 0 l 86 974 m 317 1179 q 260 1094 306 1128 q 156 1061 215 1061 q 52 1094 97 1061 q -6 1179 7 1128 l 81 1196 q 107 1159 86 1175 q 156 1143 128 1143 q 206 1159 185 1143 q 231 1196 226 1175 l 317 1179 z "},"ı":{"ha":336,"x_min":99,"x_max":239,"o":"m 239 701 l 239 0 l 99 0 l 99 701 l 239 701 z "},"ĭ":{"ha":336,"x_min":7,"x_max":329,"o":"m 239 701 l 239 0 l 99 0 l 99 701 l 239 701 m 329 992 q 273 906 318 940 q 168 872 228 872 q 65 906 110 872 q 7 992 19 940 l 93 1008 q 119 971 99 986 q 168 956 139 956 q 217 971 197 956 q 243 1008 238 986 l 329 992 z "},"à":{"ha":863,"x_min":51,"x_max":796,"o":"m 656 704 l 796 704 l 796 0 l 656 0 l 656 88 q 547 11 610 39 q 411 -17 485 -17 q 272 13 338 -17 q 157 92 206 42 q 80 209 108 142 q 51 353 51 276 q 80 496 51 429 q 157 613 108 563 q 272 692 206 663 q 411 721 338 721 q 547 693 485 721 q 656 617 610 665 l 656 704 m 411 122 q 497 140 457 122 q 567 190 538 158 q 615 263 597 221 q 632 353 632 304 q 615 442 632 400 q 567 515 597 483 q 497 564 538 546 q 411 582 457 582 q 326 564 365 582 q 256 515 286 546 q 208 442 225 483 q 190 353 190 400 q 208 263 190 304 q 256 190 225 221 q 326 140 286 158 q 411 122 365 122 m 458 1051 l 589 878 l 460 878 l 278 1051 l 458 1051 z "},"á":{"ha":863,"x_min":51,"x_max":796,"o":"m 656 704 l 796 704 l 796 0 l 656 0 l 656 88 q 547 11 610 39 q 411 -17 485 -17 q 272 13 338 -17 q 157 92 206 42 q 80 209 108 142 q 51 353 51 276 q 80 496 51 429 q 157 613 108 563 q 272 692 206 663 q 411 721 338 721 q 547 693 485 721 q 656 617 610 665 l 656 704 m 411 122 q 497 140 457 122 q 567 190 538 158 q 615 263 597 221 q 632 353 632 304 q 615 442 632 400 q 567 515 597 483 q 497 564 538 546 q 411 582 457 582 q 326 564 365 582 q 256 515 286 546 q 208 442 225 483 q 190 353 190 400 q 208 263 190 304 q 256 190 225 221 q 326 140 286 158 q 411 122 365 122 m 588 1053 l 404 878 l 274 878 l 404 1053 l 588 1053 z "},"â":{"ha":863,"x_min":51,"x_max":796,"o":"m 656 704 l 796 704 l 796 0 l 656 0 l 656 88 q 547 11 610 39 q 411 -17 485 -17 q 272 13 338 -17 q 157 92 206 42 q 80 209 108 142 q 51 353 51 276 q 80 496 51 429 q 157 613 108 563 q 272 692 206 663 q 411 721 338 721 q 547 693 485 721 q 656 617 610 665 l 656 704 m 411 122 q 497 140 457 122 q 567 190 538 158 q 615 263 597 221 q 632 353 632 304 q 615 442 632 400 q 567 515 597 483 q 497 564 538 546 q 411 582 457 582 q 326 564 365 582 q 256 515 286 546 q 208 442 225 483 q 190 353 190 400 q 208 263 190 304 q 256 190 225 221 q 326 140 286 158 q 411 122 365 122 m 488 1049 l 646 874 l 524 874 l 431 978 l 428 978 l 336 874 l 217 874 l 372 1049 l 488 1049 z "},"ã":{"ha":863,"x_min":51,"x_max":796,"o":"m 656 704 l 796 704 l 796 0 l 656 0 l 656 88 q 547 11 610 39 q 411 -17 485 -17 q 272 13 338 -17 q 157 92 206 42 q 80 209 108 142 q 51 353 51 276 q 80 496 51 429 q 157 613 108 563 q 272 692 206 663 q 411 721 338 721 q 547 693 485 721 q 656 617 610 665 l 656 704 m 411 122 q 497 140 457 122 q 567 190 538 158 q 615 263 597 221 q 632 353 632 304 q 615 442 632 400 q 567 515 597 483 q 497 564 538 546 q 411 582 457 582 q 326 564 365 582 q 256 515 286 546 q 208 442 225 483 q 190 353 190 400 q 208 263 190 304 q 256 190 225 221 q 326 140 286 158 q 411 122 365 122 m 510 986 q 536 997 526 986 q 549 1046 546 1008 l 628 1046 q 628 1038 628 1042 q 602 928 628 965 q 524 892 576 892 q 475 899 497 892 q 428 919 453 907 q 389 939 406 931 q 357 947 372 947 q 330 931 339 947 q 318 882 321 914 l 239 882 q 239 896 239 889 q 266 1003 239 963 q 344 1043 293 1043 q 392 1035 371 1043 q 438 1013 414 1026 q 474 994 457 1003 q 510 986 492 986 z "},"ä":{"ha":863,"x_min":51,"x_max":796,"o":"m 656 704 l 796 704 l 796 0 l 656 0 l 656 88 q 547 11 610 39 q 411 -17 485 -17 q 272 13 338 -17 q 157 92 206 42 q 80 209 108 142 q 51 353 51 276 q 80 496 51 429 q 157 613 108 563 q 272 692 206 663 q 411 721 338 721 q 547 693 485 721 q 656 617 610 665 l 656 704 m 411 122 q 497 140 457 122 q 567 190 538 158 q 615 263 597 221 q 632 353 632 304 q 615 442 632 400 q 567 515 597 483 q 497 564 538 546 q 411 582 457 582 q 326 564 365 582 q 256 515 286 546 q 208 442 225 483 q 190 353 190 400 q 208 263 190 304 q 256 190 225 221 q 326 140 286 158 q 411 122 365 122 m 575 1038 q 634 1014 611 1038 q 657 954 657 990 q 634 897 657 922 q 575 872 611 872 q 516 897 539 872 q 493 954 493 922 q 517 1014 493 990 q 575 1038 540 1038 m 292 1038 q 349 1014 326 1038 q 371 954 371 990 q 349 897 371 922 q 292 872 326 872 q 232 897 256 872 q 208 954 208 922 q 232 1014 208 990 q 292 1038 256 1038 z "},"å":{"ha":863,"x_min":51,"x_max":796,"o":"m 656 704 l 796 704 l 796 0 l 656 0 l 656 88 q 547 11 610 39 q 411 -17 485 -17 q 272 13 338 -17 q 157 92 206 42 q 80 209 108 142 q 51 353 51 276 q 80 496 51 429 q 157 613 108 563 q 272 692 206 663 q 411 721 338 721 q 547 693 485 721 q 656 617 610 665 l 656 704 m 411 122 q 497 140 457 122 q 567 190 538 158 q 615 263 597 221 q 632 353 632 304 q 615 442 632 400 q 567 515 597 483 q 497 564 538 546 q 411 582 457 582 q 326 564 365 582 q 256 515 286 546 q 208 442 225 483 q 190 353 190 400 q 208 263 190 304 q 256 190 225 221 q 326 140 286 158 q 411 122 365 122 m 433 864 q 321 901 363 864 q 279 994 279 939 q 320 1091 279 1051 q 433 1131 361 1131 q 544 1092 504 1131 q 585 994 585 1053 q 542 901 585 939 q 433 864 500 864 m 431 1072 q 380 1049 399 1072 q 361 994 361 1026 q 381 944 361 967 q 431 922 400 922 q 482 944 463 922 q 501 996 501 965 q 482 1050 501 1028 q 431 1072 463 1072 z "},"æ":{"ha":1375,"x_min":36,"x_max":1340,"o":"m 979 721 q 1119 692 1054 721 q 1234 613 1185 663 q 1312 496 1283 563 q 1340 353 1340 429 q 1340 333 1340 343 q 1339 314 1339 324 l 761 314 q 788 238 768 272 q 836 177 807 203 q 902 138 865 151 q 979 124 939 124 q 1119 157 1068 124 q 1204 267 1171 190 l 1332 210 q 1198 40 1283 97 q 979 -17 1113 -17 q 872 3 922 -17 q 781 56 821 22 l 781 0 l 640 0 l 640 88 q 531 11 594 39 q 396 -17 468 -17 q 256 13 322 -17 q 142 92 190 42 q 65 209 93 142 q 36 353 36 276 q 65 496 36 429 q 142 613 93 563 q 256 692 190 663 q 396 721 322 721 q 531 693 468 721 q 640 617 594 665 l 640 704 l 781 704 l 781 649 q 872 702 821 683 q 979 721 922 721 m 1190 414 q 1160 481 1181 450 q 1113 533 1140 511 q 1051 569 1086 556 q 979 582 1017 582 q 907 569 942 582 q 844 533 872 556 q 797 481 817 511 q 768 414 778 450 l 1190 414 m 396 124 q 482 141 442 124 q 552 190 522 158 q 599 263 582 221 q 617 353 617 304 q 599 442 617 400 q 552 515 582 483 q 482 564 522 546 q 396 582 442 582 q 310 564 350 582 q 240 515 269 546 q 192 442 210 483 q 175 353 175 400 q 192 263 175 304 q 240 190 210 221 q 310 141 269 158 q 396 124 350 124 z "},"ç":{"ha":726,"x_min":54,"x_max":672,"o":"m 672 94 q 556 13 622 43 q 415 -17 490 -17 q 274 13 340 -17 q 160 92 208 42 q 83 209 111 142 q 54 353 54 276 q 83 496 54 429 q 160 613 111 563 q 274 692 208 663 q 415 721 340 721 q 556 691 490 721 q 672 610 622 661 l 574 511 q 503 563 544 544 q 415 582 463 582 q 329 564 369 582 q 259 515 289 546 q 212 442 229 483 q 194 353 194 400 q 212 263 194 304 q 259 190 229 221 q 329 140 289 158 q 415 122 369 122 q 503 141 463 122 q 574 193 544 160 l 672 94 m 396 -53 q 467 -89 438 -61 q 497 -162 497 -117 q 484 -219 497 -196 q 449 -256 471 -242 q 398 -277 426 -271 q 342 -283 369 -283 q 282 -277 311 -283 q 232 -258 253 -271 l 254 -187 q 291 -200 269 -194 q 335 -206 313 -206 q 378 -196 361 -206 q 394 -165 394 -186 q 365 -126 394 -139 q 279 -107 336 -112 l 346 19 l 438 19 l 396 -53 z "},"è":{"ha":832,"x_min":57,"x_max":778,"o":"m 200 314 q 225 238 206 272 q 274 177 244 203 q 340 137 303 151 q 417 122 376 122 q 558 156 506 122 q 642 267 610 189 l 769 210 q 635 40 721 96 q 417 -17 550 -17 q 277 13 343 -17 q 163 92 211 42 q 85 209 114 142 q 57 353 57 276 q 85 496 57 429 q 163 613 114 563 q 277 692 211 663 q 417 721 343 721 q 558 692 492 721 q 672 613 624 663 q 749 496 721 563 q 778 353 778 429 q 777 333 778 343 q 776 314 776 324 l 200 314 m 628 414 q 598 481 618 450 q 551 533 578 511 q 490 569 524 556 q 417 582 456 582 q 344 569 379 582 q 283 533 310 556 q 235 481 256 511 q 207 414 215 450 l 628 414 m 443 1051 l 574 878 l 444 878 l 263 1051 l 443 1051 z "},"é":{"ha":832,"x_min":57,"x_max":778,"o":"m 200 314 q 225 238 206 272 q 274 177 244 203 q 340 137 303 151 q 417 122 376 122 q 558 156 506 122 q 642 267 610 189 l 769 210 q 635 40 721 96 q 417 -17 550 -17 q 277 13 343 -17 q 163 92 211 42 q 85 209 114 142 q 57 353 57 276 q 85 496 57 429 q 163 613 114 563 q 277 692 211 663 q 417 721 343 721 q 558 692 492 721 q 672 613 624 663 q 749 496 721 563 q 778 353 778 429 q 777 333 778 343 q 776 314 776 324 l 200 314 m 628 414 q 598 481 618 450 q 551 533 578 511 q 490 569 524 556 q 417 582 456 582 q 344 569 379 582 q 283 533 310 556 q 235 481 256 511 q 207 414 215 450 l 628 414 m 572 1053 l 389 878 l 258 878 l 389 1053 l 572 1053 z "},"ê":{"ha":832,"x_min":57,"x_max":778,"o":"m 200 314 q 225 238 206 272 q 274 177 244 203 q 340 137 303 151 q 417 122 376 122 q 558 156 506 122 q 642 267 610 189 l 769 210 q 635 40 721 96 q 417 -17 550 -17 q 277 13 343 -17 q 163 92 211 42 q 85 209 114 142 q 57 353 57 276 q 85 496 57 429 q 163 613 114 563 q 277 692 211 663 q 417 721 343 721 q 558 692 492 721 q 672 613 624 663 q 749 496 721 563 q 778 353 778 429 q 777 333 778 343 q 776 314 776 324 l 200 314 m 628 414 q 598 481 618 450 q 551 533 578 511 q 490 569 524 556 q 417 582 456 582 q 344 569 379 582 q 283 533 310 556 q 235 481 256 511 q 207 414 215 450 l 628 414 m 475 1047 l 633 872 l 511 872 l 418 976 l 415 976 l 324 872 l 204 872 l 360 1047 l 475 1047 z "},"ë":{"ha":832,"x_min":57,"x_max":778,"o":"m 200 314 q 225 238 206 272 q 274 177 244 203 q 340 137 303 151 q 417 122 376 122 q 558 156 506 122 q 642 267 610 189 l 769 210 q 635 40 721 96 q 417 -17 550 -17 q 277 13 343 -17 q 163 92 211 42 q 85 209 114 142 q 57 353 57 276 q 85 496 57 429 q 163 613 114 563 q 277 692 211 663 q 417 721 343 721 q 558 692 492 721 q 672 613 624 663 q 749 496 721 563 q 778 353 778 429 q 777 333 778 343 q 776 314 776 324 l 200 314 m 628 414 q 598 481 618 450 q 551 533 578 511 q 490 569 524 556 q 417 582 456 582 q 344 569 379 582 q 283 533 310 556 q 235 481 256 511 q 207 414 215 450 l 628 414 m 560 1038 q 619 1014 596 1038 q 642 954 642 990 q 619 897 642 922 q 560 872 596 872 q 501 897 524 872 q 478 954 478 922 q 501 1014 478 990 q 560 1038 525 1038 m 276 1038 q 333 1014 311 1038 q 356 954 356 990 q 333 897 356 922 q 276 872 311 872 q 217 897 240 872 q 193 954 193 922 q 217 1014 193 990 q 276 1038 240 1038 z "},"ì":{"ha":338,"x_min":14,"x_max":325,"o":"m 240 701 l 240 0 l 100 0 l 100 701 l 240 701 m 194 1051 l 325 878 l 196 878 l 14 1051 l 194 1051 z "},"í":{"ha":336,"x_min":10,"x_max":324,"o":"m 239 701 l 239 0 l 99 0 l 99 701 l 239 701 m 324 1053 l 140 878 l 10 878 l 140 1053 l 324 1053 z "},"î":{"ha":336,"x_min":-46,"x_max":383,"o":"m 239 701 l 239 0 l 99 0 l 99 701 l 239 701 m 225 1047 l 383 872 l 261 872 l 168 976 l 165 976 l 74 872 l -46 872 l 110 1047 l 225 1047 z "},"ï":{"ha":333,"x_min":-57,"x_max":392,"o":"m 238 701 l 238 0 l 97 0 l 97 701 l 238 701 m 310 1038 q 369 1014 346 1038 q 392 954 392 990 q 369 897 392 922 q 310 872 346 872 q 251 897 274 872 q 228 954 228 922 q 251 1014 228 990 q 310 1038 275 1038 m 26 1038 q 83 1014 61 1038 q 106 954 106 990 q 83 897 106 922 q 26 872 61 872 q -33 897 -10 872 q -57 954 -57 922 q -33 1014 -57 990 q 26 1038 -10 1038 z "},"ñ":{"ha":822,"x_min":76,"x_max":750,"o":"m 438 721 q 561 698 504 721 q 660 635 618 675 q 726 542 701 596 q 750 424 750 488 l 750 0 l 610 0 l 610 372 q 596 463 610 424 q 556 528 582 501 q 495 568 531 554 q 421 582 460 582 q 332 565 369 582 q 269 519 294 549 q 230 449 243 489 q 217 358 217 408 l 217 0 l 76 0 l 76 703 l 217 703 l 217 618 q 260 663 235 644 q 315 695 286 682 q 376 715 344 708 q 438 721 407 721 m 489 986 q 515 997 506 986 q 528 1046 525 1008 l 607 1046 q 607 1038 607 1042 q 581 928 607 965 q 503 892 556 892 q 454 899 476 892 q 407 919 432 907 q 368 939 385 931 q 336 947 351 947 q 309 931 318 947 q 297 882 300 914 l 218 882 q 218 896 218 889 q 245 1003 218 963 q 324 1043 272 1043 q 372 1035 350 1043 q 417 1013 393 1026 q 453 994 436 1003 q 489 986 471 986 z "},"ò":{"ha":828,"x_min":54,"x_max":775,"o":"m 414 721 q 555 692 489 721 q 669 613 621 663 q 747 495 718 563 q 775 351 775 428 q 747 208 775 275 q 669 92 718 142 q 555 13 621 42 q 415 -17 489 -17 q 274 13 340 -17 q 160 92 208 42 q 83 208 111 142 q 54 351 54 275 q 83 495 54 428 q 160 613 111 563 q 274 692 208 663 q 414 721 340 721 m 414 582 q 328 564 368 582 q 258 515 289 546 q 210 442 228 483 q 193 351 193 400 q 210 263 193 304 q 258 190 228 221 q 328 140 289 158 q 414 122 368 122 q 501 140 460 122 q 572 190 542 158 q 619 263 601 221 q 636 351 636 304 q 619 442 636 400 q 572 515 601 483 q 501 564 542 546 q 414 582 460 582 m 440 1051 l 571 878 l 442 878 l 260 1051 l 440 1051 z "},"ó":{"ha":828,"x_min":54,"x_max":775,"o":"m 414 721 q 555 692 489 721 q 669 613 621 663 q 747 495 718 563 q 775 351 775 428 q 747 208 775 275 q 669 92 718 142 q 555 13 621 42 q 415 -17 489 -17 q 274 13 340 -17 q 160 92 208 42 q 83 208 111 142 q 54 351 54 275 q 83 495 54 428 q 160 613 111 563 q 274 692 208 663 q 414 721 340 721 m 414 582 q 328 564 368 582 q 258 515 289 546 q 210 442 228 483 q 193 351 193 400 q 210 263 193 304 q 258 190 228 221 q 328 140 289 158 q 414 122 368 122 q 501 140 460 122 q 572 190 542 158 q 619 263 601 221 q 636 351 636 304 q 619 442 636 400 q 572 515 601 483 q 501 564 542 546 q 414 582 460 582 m 571 1053 l 388 878 l 257 878 l 388 1053 l 571 1053 z "},"ô":{"ha":828,"x_min":54,"x_max":775,"o":"m 414 721 q 555 692 489 721 q 669 613 621 663 q 747 495 718 563 q 775 351 775 428 q 747 208 775 275 q 669 92 718 142 q 555 13 621 42 q 415 -17 489 -17 q 274 13 340 -17 q 160 92 208 42 q 83 208 111 142 q 54 351 54 275 q 83 495 54 428 q 160 613 111 563 q 274 692 208 663 q 414 721 340 721 m 414 582 q 328 564 368 582 q 258 515 289 546 q 210 442 228 483 q 193 351 193 400 q 210 263 193 304 q 258 190 228 221 q 328 140 289 158 q 414 122 368 122 q 501 140 460 122 q 572 190 542 158 q 619 263 601 221 q 636 351 636 304 q 619 442 636 400 q 572 515 601 483 q 501 564 542 546 q 414 582 460 582 m 471 1049 l 629 874 l 507 874 l 414 978 l 411 978 l 319 874 l 200 874 l 356 1049 l 471 1049 z "},"õ":{"ha":828,"x_min":54,"x_max":775,"o":"m 414 721 q 555 692 489 721 q 669 613 621 663 q 747 495 718 563 q 775 351 775 428 q 747 208 775 275 q 669 92 718 142 q 555 13 621 42 q 415 -17 489 -17 q 274 13 340 -17 q 160 92 208 42 q 83 208 111 142 q 54 351 54 275 q 83 495 54 428 q 160 613 111 563 q 274 692 208 663 q 414 721 340 721 m 414 582 q 328 564 368 582 q 258 515 289 546 q 210 442 228 483 q 193 351 193 400 q 210 263 193 304 q 258 190 228 221 q 328 140 289 158 q 414 122 368 122 q 501 140 460 122 q 572 190 542 158 q 619 263 601 221 q 636 351 636 304 q 619 442 636 400 q 572 515 601 483 q 501 564 542 546 q 414 582 460 582 m 492 986 q 518 997 508 986 q 531 1046 528 1008 l 610 1046 q 610 1038 610 1042 q 584 928 610 965 q 506 892 558 892 q 457 899 479 892 q 410 919 435 907 q 371 939 388 931 q 339 947 354 947 q 312 931 321 947 q 300 882 303 914 l 221 882 q 221 896 221 889 q 248 1003 221 963 q 326 1043 275 1043 q 374 1035 353 1043 q 419 1013 396 1026 q 456 994 439 1003 q 492 986 474 986 z "},"ö":{"ha":828,"x_min":54,"x_max":775,"o":"m 414 721 q 555 692 489 721 q 669 613 621 663 q 747 495 718 563 q 775 351 775 428 q 747 208 775 275 q 669 92 718 142 q 555 13 621 42 q 415 -17 489 -17 q 274 13 340 -17 q 160 92 208 42 q 83 208 111 142 q 54 351 54 275 q 83 495 54 428 q 160 613 111 563 q 274 692 208 663 q 414 721 340 721 m 414 582 q 328 564 368 582 q 258 515 289 546 q 210 442 228 483 q 193 351 193 400 q 210 263 193 304 q 258 190 228 221 q 328 140 289 158 q 414 122 368 122 q 501 140 460 122 q 572 190 542 158 q 619 263 601 221 q 636 351 636 304 q 619 442 636 400 q 572 515 601 483 q 501 564 542 546 q 414 582 460 582 m 557 1039 q 616 1015 593 1039 q 639 956 639 992 q 616 899 639 924 q 557 874 593 874 q 498 899 521 874 q 475 956 475 924 q 499 1015 475 992 q 557 1039 522 1039 m 274 1039 q 331 1015 308 1039 q 353 956 353 992 q 331 899 353 924 q 274 874 308 874 q 214 899 238 874 q 190 956 190 924 q 214 1015 190 992 q 274 1039 238 1039 z "},"ø":{"ha":790,"x_min":35,"x_max":754,"o":"m 685 722 l 628 633 q 720 509 686 582 q 754 351 754 436 q 726 208 754 275 q 649 92 699 142 q 535 13 600 42 q 394 -17 469 -17 q 313 -7 351 -17 q 239 21 274 3 l 183 -68 l 104 -18 l 161 72 q 69 196 103 124 q 35 351 35 268 q 63 495 35 428 q 140 613 90 563 q 254 692 189 663 q 394 721 319 721 q 476 711 438 721 q 550 685 515 701 l 606 772 l 685 722 m 174 351 q 191 264 174 306 q 238 192 208 222 l 475 565 q 437 578 457 574 q 394 582 417 582 q 308 564 349 582 q 238 515 268 546 q 191 442 208 483 q 174 351 174 400 m 394 124 q 481 141 440 124 q 551 190 521 158 q 598 263 581 221 q 615 351 615 304 q 598 440 615 399 q 551 513 581 481 l 314 139 q 353 128 333 132 q 394 124 372 124 z "},"ù":{"ha":817,"x_min":64,"x_max":738,"o":"m 738 0 l 597 0 l 597 85 q 553 40 579 60 q 499 8 528 21 q 438 -11 469 -6 q 376 -17 407 -17 q 253 6 310 -17 q 154 69 196 29 q 88 163 113 108 q 64 281 64 217 l 64 703 l 204 703 l 204 318 q 220 223 204 263 q 262 158 236 183 q 322 122 288 133 q 393 110 356 110 q 480 128 442 110 q 544 178 518 146 q 584 253 571 210 q 597 344 597 296 l 597 703 l 738 703 l 738 0 m 435 1051 l 565 878 l 436 878 l 254 1051 l 435 1051 z "},"ú":{"ha":817,"x_min":64,"x_max":738,"o":"m 738 0 l 597 0 l 597 85 q 553 40 579 60 q 499 8 528 21 q 438 -11 469 -6 q 376 -17 407 -17 q 253 6 310 -17 q 154 69 196 29 q 88 163 113 108 q 64 281 64 217 l 64 703 l 204 703 l 204 318 q 220 223 204 263 q 262 158 236 183 q 322 122 288 133 q 393 110 356 110 q 480 128 442 110 q 544 178 518 146 q 584 253 571 210 q 597 344 597 296 l 597 703 l 738 703 l 738 0 m 565 1053 l 382 878 l 251 878 l 382 1053 l 565 1053 z "},"û":{"ha":817,"x_min":64,"x_max":738,"o":"m 738 0 l 597 0 l 597 85 q 553 40 579 60 q 499 8 528 21 q 438 -11 469 -6 q 376 -17 407 -17 q 253 6 310 -17 q 154 69 196 29 q 88 163 113 108 q 64 281 64 217 l 64 703 l 204 703 l 204 318 q 220 223 204 263 q 262 158 236 183 q 322 122 288 133 q 393 110 356 110 q 480 128 442 110 q 544 178 518 146 q 584 253 571 210 q 597 344 597 296 l 597 703 l 738 703 l 738 0 m 460 1049 l 618 874 l 496 874 l 403 978 l 400 978 l 308 874 l 189 874 l 344 1049 l 460 1049 z "},"ü":{"ha":817,"x_min":64,"x_max":738,"o":"m 738 0 l 597 0 l 597 85 q 553 40 579 60 q 499 8 528 21 q 438 -11 469 -6 q 376 -17 407 -17 q 253 6 310 -17 q 154 69 196 29 q 88 163 113 108 q 64 281 64 217 l 64 703 l 204 703 l 204 318 q 220 223 204 263 q 262 158 236 183 q 322 122 288 133 q 393 110 356 110 q 480 128 442 110 q 544 178 518 146 q 584 253 571 210 q 597 344 597 296 l 597 703 l 738 703 l 738 0 m 551 1038 q 610 1014 588 1038 q 633 954 633 990 q 610 897 633 922 q 551 872 588 872 q 492 897 515 872 q 469 954 469 922 q 493 1014 469 990 q 551 1038 517 1038 m 268 1038 q 325 1014 303 1038 q 347 954 347 990 q 325 897 347 922 q 268 872 303 872 q 208 897 232 872 q 185 954 185 922 q 208 1014 185 990 q 268 1038 232 1038 z "},"ý":{"ha":804,"x_min":18,"x_max":788,"o":"m 636 703 l 788 703 l 336 -367 l 185 -367 l 339 0 l 308 0 l 18 703 l 168 703 l 400 146 l 636 703 m 558 1053 l 375 878 l 244 878 l 375 1053 l 558 1053 z "},"ÿ":{"ha":804,"x_min":18,"x_max":788,"o":"m 636 703 l 788 703 l 336 -367 l 185 -367 l 339 0 l 308 0 l 18 703 l 168 703 l 400 146 l 636 703 m 546 1038 q 605 1014 582 1038 q 628 954 628 990 q 605 897 628 922 q 546 872 582 872 q 487 897 510 872 q 464 954 464 922 q 488 1014 464 990 q 546 1038 511 1038 m 263 1038 q 319 1014 297 1038 q 342 954 342 990 q 319 897 342 922 q 263 872 297 872 q 203 897 226 872 q 179 954 179 922 q 203 1014 179 990 q 263 1038 226 1038 z "},"ā":{"ha":863,"x_min":51,"x_max":796,"o":"m 656 704 l 796 704 l 796 0 l 656 0 l 656 88 q 547 11 610 39 q 411 -17 485 -17 q 272 13 338 -17 q 157 92 206 42 q 80 209 108 142 q 51 353 51 276 q 80 496 51 429 q 157 613 108 563 q 272 692 206 663 q 411 721 338 721 q 547 693 485 721 q 656 617 610 665 l 656 704 m 411 122 q 497 140 457 122 q 567 190 538 158 q 615 263 597 221 q 632 353 632 304 q 615 442 632 400 q 567 515 597 483 q 497 564 538 546 q 411 582 457 582 q 326 564 365 582 q 256 515 286 546 q 208 442 225 483 q 190 353 190 400 q 208 263 190 304 q 256 190 225 221 q 326 140 286 158 q 411 122 365 122 m 301 969 l 563 969 l 563 874 l 301 874 l 301 969 z "},"ă":{"ha":863,"x_min":51,"x_max":796,"o":"m 656 704 l 796 704 l 796 0 l 656 0 l 656 88 q 547 11 610 39 q 411 -17 485 -17 q 272 13 338 -17 q 157 92 206 42 q 80 209 108 142 q 51 353 51 276 q 80 496 51 429 q 157 613 108 563 q 272 692 206 663 q 411 721 338 721 q 547 693 485 721 q 656 617 610 665 l 656 704 m 411 122 q 497 140 457 122 q 567 190 538 158 q 615 263 597 221 q 632 353 632 304 q 615 442 632 400 q 567 515 597 483 q 497 564 538 546 q 411 582 457 582 q 326 564 365 582 q 256 515 286 546 q 208 442 225 483 q 190 353 190 400 q 208 263 190 304 q 256 190 225 221 q 326 140 286 158 q 411 122 365 122 m 593 992 q 537 906 582 940 q 432 872 492 872 q 328 906 374 872 q 271 992 283 940 l 357 1008 q 383 971 363 986 q 432 956 403 956 q 481 971 461 956 q 507 1008 501 986 l 593 992 z "},"ą":{"ha":863,"x_min":51,"x_max":796,"o":"m 656 704 l 796 704 l 796 0 l 656 0 l 656 88 q 547 11 610 39 q 411 -17 485 -17 q 272 13 338 -17 q 157 92 206 42 q 80 209 108 142 q 51 353 51 276 q 80 496 51 429 q 157 613 108 563 q 272 692 206 663 q 411 721 338 721 q 547 693 485 721 q 656 617 610 665 l 656 704 m 411 122 q 497 140 457 122 q 567 190 538 158 q 615 263 597 221 q 632 353 632 304 q 615 442 632 400 q 567 515 597 483 q 497 564 538 546 q 411 582 457 582 q 326 564 365 582 q 256 515 286 546 q 208 442 225 483 q 190 353 190 400 q 208 263 190 304 q 256 190 225 221 q 326 140 286 158 q 411 122 365 122 m 761 6 q 719 -29 740 -10 q 679 -69 697 -49 q 650 -110 661 -90 q 639 -149 639 -131 q 651 -184 639 -169 q 683 -199 664 -199 q 721 -190 703 -199 q 756 -167 739 -181 l 790 -242 q 769 -258 783 -249 q 738 -274 756 -267 q 700 -286 721 -281 q 657 -292 679 -292 q 608 -284 631 -292 q 567 -262 585 -276 q 539 -226 550 -247 q 528 -178 528 -206 q 541 -123 528 -150 q 574 -72 554 -96 q 616 -29 593 -49 q 658 6 639 -10 l 761 6 z "},"ć":{"ha":726,"x_min":54,"x_max":672,"o":"m 672 94 q 556 13 622 43 q 415 -17 490 -17 q 274 13 340 -17 q 160 92 208 42 q 83 209 111 142 q 54 353 54 276 q 83 496 54 429 q 160 613 111 563 q 274 692 208 663 q 415 721 340 721 q 556 691 490 721 q 672 610 622 661 l 574 511 q 503 563 544 544 q 415 582 463 582 q 329 564 369 582 q 259 515 289 546 q 212 442 229 483 q 194 353 194 400 q 212 263 194 304 q 259 190 229 221 q 329 140 289 158 q 415 122 369 122 q 503 141 463 122 q 574 193 544 160 l 672 94 m 519 1053 l 336 878 l 206 878 l 336 1053 l 519 1053 z "},"ĉ":{"ha":726,"x_min":54,"x_max":672,"o":"m 672 94 q 556 13 622 43 q 415 -17 490 -17 q 274 13 340 -17 q 160 92 208 42 q 83 209 111 142 q 54 353 54 276 q 83 496 54 429 q 160 613 111 563 q 274 692 208 663 q 415 721 340 721 q 556 691 490 721 q 672 610 622 661 l 574 511 q 503 563 544 544 q 415 582 463 582 q 329 564 369 582 q 259 515 289 546 q 212 442 229 483 q 194 353 194 400 q 212 263 194 304 q 259 190 229 221 q 329 140 289 158 q 415 122 369 122 q 503 141 463 122 q 574 193 544 160 l 672 94 m 421 1049 l 579 874 l 457 874 l 364 978 l 361 978 l 269 874 l 150 874 l 306 1049 l 421 1049 z "},"ċ":{"ha":726,"x_min":54,"x_max":672,"o":"m 672 94 q 556 13 622 43 q 415 -17 490 -17 q 274 13 340 -17 q 160 92 208 42 q 83 209 111 142 q 54 353 54 276 q 83 496 54 429 q 160 613 111 563 q 274 692 208 663 q 415 721 340 721 q 556 691 490 721 q 672 610 622 661 l 574 511 q 503 563 544 544 q 415 582 463 582 q 329 564 369 582 q 259 515 289 546 q 212 442 229 483 q 194 353 194 400 q 212 263 194 304 q 259 190 229 221 q 329 140 289 158 q 415 122 369 122 q 503 141 463 122 q 574 193 544 160 l 672 94 m 364 869 q 298 897 324 869 q 272 960 272 924 q 298 1024 272 997 q 364 1050 324 1050 q 428 1024 403 1050 q 453 960 453 999 q 428 897 453 924 q 364 869 403 869 z "},"č":{"ha":726,"x_min":54,"x_max":672,"o":"m 672 94 q 556 13 622 43 q 415 -17 490 -17 q 274 13 340 -17 q 160 92 208 42 q 83 209 111 142 q 54 353 54 276 q 83 496 54 429 q 160 613 111 563 q 274 692 208 663 q 415 721 340 721 q 556 691 490 721 q 672 610 622 661 l 574 511 q 503 563 544 544 q 415 582 463 582 q 329 564 369 582 q 259 515 289 546 q 212 442 229 483 q 194 353 194 400 q 212 263 194 304 q 259 190 229 221 q 329 140 289 158 q 415 122 369 122 q 503 141 463 122 q 574 193 544 160 l 672 94 m 579 1049 l 424 874 l 307 874 l 149 1049 l 271 1049 l 364 944 l 367 944 l 460 1049 l 579 1049 z "},"ď":{"ha":999,"x_min":39,"x_max":1022,"o":"m 1022 976 q 1009 921 1021 951 q 983 860 997 890 q 952 802 968 829 q 925 758 936 775 l 850 751 q 883 833 863 788 q 914 926 903 879 q 883 948 894 935 q 869 983 871 961 q 869 994 869 989 q 890 1041 869 1021 q 947 1061 910 1061 q 988 1053 972 1061 q 1010 1032 1003 1044 q 1020 1008 1018 1019 q 1022 986 1022 996 q 1022 976 1022 981 m 643 1035 l 783 1035 l 783 0 l 643 0 l 643 88 q 535 11 597 39 q 399 -17 472 -17 q 259 13 325 -17 q 144 92 193 42 q 67 209 96 142 q 39 353 39 276 q 67 496 39 429 q 144 613 96 563 q 259 692 193 663 q 399 721 325 721 q 535 693 472 721 q 643 617 597 665 l 643 1035 m 399 124 q 485 141 444 124 q 555 190 525 158 q 602 263 585 221 q 619 353 619 304 q 602 442 619 400 q 555 515 585 483 q 485 564 525 546 q 399 582 444 582 q 313 564 353 582 q 242 515 272 546 q 195 442 213 483 q 178 353 178 400 q 195 263 178 304 q 242 190 213 221 q 313 141 272 158 q 399 124 353 124 z "},"đ":{"ha":863,"x_min":35,"x_max":879,"o":"m 879 932 l 879 839 l 779 839 l 779 0 l 639 0 l 639 88 q 531 11 593 39 q 394 -17 468 -17 q 255 13 321 -17 q 140 92 189 42 q 63 209 92 142 q 35 353 35 276 q 63 496 35 429 q 140 613 92 563 q 255 692 189 663 q 394 721 321 721 q 531 693 468 721 q 639 617 593 665 l 639 839 l 535 839 l 535 932 l 639 932 l 639 1035 l 779 1035 l 779 932 l 879 932 m 394 124 q 481 141 440 124 q 551 190 521 158 q 598 263 581 221 q 615 353 615 304 q 598 442 615 400 q 551 515 581 483 q 481 564 521 546 q 394 582 440 582 q 308 564 349 582 q 238 515 268 546 q 191 442 208 483 q 174 353 174 400 q 191 263 174 304 q 238 190 208 221 q 308 141 268 158 q 394 124 349 124 z "},"ē":{"ha":832,"x_min":57,"x_max":778,"o":"m 200 314 q 225 238 206 272 q 274 177 244 203 q 340 137 303 151 q 417 122 376 122 q 558 156 506 122 q 642 267 610 189 l 769 210 q 635 40 721 96 q 417 -17 550 -17 q 277 13 343 -17 q 163 92 211 42 q 85 209 114 142 q 57 353 57 276 q 85 496 57 429 q 163 613 114 563 q 277 692 211 663 q 417 721 343 721 q 558 692 492 721 q 672 613 624 663 q 749 496 721 563 q 778 353 778 429 q 777 333 778 343 q 776 314 776 324 l 200 314 m 628 414 q 598 481 618 450 q 551 533 578 511 q 490 569 524 556 q 417 582 456 582 q 344 569 379 582 q 283 533 310 556 q 235 481 256 511 q 207 414 215 450 l 628 414 m 286 968 l 547 968 l 547 872 l 286 872 l 286 968 z "},"ĕ":{"ha":832,"x_min":57,"x_max":778,"o":"m 200 314 q 225 238 206 272 q 274 177 244 203 q 340 137 303 151 q 417 122 376 122 q 558 156 506 122 q 642 267 610 189 l 769 210 q 635 40 721 96 q 417 -17 550 -17 q 277 13 343 -17 q 163 92 211 42 q 85 209 114 142 q 57 353 57 276 q 85 496 57 429 q 163 613 114 563 q 277 692 211 663 q 417 721 343 721 q 558 692 492 721 q 672 613 624 663 q 749 496 721 563 q 778 353 778 429 q 777 333 778 343 q 776 314 776 324 l 200 314 m 628 414 q 598 481 618 450 q 551 533 578 511 q 490 569 524 556 q 417 582 456 582 q 344 569 379 582 q 283 533 310 556 q 235 481 256 511 q 207 414 215 450 l 628 414 m 578 992 q 522 906 567 940 q 417 872 476 872 q 313 906 358 872 q 256 992 268 940 l 342 1008 q 367 971 347 986 q 417 956 388 956 q 466 971 446 956 q 492 1008 486 986 l 578 992 z "},"ė":{"ha":832,"x_min":57,"x_max":778,"o":"m 200 314 q 225 238 206 272 q 274 177 244 203 q 340 137 303 151 q 417 122 376 122 q 558 156 506 122 q 642 267 610 189 l 769 210 q 635 40 721 96 q 417 -17 550 -17 q 277 13 343 -17 q 163 92 211 42 q 85 209 114 142 q 57 353 57 276 q 85 496 57 429 q 163 613 114 563 q 277 692 211 663 q 417 721 343 721 q 558 692 492 721 q 672 613 624 663 q 749 496 721 563 q 778 353 778 429 q 777 333 778 343 q 776 314 776 324 l 200 314 m 628 414 q 598 481 618 450 q 551 533 578 511 q 490 569 524 556 q 417 582 456 582 q 344 569 379 582 q 283 533 310 556 q 235 481 256 511 q 207 414 215 450 l 628 414 m 418 872 q 352 899 378 872 q 326 963 326 926 q 352 1026 326 1000 q 418 1053 378 1053 q 482 1027 457 1053 q 507 963 507 1001 q 482 899 507 926 q 418 872 457 872 z "},"ę":{"ha":832,"x_min":57,"x_max":778,"o":"m 200 314 q 225 238 206 272 q 274 177 244 203 q 340 137 303 151 q 417 122 376 122 q 558 156 506 122 q 642 267 610 189 l 769 210 q 635 40 721 96 q 417 -17 550 -17 q 277 13 343 -17 q 163 92 211 42 q 85 209 114 142 q 57 353 57 276 q 85 496 57 429 q 163 613 114 563 q 277 692 211 663 q 417 721 343 721 q 558 692 492 721 q 672 613 624 663 q 749 496 721 563 q 778 353 778 429 q 777 333 778 343 q 776 314 776 324 l 200 314 m 628 414 q 598 481 618 450 q 551 533 578 511 q 490 569 524 556 q 417 582 456 582 q 344 569 379 582 q 283 533 310 556 q 235 481 256 511 q 207 414 215 450 l 628 414 m 561 6 q 519 -29 540 -10 q 479 -69 497 -49 q 450 -110 461 -90 q 439 -149 439 -131 q 451 -184 439 -169 q 483 -199 464 -199 q 521 -190 503 -199 q 556 -167 539 -181 l 590 -242 q 569 -258 583 -249 q 538 -274 556 -267 q 500 -286 521 -281 q 457 -292 479 -292 q 408 -284 431 -292 q 367 -262 385 -276 q 339 -226 350 -247 q 328 -178 328 -206 q 341 -123 328 -150 q 374 -72 354 -96 q 416 -29 393 -49 q 458 6 439 -10 l 561 6 z "},"ě":{"ha":832,"x_min":57,"x_max":778,"o":"m 200 314 q 225 238 206 272 q 274 177 244 203 q 340 137 303 151 q 417 122 376 122 q 558 156 506 122 q 642 267 610 189 l 769 210 q 635 40 721 96 q 417 -17 550 -17 q 277 13 343 -17 q 163 92 211 42 q 85 209 114 142 q 57 353 57 276 q 85 496 57 429 q 163 613 114 563 q 277 692 211 663 q 417 721 343 721 q 558 692 492 721 q 672 613 624 663 q 749 496 721 563 q 778 353 778 429 q 777 333 778 343 q 776 314 776 324 l 200 314 m 628 414 q 598 481 618 450 q 551 533 578 511 q 490 569 524 556 q 417 582 456 582 q 344 569 379 582 q 283 533 310 556 q 235 481 256 511 q 207 414 215 450 l 628 414 m 632 1049 l 476 874 l 360 874 l 201 1049 l 324 1049 l 417 944 l 419 944 l 513 1049 l 632 1049 z "},"ĝ":{"ha":879,"x_min":53,"x_max":801,"o":"m 663 703 l 801 703 l 801 32 q 799 -19 801 17 q 785 -99 797 -54 q 749 -191 774 -143 q 677 -278 724 -239 q 560 -342 631 -317 q 388 -368 490 -368 q 233 -349 304 -368 q 101 -299 161 -329 l 151 -168 q 265 -213 204 -197 q 388 -229 325 -229 q 502 -217 451 -229 q 588 -175 553 -204 q 643 -95 624 -146 q 663 35 663 -44 l 663 92 q 551 12 615 40 q 414 -17 488 -17 q 274 13 339 -17 q 159 92 208 42 q 81 208 110 142 q 53 351 53 275 q 81 495 53 428 q 159 613 110 563 q 274 692 208 663 q 414 721 339 721 q 551 692 488 721 q 663 613 615 664 l 663 703 m 414 122 q 499 140 460 122 q 569 190 539 158 q 616 263 599 221 q 633 351 633 304 q 616 442 633 400 q 569 515 599 483 q 499 564 539 546 q 414 582 460 582 q 328 564 368 582 q 257 515 288 546 q 209 442 226 483 q 192 351 192 400 q 209 263 192 304 q 257 190 226 221 q 328 140 288 158 q 414 122 368 122 m 496 1049 l 654 874 l 532 874 l 439 978 l 436 978 l 344 874 l 225 874 l 381 1049 l 496 1049 z "},"ğ":{"ha":879,"x_min":53,"x_max":801,"o":"m 663 703 l 801 703 l 801 32 q 799 -19 801 17 q 785 -99 797 -54 q 749 -191 774 -143 q 677 -278 724 -239 q 560 -342 631 -317 q 388 -368 490 -368 q 233 -349 304 -368 q 101 -299 161 -329 l 151 -168 q 265 -213 204 -197 q 388 -229 325 -229 q 502 -217 451 -229 q 588 -175 553 -204 q 643 -95 624 -146 q 663 35 663 -44 l 663 92 q 551 12 615 40 q 414 -17 488 -17 q 274 13 339 -17 q 159 92 208 42 q 81 208 110 142 q 53 351 53 275 q 81 495 53 428 q 159 613 110 563 q 274 692 208 663 q 414 721 339 721 q 551 692 488 721 q 663 613 615 664 l 663 703 m 414 122 q 499 140 460 122 q 569 190 539 158 q 616 263 599 221 q 633 351 633 304 q 616 442 633 400 q 569 515 599 483 q 499 564 539 546 q 414 582 460 582 q 328 564 368 582 q 257 515 288 546 q 209 442 226 483 q 192 351 192 400 q 209 263 192 304 q 257 190 226 221 q 328 140 288 158 q 414 122 368 122 m 601 992 q 545 906 590 940 q 440 872 500 872 q 337 906 382 872 q 279 992 292 940 l 365 1008 q 391 971 371 986 q 440 956 411 956 q 490 971 469 956 q 515 1008 510 986 l 601 992 z "},"ġ":{"ha":879,"x_min":53,"x_max":801,"o":"m 663 703 l 801 703 l 801 32 q 799 -19 801 17 q 785 -99 797 -54 q 749 -191 774 -143 q 677 -278 724 -239 q 560 -342 631 -317 q 388 -368 490 -368 q 233 -349 304 -368 q 101 -299 161 -329 l 151 -168 q 265 -213 204 -197 q 388 -229 325 -229 q 502 -217 451 -229 q 588 -175 553 -204 q 643 -95 624 -146 q 663 35 663 -44 l 663 92 q 551 12 615 40 q 414 -17 488 -17 q 274 13 339 -17 q 159 92 208 42 q 81 208 110 142 q 53 351 53 275 q 81 495 53 428 q 159 613 110 563 q 274 692 208 663 q 414 721 339 721 q 551 692 488 721 q 663 613 615 664 l 663 703 m 414 122 q 499 140 460 122 q 569 190 539 158 q 616 263 599 221 q 633 351 633 304 q 616 442 633 400 q 569 515 599 483 q 499 564 539 546 q 414 582 460 582 q 328 564 368 582 q 257 515 288 546 q 209 442 226 483 q 192 351 192 400 q 209 263 192 304 q 257 190 226 221 q 328 140 288 158 q 414 122 368 122 m 442 874 q 376 901 401 874 q 350 964 350 928 q 376 1028 350 1001 q 442 1054 401 1054 q 506 1028 481 1054 q 531 964 531 1003 q 506 901 531 928 q 442 874 481 874 z "},"ģ":{"ha":863,"x_min":36,"x_max":785,"o":"m 315 901 q 329 960 317 928 q 358 1025 342 993 q 390 1085 374 1057 q 417 1132 407 1114 l 497 1139 q 460 1053 482 1101 q 429 954 439 1004 q 461 932 449 946 q 476 894 474 918 q 476 883 476 889 q 455 835 476 856 q 393 814 433 814 q 353 822 368 814 q 328 843 338 831 q 317 869 319 856 q 315 892 315 882 q 315 901 315 897 m 646 703 l 785 703 l 785 32 q 783 -19 785 17 q 769 -99 781 -54 q 732 -191 757 -143 q 660 -278 707 -239 q 544 -342 614 -317 q 371 -368 474 -368 q 216 -349 288 -368 q 85 -299 144 -329 l 133 -168 q 247 -213 186 -197 q 371 -229 307 -229 q 484 -217 433 -229 q 571 -175 535 -204 q 626 -95 607 -146 q 646 35 646 -44 l 646 92 q 534 13 599 42 q 396 -17 469 -17 q 256 13 322 -17 q 142 92 190 42 q 65 208 93 142 q 36 351 36 275 q 65 495 36 428 q 142 613 93 563 q 256 692 190 663 q 396 721 322 721 q 534 692 469 721 q 646 613 599 664 l 646 703 m 396 122 q 482 140 442 122 q 552 190 522 158 q 599 263 582 221 q 617 351 617 304 q 599 442 617 400 q 552 515 582 483 q 482 564 522 546 q 396 582 442 582 q 311 564 351 582 q 240 515 271 546 q 192 442 210 483 q 175 351 175 400 q 192 263 175 304 q 240 190 210 221 q 311 140 271 158 q 396 122 351 122 z "},"ĥ":{"ha":818,"x_min":-71,"x_max":751,"o":"m 203 1242 l 361 1065 l 238 1065 l 144 1168 l 142 1168 l 50 1065 l -71 1065 l 86 1242 l 203 1242 m 439 721 q 563 699 506 721 q 661 638 619 676 q 727 545 703 599 q 751 428 751 492 l 751 0 l 611 0 l 611 372 q 594 463 611 424 q 550 528 578 501 q 487 568 522 554 q 414 582 451 582 q 336 565 372 582 q 274 519 300 549 q 233 448 247 489 q 218 358 218 407 l 218 0 l 78 0 l 78 1033 l 218 1033 l 218 618 q 262 663 236 644 q 317 695 288 682 q 377 715 346 708 q 439 721 408 721 z "},"ħ":{"ha":818,"x_min":-24,"x_max":751,"o":"m 439 721 q 563 699 506 721 q 661 638 619 676 q 727 545 703 599 q 751 428 751 492 l 751 0 l 611 0 l 611 372 q 594 463 611 424 q 550 528 578 501 q 487 568 522 554 q 414 582 451 582 q 336 565 372 582 q 274 519 300 549 q 233 448 247 489 q 218 358 218 407 l 218 0 l 78 0 l 78 838 l -24 838 l -24 931 l 78 931 l 78 1033 l 218 1033 l 218 931 l 321 931 l 321 838 l 218 838 l 218 618 q 262 663 236 644 q 317 695 288 682 q 377 715 346 708 q 439 721 408 721 z "},"ĩ":{"ha":336,"x_min":-25,"x_max":364,"o":"m 239 701 l 239 0 l 99 0 l 99 701 l 239 701 m 246 986 q 272 997 263 986 q 285 1046 282 1008 l 364 1046 q 364 1038 364 1042 q 338 928 364 965 q 260 892 313 892 q 211 899 233 892 q 164 919 189 907 q 125 939 142 931 q 93 947 108 947 q 66 931 75 947 q 54 882 57 914 l -25 882 q -25 896 -25 889 q 2 1003 -25 963 q 81 1043 29 1043 q 128 1035 107 1043 q 174 1013 150 1026 q 210 994 193 1003 q 246 986 228 986 z "},"ī":{"ha":336,"x_min":38,"x_max":299,"o":"m 239 701 l 239 0 l 99 0 l 99 701 l 239 701 m 38 969 l 299 969 l 299 874 l 38 874 l 38 969 z "},"į":{"ha":336,"x_min":-32,"x_max":265,"o":"m 169 983 q 237 955 208 983 q 265 888 265 926 q 237 819 265 847 q 169 792 208 792 q 100 819 128 792 q 72 888 72 847 q 100 955 72 926 q 169 983 128 983 m 99 701 l 239 701 l 239 0 l 99 0 l 99 701 m 201 4 q 159 -31 181 -11 q 119 -71 138 -50 q 90 -112 101 -92 q 79 -150 79 -132 q 92 -185 79 -171 q 124 -200 104 -200 q 161 -191 143 -200 q 196 -168 179 -182 l 231 -243 q 210 -259 224 -250 q 178 -275 196 -268 q 140 -287 161 -282 q 97 -293 119 -293 q 48 -285 71 -293 q 8 -263 25 -278 q -21 -228 -10 -249 q -32 -179 -32 -207 q -19 -124 -32 -151 q 14 -74 -6 -97 q 56 -31 33 -50 q 99 4 79 -11 l 201 4 z "},"ĳ":{"ha":683,"x_min":72,"x_max":638,"o":"m 169 983 q 237 955 208 983 q 265 888 265 926 q 237 819 265 847 q 169 792 208 792 q 100 819 128 792 q 72 888 72 847 q 100 955 72 926 q 169 983 128 983 m 99 701 l 239 701 l 239 0 l 99 0 l 99 701 m 542 793 q 474 821 501 793 q 446 889 446 849 q 474 957 446 929 q 542 985 501 985 q 610 957 582 985 q 638 889 638 929 q 610 821 638 849 q 542 793 582 793 m 474 703 l 613 703 l 613 -96 q 592 -201 613 -151 q 534 -287 571 -250 q 448 -345 497 -324 q 342 -367 399 -367 l 265 -367 l 265 -226 l 342 -226 q 394 -217 369 -226 q 435 -189 418 -207 q 463 -147 453 -171 q 474 -96 474 -124 l 474 703 z "},"ĵ":{"ha":347,"x_min":-71,"x_max":424,"o":"m 267 1047 l 424 871 l 301 871 l 208 976 l 206 976 l 114 871 l -7 871 l 150 1047 l 267 1047 m 138 703 l 276 703 l 276 -96 q 256 -201 276 -151 q 198 -287 235 -250 q 112 -345 161 -324 q 6 -367 63 -367 l -71 -367 l -71 -226 l 6 -226 q 58 -217 33 -226 q 99 -189 82 -207 q 127 -147 117 -171 q 138 -96 138 -124 l 138 703 z "},"ķ":{"ha":693,"x_min":72,"x_max":676,"o":"m 211 1033 l 211 447 l 463 703 l 656 703 l 388 426 l 676 0 l 508 0 l 289 324 l 211 244 l 211 0 l 72 0 l 72 1033 l 211 1033 m 433 -207 q 419 -262 431 -232 q 393 -324 408 -293 q 362 -381 378 -354 q 336 -424 346 -407 l 260 -432 q 293 -349 272 -394 q 325 -256 314 -304 q 293 -234 304 -247 q 279 -200 282 -221 q 279 -190 279 -194 q 300 -142 279 -162 q 358 -122 321 -122 q 399 -131 383 -122 q 422 -151 414 -139 q 431 -176 429 -164 q 433 -197 433 -189 q 433 -207 433 -203 z "},"ĸ":{"ha":693,"x_min":72,"x_max":675,"o":"m 211 703 l 211 446 l 463 703 l 656 703 l 388 426 l 675 0 l 507 0 l 289 322 l 211 243 l 211 0 l 72 0 l 72 703 l 211 703 z "},"ĺ":{"ha":299,"x_min":79,"x_max":392,"o":"m 392 1242 l 208 1065 l 79 1065 l 210 1242 l 392 1242 m 81 1032 l 219 1032 l 219 0 l 81 0 l 81 1032 z "},"ļ":{"ha":300,"x_min":63,"x_max":236,"o":"m 81 1033 l 221 1033 l 221 0 l 81 0 l 81 1033 m 236 -207 q 222 -262 233 -232 q 196 -324 211 -293 q 165 -381 181 -354 q 139 -424 149 -407 l 63 -432 q 96 -349 75 -394 q 128 -256 117 -304 q 96 -234 107 -247 q 82 -200 85 -221 q 82 -190 82 -194 q 103 -142 82 -162 q 161 -122 124 -122 q 201 -131 186 -122 q 224 -151 217 -139 q 234 -176 232 -164 q 236 -197 236 -189 q 236 -207 236 -203 z "},"ľ":{"ha":460,"x_min":79,"x_max":465,"o":"m 465 976 q 452 922 464 953 q 425 860 440 890 q 394 803 410 829 q 368 758 378 776 l 292 751 q 326 834 306 789 q 357 928 346 879 q 326 948 338 935 q 311 983 314 961 q 311 993 311 989 q 332 1041 311 1021 q 392 1061 353 1061 q 430 1053 415 1061 q 453 1033 444 1046 q 463 1008 461 1019 q 465 986 465 996 q 465 976 465 981 m 79 0 l 79 1032 l 219 1032 l 219 0 l 79 0 z "},"ŀ":{"ha":472,"x_min":79,"x_max":475,"o":"m 79 1033 l 219 1033 l 219 0 l 79 0 l 79 1033 m 268 486 q 297 561 268 532 q 371 590 326 590 q 446 561 418 590 q 475 486 474 532 q 447 412 475 442 q 371 382 418 382 q 297 412 325 382 q 268 486 268 442 z "},"ł":{"ha":299,"x_min":-35,"x_max":332,"o":"m 219 1032 l 219 651 l 332 764 l 332 633 l 219 519 l 219 0 l 79 0 l 79 381 l -35 268 l -35 400 l 79 513 l 79 1032 l 219 1032 z "},"ń":{"ha":822,"x_min":76,"x_max":750,"o":"m 438 721 q 561 698 504 721 q 660 635 618 675 q 726 542 701 596 q 750 424 750 488 l 750 0 l 610 0 l 610 372 q 596 463 610 424 q 556 528 582 501 q 495 568 531 554 q 421 582 460 582 q 332 565 369 582 q 269 519 294 549 q 230 449 243 489 q 217 358 217 408 l 217 0 l 76 0 l 76 703 l 217 703 l 217 618 q 260 663 235 644 q 315 695 286 682 q 376 715 344 708 q 438 721 407 721 m 568 1053 l 385 878 l 254 878 l 385 1053 l 568 1053 z "},"ņ":{"ha":822,"x_min":76,"x_max":750,"o":"m 438 721 q 561 698 504 721 q 660 635 618 675 q 726 542 701 596 q 750 424 750 488 l 750 0 l 610 0 l 610 372 q 596 463 610 424 q 556 528 582 501 q 495 568 531 554 q 421 582 460 582 q 332 565 369 582 q 269 519 294 549 q 230 449 243 489 q 217 358 217 408 l 217 0 l 76 0 l 76 703 l 217 703 l 217 618 q 260 663 235 644 q 315 695 286 682 q 376 715 344 708 q 438 721 407 721 m 497 -207 q 483 -262 494 -232 q 457 -324 472 -293 q 426 -381 442 -354 q 400 -424 410 -407 l 324 -432 q 357 -349 336 -394 q 389 -256 378 -304 q 357 -234 368 -247 q 343 -200 346 -221 q 343 -190 343 -194 q 364 -142 343 -162 q 422 -122 385 -122 q 463 -131 447 -122 q 485 -151 478 -139 q 495 -176 493 -164 q 497 -197 497 -189 q 497 -207 497 -203 z "},"ň":{"ha":822,"x_min":76,"x_max":750,"o":"m 438 721 q 561 698 504 721 q 660 635 618 675 q 726 542 701 596 q 750 424 750 488 l 750 0 l 610 0 l 610 372 q 596 463 610 424 q 556 528 582 501 q 495 568 531 554 q 421 582 460 582 q 332 565 369 582 q 269 519 294 549 q 230 449 243 489 q 217 358 217 408 l 217 0 l 76 0 l 76 703 l 217 703 l 217 618 q 260 663 235 644 q 315 695 286 682 q 376 715 344 708 q 438 721 407 721 m 628 1049 l 472 874 l 356 874 l 197 1049 l 319 1049 l 413 944 l 415 944 l 508 1049 l 628 1049 z "},"ŉ":{"ha":856,"x_min":-57,"x_max":783,"o":"m 42 960 q 81 951 67 960 q 104 931 96 943 q 115 906 113 918 q 117 885 117 894 q 117 875 117 879 q 103 820 115 851 q 76 758 92 789 q 45 701 61 728 q 19 657 29 675 l -57 651 q -24 733 -44 688 q 8 826 -3 778 q -23 847 -11 833 q -37 882 -35 860 q -37 893 -37 888 q -17 940 -37 919 q 42 960 3 960 m 471 721 q 594 699 538 721 q 693 638 651 676 q 759 545 735 599 q 783 428 783 492 l 783 0 l 643 0 l 643 372 q 626 463 643 424 q 582 528 610 501 q 519 568 554 554 q 446 582 483 582 q 368 565 404 582 q 306 519 332 549 q 265 448 279 489 q 250 358 250 407 l 250 0 l 110 0 l 110 703 l 250 703 l 250 618 q 294 663 268 644 q 349 695 319 682 q 409 715 378 708 q 471 721 440 721 z "},"ŋ":{"ha":822,"x_min":75,"x_max":747,"o":"m 435 721 q 559 699 503 721 q 658 638 615 676 q 724 545 700 599 q 747 428 747 492 l 747 11 q 720 -123 747 -67 q 647 -217 693 -179 q 542 -272 601 -254 q 419 -290 483 -290 l 419 -151 q 490 -139 456 -151 q 549 -104 524 -126 q 592 -51 575 -82 q 608 14 608 -21 l 608 372 q 591 463 608 424 q 546 528 574 501 q 483 568 518 554 q 411 582 447 582 q 333 565 369 582 q 271 519 297 549 q 229 448 244 489 q 214 358 214 407 l 214 0 l 75 0 l 75 703 l 214 703 l 214 618 q 259 663 233 644 q 314 695 285 682 q 374 715 343 708 q 435 721 404 721 z "},"ō":{"ha":828,"x_min":54,"x_max":775,"o":"m 414 721 q 555 692 489 721 q 669 613 621 663 q 747 495 718 563 q 775 351 775 428 q 747 208 775 275 q 669 92 718 142 q 555 13 621 42 q 415 -17 489 -17 q 274 13 340 -17 q 160 92 208 42 q 83 208 111 142 q 54 351 54 275 q 83 495 54 428 q 160 613 111 563 q 274 692 208 663 q 414 721 340 721 m 414 582 q 328 564 368 582 q 258 515 289 546 q 210 442 228 483 q 193 351 193 400 q 210 263 193 304 q 258 190 228 221 q 328 140 289 158 q 414 122 368 122 q 501 140 460 122 q 572 190 542 158 q 619 263 601 221 q 636 351 636 304 q 619 442 636 400 q 572 515 601 483 q 501 564 542 546 q 414 582 460 582 m 283 968 l 544 968 l 544 872 l 283 872 l 283 968 z "},"ŏ":{"ha":828,"x_min":54,"x_max":775,"o":"m 414 721 q 555 692 489 721 q 669 613 621 663 q 747 495 718 563 q 775 351 775 428 q 747 208 775 275 q 669 92 718 142 q 555 13 621 42 q 415 -17 489 -17 q 274 13 340 -17 q 160 92 208 42 q 83 208 111 142 q 54 351 54 275 q 83 495 54 428 q 160 613 111 563 q 274 692 208 663 q 414 721 340 721 m 414 582 q 328 564 368 582 q 258 515 289 546 q 210 442 228 483 q 193 351 193 400 q 210 263 193 304 q 258 190 228 221 q 328 140 289 158 q 414 122 368 122 q 501 140 460 122 q 572 190 542 158 q 619 263 601 221 q 636 351 636 304 q 619 442 636 400 q 572 515 601 483 q 501 564 542 546 q 414 582 460 582 m 575 992 q 519 906 564 940 q 414 872 474 872 q 310 906 356 872 q 253 992 265 940 l 339 1008 q 365 971 344 986 q 414 956 385 956 q 463 971 443 956 q 489 1008 483 986 l 575 992 z "},"ő":{"ha":828,"x_min":54,"x_max":775,"o":"m 414 721 q 555 692 489 721 q 669 613 621 663 q 747 495 718 563 q 775 351 775 428 q 747 208 775 275 q 669 92 718 142 q 555 13 621 42 q 415 -17 489 -17 q 274 13 340 -17 q 160 92 208 42 q 83 208 111 142 q 54 351 54 275 q 83 495 54 428 q 160 613 111 563 q 274 692 208 663 q 414 721 340 721 m 414 582 q 328 564 368 582 q 258 515 289 546 q 210 442 228 483 q 193 351 193 400 q 210 263 193 304 q 258 190 228 221 q 328 140 289 158 q 414 122 368 122 q 501 140 460 122 q 572 190 542 158 q 619 263 601 221 q 636 351 636 304 q 619 442 636 400 q 572 515 601 483 q 501 564 542 546 q 414 582 460 582 m 447 1049 l 313 872 l 183 872 l 313 1049 l 447 1049 m 647 1049 l 513 872 l 383 872 l 514 1049 l 647 1049 z "},"œ":{"ha":1372,"x_min":36,"x_max":1339,"o":"m 978 721 q 1118 692 1053 721 q 1233 613 1183 663 q 1310 496 1282 563 q 1339 353 1339 429 q 1338 333 1339 343 q 1338 314 1338 324 l 760 314 q 786 238 767 272 q 835 177 806 203 q 901 138 864 151 q 978 124 938 124 q 1118 157 1067 124 q 1201 267 1169 190 l 1329 210 q 1196 40 1282 97 q 978 -17 1110 -17 q 890 -6 932 -17 q 810 26 847 6 q 742 75 774 47 q 686 139 711 103 q 631 75 663 103 q 563 26 600 47 q 484 -6 526 6 q 396 -17 442 -17 q 256 13 322 -17 q 142 92 190 42 q 65 209 93 142 q 36 353 36 276 q 65 496 36 429 q 142 613 93 563 q 256 692 190 663 q 396 721 322 721 q 484 710 442 721 q 563 678 526 699 q 631 630 600 658 q 686 567 663 601 q 742 630 711 601 q 810 678 774 658 q 890 710 847 699 q 978 721 932 721 m 1188 414 q 1159 481 1179 450 q 1111 533 1139 511 q 1049 569 1083 556 q 978 582 1015 582 q 906 569 940 582 q 843 533 871 556 q 796 481 815 511 q 767 414 776 450 l 1188 414 m 396 124 q 483 141 442 124 q 553 190 524 158 q 601 263 583 221 q 618 353 618 304 q 601 442 618 400 q 553 515 583 483 q 483 564 524 546 q 396 582 442 582 q 310 564 350 582 q 240 515 271 546 q 193 442 210 483 q 176 353 176 400 q 193 263 176 304 q 240 190 210 221 q 310 141 271 158 q 396 124 350 124 z "},"ŕ":{"ha":490,"x_min":88,"x_max":461,"o":"m 461 717 l 461 576 l 371 576 q 316 568 342 576 q 270 542 290 560 q 239 501 250 525 q 228 446 228 476 l 228 0 l 88 0 l 88 717 l 228 717 l 228 635 q 287 694 251 672 q 371 717 322 717 l 461 717 m 401 1053 l 218 878 l 88 878 l 218 1053 l 401 1053 z "},"ŗ":{"ha":490,"x_min":88,"x_max":461,"o":"m 461 717 l 461 576 l 371 576 q 316 568 342 576 q 270 542 290 560 q 239 501 250 525 q 228 446 228 476 l 228 0 l 88 0 l 88 717 l 228 717 l 228 635 q 287 694 251 672 q 371 717 322 717 l 461 717 m 332 -207 q 318 -262 329 -232 q 292 -324 307 -293 q 260 -381 276 -354 q 235 -424 244 -407 l 158 -432 q 192 -349 171 -394 q 224 -256 213 -304 q 192 -234 203 -247 q 178 -200 181 -221 q 178 -190 178 -194 q 199 -142 178 -162 q 257 -122 219 -122 q 297 -131 282 -122 q 320 -151 313 -139 q 330 -176 328 -164 q 332 -197 332 -189 q 332 -207 332 -203 z "},"ř":{"ha":490,"x_min":33,"x_max":464,"o":"m 461 717 l 461 576 l 371 576 q 316 568 342 576 q 270 542 290 560 q 239 501 250 525 q 228 446 228 476 l 228 0 l 88 0 l 88 717 l 228 717 l 228 635 q 287 694 251 672 q 371 717 322 717 l 461 717 m 464 1049 l 308 874 l 192 874 l 33 1049 l 156 1049 l 249 944 l 251 944 l 344 1049 l 464 1049 z "},"ś":{"ha":583,"x_min":49,"x_max":533,"o":"m 529 229 q 532 193 532 211 q 515 113 532 156 q 456 35 499 69 q 390 0 432 17 q 286 -17 349 -17 q 181 -5 239 -17 q 49 39 122 7 l 101 168 q 203 134 158 144 q 265 123 247 124 q 286 122 283 122 q 336 128 315 122 q 369 144 357 135 q 388 170 385 157 q 392 193 392 183 q 390 208 392 200 q 358 249 388 232 q 272 285 329 267 q 210 306 244 293 q 144 340 176 319 q 88 394 113 361 q 57 472 64 426 q 54 510 54 492 q 71 590 54 547 q 131 667 88 632 q 183 699 150 683 q 248 717 215 714 q 300 721 281 721 q 391 713 336 721 q 533 669 446 704 l 482 539 q 347 581 381 581 q 311 582 313 582 q 218 558 247 582 q 197 534 203 547 q 192 507 192 521 q 193 494 192 501 q 226 453 197 471 q 314 418 256 436 q 375 397 340 410 q 441 362 410 383 q 497 308 472 340 q 529 229 521 276 m 449 1053 l 265 878 l 135 878 l 265 1053 l 449 1053 z "},"ŝ":{"ha":583,"x_min":49,"x_max":533,"o":"m 529 229 q 532 193 532 211 q 515 113 532 156 q 456 35 499 69 q 390 0 432 17 q 286 -17 349 -17 q 181 -5 239 -17 q 49 39 122 7 l 101 168 q 203 134 158 144 q 265 123 247 124 q 286 122 283 122 q 336 128 315 122 q 369 144 357 135 q 388 170 385 157 q 392 193 392 183 q 390 208 392 200 q 358 249 388 232 q 272 285 329 267 q 210 306 244 293 q 144 340 176 319 q 88 394 113 361 q 57 472 64 426 q 54 510 54 492 q 71 590 54 547 q 131 667 88 632 q 183 699 150 683 q 248 717 215 714 q 300 721 281 721 q 391 713 336 721 q 533 669 446 704 l 482 539 q 347 581 381 581 q 311 582 313 582 q 218 558 247 582 q 197 534 203 547 q 192 507 192 521 q 193 494 192 501 q 226 453 197 471 q 314 418 256 436 q 375 397 340 410 q 441 362 410 383 q 497 308 472 340 q 529 229 521 276 m 349 1049 l 507 874 l 385 874 l 292 978 l 289 978 l 197 874 l 78 874 l 233 1049 l 349 1049 z "},"ş":{"ha":583,"x_min":49,"x_max":533,"o":"m 529 229 q 532 193 532 211 q 515 113 532 156 q 456 35 499 69 q 390 0 432 17 q 286 -17 349 -17 q 181 -5 239 -17 q 49 39 122 7 l 101 168 q 203 134 158 144 q 265 123 247 124 q 286 122 283 122 q 336 128 315 122 q 369 144 357 135 q 388 170 385 157 q 392 193 392 183 q 390 208 392 200 q 358 249 388 232 q 272 285 329 267 q 210 306 244 293 q 144 340 176 319 q 88 394 113 361 q 57 472 64 426 q 54 510 54 492 q 71 590 54 547 q 131 667 88 632 q 183 699 150 683 q 248 717 215 714 q 300 721 281 721 q 391 713 336 721 q 533 669 446 704 l 482 539 q 347 581 381 581 q 311 582 313 582 q 218 558 247 582 q 197 534 203 547 q 192 507 192 521 q 193 494 192 501 q 226 453 197 471 q 314 418 256 436 q 375 397 340 410 q 441 362 410 383 q 497 308 472 340 q 529 229 521 276 m 324 -53 q 395 -89 365 -61 q 425 -162 425 -117 q 412 -219 425 -196 q 376 -256 399 -242 q 326 -277 354 -271 q 269 -283 297 -283 q 210 -277 239 -283 q 160 -258 181 -271 l 182 -187 q 219 -200 197 -194 q 263 -206 240 -206 q 306 -196 289 -206 q 322 -165 322 -186 q 293 -126 322 -139 q 207 -107 264 -112 l 274 19 l 365 19 l 324 -53 z "},"š":{"ha":583,"x_min":49,"x_max":533,"o":"m 529 229 q 532 193 532 211 q 515 113 532 156 q 456 35 499 69 q 390 0 432 17 q 286 -17 349 -17 q 181 -5 239 -17 q 49 39 122 7 l 101 168 q 203 134 158 144 q 265 123 247 124 q 286 122 283 122 q 336 128 315 122 q 369 144 357 135 q 388 170 385 157 q 392 193 392 183 q 390 208 392 200 q 358 249 388 232 q 272 285 329 267 q 210 306 244 293 q 144 340 176 319 q 88 394 113 361 q 57 472 64 426 q 54 510 54 492 q 71 590 54 547 q 131 667 88 632 q 183 699 150 683 q 248 717 215 714 q 300 721 281 721 q 391 713 336 721 q 533 669 446 704 l 482 539 q 347 581 381 581 q 311 582 313 582 q 218 558 247 582 q 197 534 203 547 q 192 507 192 521 q 193 494 192 501 q 226 453 197 471 q 314 418 256 436 q 375 397 340 410 q 441 362 410 383 q 497 308 472 340 q 529 229 521 276 m 508 1047 l 353 872 l 236 872 l 78 1047 l 200 1047 l 293 943 l 296 943 l 389 1047 l 508 1047 z "},"ţ":{"ha":468,"x_min":33,"x_max":429,"o":"m 261 228 q 269 175 261 194 q 292 147 278 156 q 329 138 307 139 q 378 136 351 136 l 426 136 l 426 0 l 356 0 q 260 8 303 0 q 187 37 218 17 q 138 92 156 57 q 121 176 121 126 l 121 576 l 33 576 l 33 717 l 121 717 l 121 883 l 261 922 l 261 717 l 375 717 l 375 576 l 261 576 l 261 228 m 328 -53 q 399 -89 369 -61 q 429 -162 429 -117 q 416 -219 429 -196 q 381 -256 403 -242 q 330 -277 358 -271 q 274 -283 301 -283 q 214 -277 243 -283 q 164 -258 185 -271 l 186 -187 q 223 -200 201 -194 q 267 -206 244 -206 q 310 -196 293 -206 q 326 -165 326 -186 q 297 -126 326 -139 q 211 -107 268 -112 l 278 19 l 369 19 l 328 -53 z "},"ť":{"ha":468,"x_min":33,"x_max":525,"o":"m 525 1025 q 510 968 522 999 q 484 908 499 938 q 453 851 469 878 q 426 807 438 824 l 351 800 q 387 883 368 839 q 415 975 406 926 q 385 997 397 983 q 371 1031 372 1010 q 371 1042 371 1036 q 391 1090 371 1069 q 450 1110 411 1110 q 489 1101 474 1110 q 513 1079 504 1092 q 523 1052 521 1067 q 525 1025 525 1038 m 261 228 q 269 175 261 194 q 293 147 278 156 q 330 138 308 139 q 378 136 351 136 l 426 136 l 426 0 l 356 0 q 261 8 304 0 q 187 37 218 17 q 138 92 156 57 q 121 176 121 126 l 121 576 l 33 576 l 33 717 l 121 717 l 121 883 l 261 922 l 261 717 l 375 717 l 375 576 l 261 576 l 261 228 z "},"ŧ":{"ha":468,"x_min":33,"x_max":426,"o":"m 426 136 l 426 0 l 356 0 q 260 8 303 0 q 187 37 218 17 q 138 92 156 57 q 121 176 121 126 l 121 325 l 35 325 l 35 419 l 121 419 l 121 576 l 33 576 l 33 717 l 121 717 l 121 883 l 261 922 l 261 717 l 375 717 l 375 576 l 261 576 l 261 419 l 367 419 l 367 325 l 261 325 l 261 228 q 269 175 261 194 q 292 147 276 156 q 329 138 307 139 q 378 136 351 136 l 426 136 z "},"ũ":{"ha":817,"x_min":64,"x_max":738,"o":"m 738 0 l 597 0 l 597 85 q 553 40 579 60 q 499 8 528 21 q 438 -11 469 -6 q 376 -17 407 -17 q 253 6 310 -17 q 154 69 196 29 q 88 163 113 108 q 64 281 64 217 l 64 703 l 204 703 l 204 318 q 220 223 204 263 q 262 158 236 183 q 322 122 288 133 q 393 110 356 110 q 480 128 442 110 q 544 178 518 146 q 584 253 571 210 q 597 344 597 296 l 597 703 l 738 703 l 738 0 m 486 986 q 513 997 503 986 q 525 1046 522 1008 l 604 1046 q 604 1038 604 1042 q 578 928 604 965 q 500 892 553 892 q 451 899 474 892 q 404 919 429 907 q 365 939 382 931 q 333 947 349 947 q 306 931 315 947 q 294 882 297 914 l 215 882 q 215 896 215 889 q 242 1003 215 963 q 321 1043 269 1043 q 369 1035 347 1043 q 414 1013 390 1026 q 451 994 433 1003 q 486 986 468 986 z "},"ū":{"ha":817,"x_min":64,"x_max":738,"o":"m 738 0 l 597 0 l 597 85 q 553 40 579 60 q 499 8 528 21 q 438 -11 469 -6 q 376 -17 407 -17 q 253 6 310 -17 q 154 69 196 29 q 88 163 113 108 q 64 281 64 217 l 64 703 l 204 703 l 204 318 q 220 223 204 263 q 262 158 236 183 q 322 122 288 133 q 393 110 356 110 q 480 128 442 110 q 544 178 518 146 q 584 253 571 210 q 597 344 597 296 l 597 703 l 738 703 l 738 0 m 279 968 l 540 968 l 540 872 l 279 872 l 279 968 z "},"ŭ":{"ha":817,"x_min":64,"x_max":738,"o":"m 738 0 l 597 0 l 597 85 q 553 40 579 60 q 499 8 528 21 q 438 -11 469 -6 q 376 -17 407 -17 q 253 6 310 -17 q 154 69 196 29 q 88 163 113 108 q 64 281 64 217 l 64 703 l 204 703 l 204 318 q 220 223 204 263 q 262 158 236 183 q 322 122 288 133 q 393 110 356 110 q 480 128 442 110 q 544 178 518 146 q 584 253 571 210 q 597 344 597 296 l 597 703 l 738 703 l 738 0 m 569 992 q 513 906 558 940 q 408 872 468 872 q 305 906 350 872 q 247 992 260 940 l 333 1008 q 359 971 339 986 q 408 956 379 956 q 458 971 438 956 q 483 1008 478 986 l 569 992 z "},"ů":{"ha":817,"x_min":64,"x_max":738,"o":"m 738 0 l 597 0 l 597 85 q 553 40 579 60 q 499 8 528 21 q 438 -11 469 -6 q 376 -17 407 -17 q 253 6 310 -17 q 154 69 196 29 q 88 163 113 108 q 64 281 64 217 l 64 703 l 204 703 l 204 318 q 220 223 204 263 q 262 158 236 183 q 322 122 288 133 q 393 110 356 110 q 480 128 442 110 q 544 178 518 146 q 584 253 571 210 q 597 344 597 296 l 597 703 l 738 703 l 738 0 m 410 867 q 297 904 339 867 q 256 997 256 942 q 297 1094 256 1054 q 410 1133 338 1133 q 521 1094 481 1133 q 561 997 561 1056 q 519 904 561 942 q 410 867 476 867 m 407 1075 q 356 1052 375 1075 q 338 997 338 1029 q 357 947 338 969 q 407 925 376 925 q 458 947 439 925 q 478 999 478 968 q 458 1053 478 1031 q 407 1075 439 1075 z "},"ű":{"ha":817,"x_min":64,"x_max":738,"o":"m 738 0 l 597 0 l 597 85 q 553 40 579 60 q 499 8 528 21 q 438 -11 469 -6 q 376 -17 407 -17 q 253 6 310 -17 q 154 69 196 29 q 88 163 113 108 q 64 281 64 217 l 64 703 l 204 703 l 204 318 q 220 223 204 263 q 262 158 236 183 q 322 122 288 133 q 393 110 356 110 q 480 128 442 110 q 544 178 518 146 q 584 253 571 210 q 597 344 597 296 l 597 703 l 738 703 l 738 0 m 440 1051 l 306 875 l 176 875 l 306 1051 l 440 1051 m 640 1051 l 506 875 l 376 875 l 507 1051 l 640 1051 z "},"ų":{"ha":817,"x_min":64,"x_max":738,"o":"m 738 0 l 597 0 l 597 85 q 553 40 579 60 q 499 8 528 21 q 438 -11 469 -6 q 376 -17 407 -17 q 253 6 310 -17 q 154 69 196 29 q 88 163 113 108 q 64 281 64 217 l 64 703 l 204 703 l 204 318 q 220 223 204 263 q 262 158 236 183 q 322 122 288 133 q 393 110 356 110 q 480 128 442 110 q 544 178 518 146 q 584 253 571 210 q 597 344 597 296 l 597 703 l 738 703 l 738 0 m 706 6 q 663 -29 685 -10 q 624 -69 642 -49 q 594 -110 606 -90 q 583 -149 583 -131 q 596 -184 583 -169 q 628 -199 608 -199 q 665 -190 647 -199 q 700 -167 683 -181 l 735 -242 q 714 -258 728 -249 q 683 -274 700 -267 q 644 -286 665 -281 q 601 -292 624 -292 q 552 -284 575 -292 q 512 -262 529 -276 q 483 -226 494 -247 q 472 -178 472 -206 q 485 -123 472 -150 q 518 -72 499 -96 q 560 -29 538 -49 q 603 6 583 -10 l 706 6 z "},"ŵ":{"ha":1228,"x_min":17,"x_max":1213,"o":"m 1064 701 l 1213 701 l 968 0 l 796 0 l 615 499 l 435 0 l 260 0 l 17 701 l 164 701 l 349 172 l 539 701 l 690 701 l 882 172 l 1064 701 m 671 1049 l 829 874 l 707 874 l 614 978 l 611 978 l 519 874 l 400 874 l 556 1049 l 671 1049 z "},"ŷ":{"ha":804,"x_min":18,"x_max":788,"o":"m 636 703 l 788 703 l 336 -367 l 185 -367 l 339 0 l 308 0 l 18 703 l 168 703 l 400 146 l 636 703 m 460 1047 l 618 872 l 496 872 l 403 976 l 400 976 l 308 872 l 189 872 l 344 1047 l 460 1047 z "},"ź":{"ha":724,"x_min":43,"x_max":676,"o":"m 675 703 l 675 621 l 247 140 l 676 140 l 676 0 l 43 0 l 43 82 l 472 563 l 51 563 l 51 703 l 675 703 m 518 1053 l 335 878 l 204 878 l 335 1053 l 518 1053 z "},"ż":{"ha":724,"x_min":43,"x_max":676,"o":"m 675 703 l 675 621 l 247 140 l 676 140 l 676 0 l 43 0 l 43 82 l 472 563 l 51 563 l 51 703 l 675 703 m 361 871 q 295 898 321 871 q 269 961 269 925 q 295 1025 269 999 q 361 1051 321 1051 q 425 1026 400 1051 q 450 961 450 1000 q 425 898 450 925 q 361 871 400 871 z "},"ž":{"ha":724,"x_min":43,"x_max":676,"o":"m 675 703 l 675 621 l 247 140 l 676 140 l 676 0 l 43 0 l 43 82 l 472 563 l 51 563 l 51 703 l 675 703 m 575 1047 l 419 872 l 303 872 l 144 1047 l 267 1047 l 360 943 l 363 943 l 456 1047 l 575 1047 z "},"ǿ":{"ha":828,"x_min":54,"x_max":774,"o":"m 704 722 l 647 633 q 740 509 706 582 q 774 351 774 436 q 746 208 774 275 q 669 92 718 142 q 554 13 619 42 q 414 -17 489 -17 q 332 -7 371 -17 q 258 21 293 3 l 203 -68 l 124 -18 l 181 72 q 88 196 122 124 q 54 351 54 268 q 82 495 54 428 q 159 613 110 563 q 274 692 208 663 q 414 721 339 721 q 496 711 457 721 q 569 685 535 701 l 625 772 l 704 722 m 193 351 q 210 264 193 306 q 257 192 228 222 l 494 565 q 456 578 476 574 q 414 582 436 582 q 328 564 368 582 q 258 515 288 546 q 210 442 228 483 q 193 351 193 400 m 414 124 q 500 141 460 124 q 570 190 540 158 q 617 263 600 221 q 635 351 635 304 q 617 440 635 399 q 571 513 600 481 l 333 139 q 372 128 353 132 q 414 124 392 124 m 571 1053 l 388 878 l 257 878 l 388 1053 l 571 1053 z "},"ș":{"ha":583,"x_min":49,"x_max":533,"o":"m 529 229 q 532 193 532 211 q 515 113 532 156 q 456 35 499 69 q 390 0 432 17 q 286 -17 349 -17 q 181 -5 239 -17 q 49 39 122 7 l 101 168 q 203 134 158 144 q 265 123 247 124 q 286 122 283 122 q 336 128 315 122 q 369 144 357 135 q 388 170 385 157 q 392 193 392 183 q 390 208 392 200 q 358 249 388 232 q 272 285 329 267 q 210 306 244 293 q 144 340 176 319 q 88 394 113 361 q 57 472 64 426 q 54 510 54 492 q 71 590 54 547 q 131 667 88 632 q 183 699 150 683 q 248 717 215 714 q 300 721 281 721 q 391 713 336 721 q 533 669 446 704 l 482 539 q 347 581 381 581 q 311 582 313 582 q 218 558 247 582 q 197 534 203 547 q 192 507 192 521 q 193 494 192 501 q 226 453 197 471 q 314 418 256 436 q 375 397 340 410 q 441 362 410 383 q 497 308 472 340 q 529 229 521 276 m 379 -207 q 365 -262 376 -232 q 339 -324 354 -293 q 308 -381 324 -354 q 282 -424 292 -407 l 206 -432 q 239 -349 218 -394 q 271 -256 260 -304 q 239 -234 250 -247 q 225 -200 228 -221 q 225 -190 225 -194 q 246 -142 225 -162 q 304 -122 267 -122 q 344 -131 329 -122 q 367 -151 360 -139 q 377 -176 375 -164 q 379 -197 379 -189 q 379 -207 379 -203 z "},"ț":{"ha":468,"x_min":33,"x_max":426,"o":"m 261 228 q 269 175 261 194 q 292 147 278 156 q 329 138 307 139 q 378 136 351 136 l 426 136 l 426 0 l 356 0 q 260 8 303 0 q 187 37 218 17 q 138 92 156 57 q 121 176 121 126 l 121 576 l 33 576 l 33 717 l 121 717 l 121 883 l 261 922 l 261 717 l 375 717 l 375 576 l 261 576 l 261 228 m 322 -207 q 308 -262 319 -232 q 282 -324 297 -293 q 251 -381 267 -354 q 225 -424 235 -407 l 149 -432 q 182 -349 161 -394 q 214 -256 203 -304 q 182 -234 193 -247 q 168 -200 171 -221 q 168 -190 168 -194 q 189 -142 168 -162 q 247 -122 210 -122 q 288 -131 272 -122 q 310 -151 303 -139 q 320 -176 318 -164 q 322 -197 322 -189 q 322 -207 322 -203 z "}}}
